<svg width="1326" height="744" viewBox="0 0 1326 744" fill="none" xmlns="http://www.w3.org/2000/svg"><path fill="#C4C4C4" d="M0 0h1326v744H0z"/><path d="M980.168 101.668a4.168 4.168 0 014.166 4.166 4.168 4.168 0 01-8.333 0 4.167 4.167 0 014.167-4.166zm0 1.666a2.5 2.5 0 100 5 2.5 2.5 0 000-5zm-7.834 7.262l7.834 12.883 7.833-12.883a9.17 9.17 0 00.156-9.255 9.164 9.164 0 00-12.617-3.419 9.167 9.167 0 00-3.206 12.674zm17.09.867l-9.256 15.225-9.257-15.225a10.839 10.839 0 013.789-14.977 10.833 10.833 0 0114.728 14.977h-.004zm132.746 116.205c1.1 0 2.16.439 2.94 1.22a4.13 4.13 0 011.22 2.946c0 1.105-.43 2.165-1.22 2.947a4.166 4.166 0 11-2.94-7.113zm0 1.666a2.498 2.498 0 00-1.77 4.268c.47.469 1.1.732 1.77.732.66 0 1.3-.263 1.77-.732.46-.469.73-1.105.73-1.768s-.27-1.299-.73-1.768a2.516 2.516 0 00-1.77-.732zm-7.84 7.262l7.84 12.883 7.83-12.883a9.04 9.04 0 001.33-4.606 9.212 9.212 0 00-1.17-4.649 9.223 9.223 0 00-3.36-3.419 9.21 9.21 0 00-4.63-1.254 9.156 9.156 0 00-7.99 4.673 9.12 9.12 0 00-1.18 4.649 9.24 9.24 0 001.33 4.606zm17.09.867l-9.25 15.225-9.26-15.225c-1-1.643-1.54-3.522-1.57-5.444-.03-1.922.44-3.818 1.39-5.493.94-1.675 2.31-3.07 3.97-4.04a10.839 10.839 0 0110.94 0c1.66.97 3.03 2.365 3.97 4.04a10.88 10.88 0 011.39 5.493 10.791 10.791 0 01-1.57 5.444h-.01zm-439.252 78.205a4.168 4.168 0 014.166 4.166 4.168 4.168 0 01-8.333 0 4.167 4.167 0 014.167-4.166zm0 1.666a2.5 2.5 0 100 5 2.5 2.5 0 000-5zm-7.834 7.262l7.834 12.883 7.833-12.883a9.17 9.17 0 00-3.205-12.674 9.173 9.173 0 00-9.256 0 9.176 9.176 0 00-4.538 8.068 9.17 9.17 0 001.332 4.606zm17.09.867l-9.256 15.225-9.257-15.225a10.839 10.839 0 013.789-14.977 10.827 10.827 0 0110.938 0 10.824 10.824 0 015.363 9.533 10.834 10.834 0 01-1.573 5.444h-.004zM329.168 587.668a4.168 4.168 0 014.166 4.166 4.168 4.168 0 01-8.333 0 4.167 4.167 0 014.167-4.166zm0 1.666a2.5 2.5 0 100 5 2.5 2.5 0 000-5zm-7.834 7.262l7.834 12.883 7.833-12.883a9.17 9.17 0 00-3.205-12.674 9.173 9.173 0 00-9.256 0 9.176 9.176 0 00-4.538 8.068 9.17 9.17 0 001.332 4.606zm17.09.867l-9.256 15.225-9.257-15.225a10.839 10.839 0 013.789-14.977 10.827 10.827 0 0110.938 0 10.824 10.824 0 015.363 9.533 10.834 10.834 0 01-1.573 5.444h-.004zm81.744-73.795a4.168 4.168 0 014.166 4.166 4.168 4.168 0 01-8.333 0 4.167 4.167 0 014.167-4.166zm0 1.666a2.5 2.5 0 100 5 2.5 2.5 0 000-5zm-7.834 7.262l7.834 12.883 7.833-12.883a9.17 9.17 0 00-3.205-12.674 9.173 9.173 0 00-9.256 0 9.176 9.176 0 00-4.538 8.068 9.17 9.17 0 001.332 4.606zm17.09.867l-9.256 15.225-9.257-15.225a10.839 10.839 0 013.789-14.977 10.827 10.827 0 0110.938 0 10.824 10.824 0 015.363 9.533 10.834 10.834 0 01-1.573 5.444h-.004zm660.746 70.205c1.1 0 2.16.439 2.94 1.22a4.13 4.13 0 011.22 2.946c0 1.105-.43 2.165-1.22 2.947a4.166 4.166 0 11-2.94-7.113zm0 1.666a2.498 2.498 0 00-1.77 4.268c.47.469 1.1.732 1.77.732.66 0 1.3-.263 1.77-.732.46-.469.73-1.105.73-1.768s-.27-1.299-.73-1.768a2.516 2.516 0 00-1.77-.732zm-7.84 7.262l7.84 12.883 7.83-12.883a9.04 9.04 0 001.33-4.606 9.212 9.212 0 00-1.17-4.649 9.223 9.223 0 00-3.36-3.419 9.21 9.21 0 00-4.63-1.254 9.156 9.156 0 00-7.99 4.673 9.12 9.12 0 00-1.18 4.649 9.24 9.24 0 001.33 4.606zm17.09.867l-9.25 15.225-9.26-15.225c-1-1.643-1.54-3.522-1.57-5.444-.03-1.922.44-3.818 1.39-5.493.94-1.675 2.31-3.07 3.97-4.04a10.839 10.839 0 0110.94 0c1.66.97 3.03 2.365 3.97 4.04a10.88 10.88 0 011.39 5.493 10.791 10.791 0 01-1.57 5.444h-.01zM924.168 508.668a4.168 4.168 0 014.166 4.166 4.168 4.168 0 01-8.333 0 4.167 4.167 0 014.167-4.166zm0 1.666a2.5 2.5 0 100 5 2.5 2.5 0 000-5zm-7.834 7.262l7.834 12.883 7.833-12.883a9.17 9.17 0 00-3.205-12.674 9.173 9.173 0 00-9.256 0 9.176 9.176 0 00-4.538 8.068 9.17 9.17 0 001.332 4.606zm17.09.867l-9.256 15.225-9.257-15.225a10.839 10.839 0 013.789-14.977 10.827 10.827 0 0110.938 0 10.824 10.824 0 015.363 9.533 10.834 10.834 0 01-1.573 5.444h-.004zM178.168 219.668a4.168 4.168 0 014.166 4.166 4.168 4.168 0 01-8.333 0 4.167 4.167 0 014.167-4.166zm0 1.666a2.5 2.5 0 100 5 2.5 2.5 0 000-5zm-7.834 7.262l7.834 12.883 7.833-12.883a9.17 9.17 0 00-3.205-12.674 9.173 9.173 0 00-9.256 0 9.176 9.176 0 00-4.538 8.068 9.17 9.17 0 001.332 4.606zm17.09.867l-9.256 15.225-9.257-15.225a10.839 10.839 0 013.789-14.977 10.827 10.827 0 0110.938 0 10.824 10.824 0 015.363 9.533 10.834 10.834 0 01-1.573 5.444h-.004z" fill="#000"/><mask id="path-10-inside-1_1104_25450" fill="#fff"><path fill-rule="evenodd" clip-rule="evenodd" d="M334.088 146.459l-9.256 15.225-9.257-15.225a10.834 10.834 0 1118.517 0h-.004zm-5.975-8.575a4.167 4.167 0 10-5.892 5.894 4.167 4.167 0 005.892-5.894z"/></mask><path fill-rule="evenodd" clip-rule="evenodd" d="M334.088 146.459l-9.256 15.225-9.257-15.225a10.834 10.834 0 1118.517 0h-.004zm-5.975-8.575a4.167 4.167 0 10-5.892 5.894 4.167 4.167 0 005.892-5.894z" fill="#111"/><path d="M324.832 161.684l-.855.519.855 1.406.854-1.406-.854-.519zm9.256-15.225v-1h-.562l-.292.48.854.52zm-18.513 0l-.855.519h.001l.854-.519zm-1.573-5.444l-1 .017 1-.017zm1.389-5.493l.872.49-.872-.49zm3.973-4.04l.505.863-.505-.863zm10.938 0l.505-.863-.505.863zm3.973 4.04l-.871.49.871-.49zm-.183 10.937v1h.562l.292-.481-.854-.519zm-5.979-8.575l.707-.707-.707.707zm-5.893 0l.707.708-.707-.708zm0 5.893l.707-.707-.707.707zm3.466 18.426l9.257-15.225-1.709-1.039-9.257 15.225 1.709 1.039zm-10.965-15.225l9.256 15.225 1.709-1.039-9.257-15.225-1.708 1.039zm-1.719-5.946a11.833 11.833 0 001.718 5.946l1.71-1.039a9.84 9.84 0 01-1.429-4.941l-1.999.034zm1.518-6a11.82 11.82 0 00-1.518 6l1.999-.034a9.833 9.833 0 011.262-4.986l-1.743-.98zm4.339-4.413a11.832 11.832 0 00-4.339 4.413l1.743.98a9.836 9.836 0 013.606-3.667l-1.01-1.726zm5.974-1.619c-2.099 0-4.161.559-5.974 1.619l1.01 1.726a9.832 9.832 0 014.964-1.345v-2zm5.974 1.619a11.832 11.832 0 00-5.974-1.619v2c1.745 0 3.458.464 4.965 1.345l1.009-1.726zm4.34 4.413a11.834 11.834 0 00-4.34-4.413l-1.009 1.726a9.844 9.844 0 013.606 3.667l1.743-.98zm1.518 6a11.84 11.84 0 00-1.518-6l-1.743.98a9.832 9.832 0 011.261 4.986l2 .034zm-1.719 5.946a11.824 11.824 0 001.719-5.946l-2-.034a9.829 9.829 0 01-1.428 4.941l1.709 1.039zm-.858.481h.004v-2h-.004v2zm-8.921-9.795c.84 0 1.645.334 2.239.928l1.414-1.415a5.166 5.166 0 00-3.653-1.513v2zm-2.24.928a3.168 3.168 0 012.24-.928v-2a5.166 5.166 0 00-3.654 1.513l1.414 1.415zm-.927 2.239c0-.84.334-1.646.927-2.239l-1.414-1.415a5.166 5.166 0 00-1.513 3.654h2zm.927 2.239a3.17 3.17 0 01-.927-2.239h-2c0 1.37.544 2.684 1.513 3.653l1.414-1.414zm2.24.927c-.84 0-1.646-.333-2.24-.927l-1.414 1.414a5.166 5.166 0 003.654 1.513v-2zm2.239-.927a3.165 3.165 0 01-2.239.927v2c1.37 0 2.684-.544 3.653-1.513l-1.414-1.414zm.927-2.239c0 .84-.333 1.645-.927 2.239l1.414 1.414a5.166 5.166 0 001.513-3.653h-2zm-.927-2.239c.594.593.927 1.399.927 2.239h2a5.166 5.166 0 00-1.513-3.654l-1.414 1.415z" fill="#000" mask="url(#path-10-inside-1_1104_25450)"/></svg>