<?xml version="1.0" encoding="utf-8"?>
<!-- Generator: Adobe Illustrator 24.3.0, SVG Export Plug-In . SVG Version: 6.00 Build 0)  -->
<svg version="1.1" xmlns="http://www.w3.org/2000/svg" xmlns:xlink="http://www.w3.org/1999/xlink" x="0px" y="0px"
	 viewBox="0 0 470.86 159.41" style="enable-background:new 0 0 470.86 159.41;" xml:space="preserve">
<style type="text/css">
	.st0{fill:#C2A878;}
</style>
<g id="Layer_1">
</g>
<g id="Layer_3">
</g>
<g id="Layer_2">
	<g>
		<g>
			<g>
				<g>
					<g>
						<g>
							<path class="st0" d="M265.15,25.75l0.04-10.42L241.4,38.85L265.15,25.75z M264.43,25.33l-18.81,10.37l18.84-18.62
								L264.43,25.33z"/>
							<path class="st0" d="M264.99,67.29l0.04-10.42L241.4,43.6L264.99,67.29z M264.28,65.54L245.6,46.78l18.71,10.51L264.28,65.54
								z"/>
							<path class="st0" d="M266.04,27.27v27.68l0.1-0.01l6.43-8.39l4.46-5.39l-10.96-13.87L266.04,27.27z M266.77,29.33l9.33,11.81
								L272,46.1l-5.23,6.74V29.33z"/>
							<path class="st0" d="M277.03,54.04V42.86l-10.06,12.73L277.03,54.04z M276.3,53.42l-7.63,1.18l7.63-9.65V53.42z"/>
							<path class="st0" d="M266.12,56.7V66.9l0.14-0.07l10.45-11.81l-10.49,1.55L266.12,56.7z M266.85,57.21l8.01-1.18l-8.01,9.06
								V57.21z"/>
							<path class="st0" d="M266.96,26.73l10.06,12.73V28.28L266.96,26.73z M276.3,37.38l-7.63-9.65l7.63,1.18V37.38z"/>
							<path class="st0" d="M276.72,27.32l-10.45-11.81l-0.14-0.07v10.2l0.1,0.12L276.72,27.32z M266.85,17.26l8.01,9.06l-8.01-1.18
								V17.26z"/>
							<path class="st0" d="M206.38,56.87l-0.04,10.42l23.88-23.57L206.38,56.87z M207.11,57.3l18.88-10.41l-18.91,18.67
								L207.11,57.3z"/>
							<path class="st0" d="M206.55,15.33l-0.04,10.42l23.72,13.32L206.55,15.33z M207.26,17.08l18.75,18.8l-18.79-10.55
								L207.26,17.08z"/>
							<path class="st0" d="M194.55,41.4l11,13.8V27.52l-0.03,0L194.55,41.4z M204.83,53.13l-9.35-11.73l9.35-11.82V53.13z"/>
							<path class="st0" d="M194.55,43.11l0,11.18l10.08,1.55L194.55,43.11z M195.27,45.19l7.65,9.65l-7.64-1.18L195.27,45.19z"/>
							<path class="st0" d="M194.87,55.27l10.45,11.81l0.14,0.07v-10.2l-0.1-0.12L194.87,55.27z M204.75,65.33l-8.01-9.06l8.01,1.18
								V65.33z"/>
							<path class="st0" d="M194.55,28.53l0,11.18l10.08-12.73L194.55,28.53z M195.27,29.15l7.64-1.18l-7.65,9.65L195.27,29.15z"/>
							<path class="st0" d="M205.47,25.89v-10.2l-0.14,0.07l-10.45,11.81l10.49-1.55L205.47,25.89z M204.75,25.38l-8.01,1.18
								l8.01-9.06V25.38z"/>
							<path class="st0" d="M238.14,35.77l23.75-23.69l-10.42-0.04L238.14,35.77z M260.14,12.8l-18.81,18.76l10.55-18.79
								L260.14,12.8z"/>
							<path class="st0" d="M220.16,12.04l-10.42,0.04l23.75,23.69L220.16,12.04z M219.74,12.77l10.55,18.79L211.48,12.8
								L219.74,12.77z"/>
							<path class="st0" d="M249.7,11l0-0.03L235.82,0.03L222.02,11H249.7z M235.82,0.96l11.82,9.32H224.1L235.82,0.96z"/>
							<path class="st0" d="M234.11,0.03L222.93,0l-1.55,10.08L234.11,0.03z M223.55,0.73l8.48,0.02l-9.66,7.62L223.55,0.73z"/>
							<path class="st0" d="M220.4,10.82l1.55-10.49l-11.81,10.45l-0.07,0.14h10.21L220.4,10.82z M211.89,10.2l9.06-8.01l-1.18,8.01
								H211.89z"/>
							<path class="st0" d="M248.69,0l-11.18,0.03l12.73,10.05L248.69,0z M248.07,0.73l1.18,7.65l-9.66-7.62L248.07,0.73z"/>
							<path class="st0" d="M251.33,10.92h10.2l-0.07-0.14L249.65,0.32l1.55,10.49L251.33,10.92z M259.71,10.2h-7.87l-1.18-8.01
								L259.71,10.2z"/>
							<path class="st0" d="M251.46,70.7l10.42,0.04l-23.65-24.03L251.46,70.7z M251.89,69.98l-10.48-19.01l18.74,19.04
								L251.89,69.98z"/>
							<path class="st0" d="M233.66,46.86l-23.74,23.68l10.42,0.04L233.66,46.86z M211.67,69.82l18.8-18.76l-10.55,18.79
								L211.67,69.82z"/>
							<path class="st0" d="M222.15,71.58l0,0.03l13.87,10.98l13.8-11.01H222.15z M236.03,81.66L224.2,72.3h23.56L236.03,81.66z"/>
							<path class="st0" d="M237.74,82.59l11.18-0.01l1.55-10.08L237.74,82.59z M248.3,81.86l-8.48,0.01l9.65-7.65L248.3,81.86z"/>
							<path class="st0" d="M251.45,71.76l-1.55,10.49l11.81-10.45l0.07-0.14h-10.2L251.45,71.76z M259.96,72.38l-9.06,8.01
								l1.18-8.01H259.96z"/>
							<path class="st0" d="M223.16,82.58l11.18,0.01L221.61,72.5L223.16,82.58z M223.79,81.86l-1.18-7.64l9.65,7.65L223.79,81.86z"
								/>
							<path class="st0" d="M220.52,71.66h-10.21l0.07,0.14l11.81,10.45l-1.55-10.49L220.52,71.66z M212.14,72.38h7.87l1.18,8.01
								L212.14,72.38z"/>
							<path class="st0" d="M236.85,36.34l13.08-24.3l-28.05-0.11l12.89,24.4c-2.01,0.41-3.59,2.02-3.97,4.04l-24.3-13.08
								l-0.11,28.05l24.44-12.91c0.45,2,2.07,3.55,4.11,3.89l-13.07,24.27l28.05,0.11L237,46.24c1.91-0.47,3.4-2.01,3.78-3.96
								l24.26,13.06l0.11-28.05l-24.41,12.89C240.3,38.26,238.78,36.75,236.85,36.34z M235.54,36.23l-12.46-23.58l25.63,0.1
								l-12.64,23.48c-0.09-0.01-0.19-0.01-0.29-0.01C235.7,36.22,235.62,36.23,235.54,36.23z M207.12,54.13l0.1-25.63l23.49,12.64
								c0,0.06-0.01,0.11-0.01,0.17c0,0.12,0.01,0.24,0.02,0.35L207.12,54.13z M236.26,46.38l12.46,23.59l-25.63-0.1l12.63-23.47
								c0.02,0,0.05,0,0.07,0C235.95,46.4,236.1,46.39,236.26,46.38z M236.66,45.59L236.66,45.59c-0.28,0.06-0.57,0.09-0.87,0.09
								c-0.16,0-0.32-0.03-0.48-0.05l0,0c-2.18-0.24-3.89-2.07-3.89-4.32c0-2.41,1.95-4.36,4.36-4.36c2.14,0,3.92,1.55,4.29,3.59
								l0,0c0.03,0.18,0.04,0.36,0.05,0.54c0,0.08,0.02,0.15,0.02,0.23c0,0.2-0.03,0.4-0.06,0.6l0,0
								C239.84,43.75,238.46,45.22,236.66,45.59z M240.86,40.94l23.56-12.45l-0.1,25.63L240.87,41.5c0-0.06,0.01-0.13,0.01-0.19
								c0,0,0,0,0,0l0,0c0,0,0,0,0,0C240.88,41.19,240.87,41.07,240.86,40.94z"/>
							<path class="st0" d="M235.79,37.9c-1.89,0-3.41,1.53-3.41,3.41s1.53,3.41,3.41,3.41c1.89,0,3.41-1.53,3.41-3.41
								S237.68,37.9,235.79,37.9z M235.79,44c-1.48,0-2.69-1.21-2.69-2.69c0-1.48,1.21-2.69,2.69-2.69c1.48,0,2.69,1.21,2.69,2.69
								C238.48,42.79,237.27,44,235.79,44z"/>
						</g>
					</g>
				</g>
			</g>
		</g>
		<g>
			<g>
				<g>
					<path d="M220.64,147.82v11.59h-1.81v-9.97l-3.35,0.79l-0.44-1.18l4.93-1.23H220.64z"/>
					<path d="M232.18,148.14c0.8,0.34,1.43,0.81,1.9,1.4c0.47,0.6,0.7,1.26,0.7,2c0,0.46-0.09,0.88-0.27,1.27
						c-0.18,0.39-0.39,0.73-0.63,1.03c-0.24,0.29-0.65,0.76-1.22,1.39l-3.81,4.18h-2.14l3.91-4.25c-0.37,0.11-0.81,0.16-1.3,0.16
						c-0.88,0-1.71-0.17-2.48-0.5c-0.77-0.33-1.38-0.79-1.84-1.37c-0.46-0.58-0.69-1.22-0.69-1.92c0-0.73,0.24-1.39,0.71-1.98
						c0.47-0.6,1.11-1.06,1.91-1.4c0.8-0.34,1.68-0.51,2.64-0.51C230.51,147.63,231.39,147.8,232.18,148.14z M229.57,154.16
						c0.64,0,1.22-0.12,1.74-0.35c0.53-0.23,0.94-0.55,1.23-0.96c0.29-0.4,0.44-0.85,0.44-1.34s-0.15-0.94-0.44-1.34
						c-0.29-0.4-0.71-0.72-1.23-0.95c-0.53-0.23-1.11-0.34-1.74-0.34c-0.64,0-1.22,0.11-1.76,0.34c-0.53,0.23-0.95,0.54-1.26,0.95
						c-0.3,0.4-0.45,0.85-0.45,1.34s0.15,0.94,0.45,1.34s0.72,0.72,1.26,0.96C228.35,154.04,228.93,154.16,229.57,154.16z"/>
					<path d="M242.26,147.82v11.59h-1.81v-9.97l-3.35,0.79l-0.44-1.18l4.93-1.23H242.26z"/>
					<path d="M256.54,158.18v1.23h-10.67v-0.35l5.46-4.39c0.93-0.74,1.61-1.36,2.05-1.87c0.43-0.51,0.65-1.04,0.65-1.59
						c0-0.64-0.27-1.19-0.8-1.64c-0.53-0.45-1.25-0.68-2.15-0.68c-0.93,0-1.67,0.23-2.23,0.7c-0.56,0.47-0.84,1.03-0.84,1.69
						c0,0.33,0.05,0.65,0.14,0.97h-1.86c-0.11-0.32-0.16-0.66-0.16-1.02c0-0.61,0.2-1.19,0.6-1.75c0.4-0.56,0.98-1,1.73-1.34
						c0.75-0.34,1.62-0.51,2.62-0.51c0.93,0,1.76,0.16,2.5,0.47s1.31,0.73,1.72,1.26c0.41,0.53,0.62,1.13,0.62,1.78
						c0,0.54-0.15,1.05-0.44,1.55c-0.29,0.49-0.66,0.94-1.08,1.35c-0.43,0.41-0.99,0.89-1.69,1.44l-3.39,2.7H256.54z"/>
				</g>
			</g>
		</g>
		<g>
			<g>
				<g>
					<g>
						<path d="M21.26,113.12c0.52-0.76,0.77-1.53,0.77-2.36c0-0.82-0.25-1.59-0.77-2.35c-0.54-0.79-1.27-1.5-2.17-2.1
							c-0.92-0.62-2.02-1.11-3.27-1.46c-1.26-0.36-2.63-0.54-4.05-0.54H0.71v21.69h3.07v-8.12v-0.64h0.64h7.34
							c1.43,0,2.79-0.18,4.05-0.54c1.25-0.35,2.35-0.84,3.27-1.46C19.99,114.62,20.72,113.91,21.26,113.12z M18.33,112.89
							c-0.39,0.65-0.93,1.2-1.61,1.66c-0.65,0.44-1.42,0.8-2.28,1.05c-0.84,0.25-1.75,0.38-2.68,0.38H4.43H3.79v-0.64v-9.12v-0.64
							h0.64h7.34c0.92,0,1.83,0.12,2.68,0.37c0.87,0.26,1.63,0.61,2.29,1.06c0.66,0.45,1.2,1.01,1.6,1.65
							c0.41,0.66,0.62,1.38,0.62,2.12C18.95,111.51,18.74,112.22,18.33,112.89z"/>
					</g>
					<polygon points="44.19,104.31 35.92,117.13 35.39,117.96 34.85,117.14 26.34,104.31 22.98,104.31 33.47,119.9 33.7,120.24 
						33.49,120.59 30.23,125.99 33.28,125.99 47.28,104.31 					"/>
					<g>
						<path d="M73.74,121.61c0.57-0.63,1.06-1.29,1.45-1.99h-3.16c-0.3,0.66-0.71,1.28-1.22,1.85c-0.61,0.69-1.38,1.3-2.29,1.81
							c-0.91,0.49-1.96,0.88-3.13,1.19c-1.17,0.3-2.46,0.45-3.86,0.45c-1.55,0-3.08-0.24-4.56-0.71c-1.47-0.46-2.8-1.14-3.94-2
							c-1.14-0.85-2.08-1.88-2.77-3.07c-0.71-1.21-1.07-2.55-1.07-3.97c0-1.43,0.36-2.77,1.07-3.98c0.69-1.18,1.63-2.22,2.77-3.09
							c1.14-0.85,2.46-1.52,3.94-1.99c1.47-0.47,3.01-0.71,4.56-0.71c1.35,0,2.6,0.14,3.72,0.43c1.15,0.31,2.17,0.71,3.03,1.21
							c0.89,0.51,1.65,1.11,2.26,1.81c0.51,0.58,0.92,1.2,1.22,1.85h3.16c-0.39-0.69-0.88-1.36-1.45-1.99
							c-0.82-0.9-1.84-1.69-3.01-2.36c-1.17-0.7-2.51-1.24-3.99-1.63c-1.49-0.38-3.15-0.57-4.94-0.57c-2.02,0-3.99,0.29-5.87,0.86
							c-1.88,0.57-3.54,1.37-4.94,2.38c-1.4,1-2.53,2.19-3.37,3.54c-0.83,1.33-1.23,2.72-1.23,4.24c0,1.52,0.41,2.95,1.23,4.25
							c0.84,1.34,1.97,2.52,3.37,3.52c1.4,1.01,3.07,1.81,4.94,2.38c1.86,0.57,3.84,0.86,5.87,0.86c1.85,0,3.55-0.2,5.08-0.59
							c1.51-0.39,2.89-0.93,4.1-1.61C71.89,123.3,72.91,122.5,73.74,121.61z"/>
					</g>
					<g>
						<path d="M105.3,121.61c0.57-0.63,1.06-1.29,1.45-1.99h-3.16c-0.3,0.66-0.71,1.28-1.22,1.85c-0.61,0.69-1.38,1.3-2.29,1.81
							c-0.91,0.49-1.96,0.88-3.13,1.19c-1.17,0.3-2.46,0.45-3.86,0.45c-1.55,0-3.08-0.24-4.56-0.71c-1.47-0.46-2.8-1.14-3.94-2
							c-1.14-0.85-2.08-1.88-2.77-3.07c-0.71-1.21-1.07-2.55-1.07-3.97c0-1.43,0.36-2.77,1.07-3.98c0.69-1.18,1.63-2.22,2.77-3.09
							c1.14-0.85,2.46-1.52,3.94-1.99c1.47-0.47,3.01-0.71,4.56-0.71c1.35,0,2.6,0.14,3.72,0.43c1.17,0.31,2.16,0.71,3.03,1.21
							c0.89,0.51,1.65,1.11,2.26,1.81c0.51,0.58,0.92,1.2,1.22,1.85h3.16c-0.39-0.69-0.88-1.36-1.45-1.99
							c-0.82-0.9-1.84-1.69-3.01-2.36c-1.17-0.7-2.51-1.24-3.99-1.63c-1.49-0.38-3.15-0.57-4.94-0.57c-2.02,0-3.99,0.29-5.87,0.86
							c-1.88,0.57-3.54,1.37-4.94,2.38c-1.4,1-2.53,2.19-3.37,3.54c-0.83,1.33-1.23,2.72-1.23,4.24c0,1.52,0.41,2.95,1.23,4.25
							c0.84,1.34,1.97,2.52,3.37,3.52c1.4,1.01,3.07,1.81,4.94,2.38c1.86,0.57,3.84,0.86,5.87,0.86c1.85,0,3.55-0.2,5.08-0.59
							c1.51-0.39,2.89-0.93,4.1-1.61C103.46,123.3,104.48,122.5,105.3,121.61z"/>
					</g>
					<g>
						<polygon points="128.28,125.99 131.4,125.99 118.14,115.47 117.52,114.98 118.13,114.47 130.37,104.31 127.2,104.31 
							114.65,114.96 						"/>
						<polygon points="109.93,125.99 113,125.99 113,114.97 113,104.31 109.93,104.31 						"/>
					</g>
					<polygon points="139.56,121.79 138.45,122.93 138.45,121.35 138.45,104.31 135.38,104.31 135.38,125.99 138.27,125.99 
						155.22,108.5 156.33,107.36 156.33,108.95 156.33,125.99 159.4,125.99 159.4,104.31 156.52,104.31 					"/>
					<polygon points="167.45,124.73 167.45,124.09 167.45,116.06 167.45,115.42 168.1,115.42 183.51,115.42 183.51,114.15 
						168.1,114.15 167.45,114.15 167.45,113.51 167.45,106.21 167.45,105.57 168.1,105.57 184.87,105.57 184.87,104.31 
						164.38,104.31 164.38,125.99 185.43,125.99 185.43,124.73 168.1,124.73 					"/>
					<g>
						<path d="M232.18,121.61c0.57-0.63,1.06-1.29,1.45-1.99h-3.16c-0.3,0.66-0.71,1.28-1.22,1.85c-0.61,0.69-1.38,1.3-2.29,1.81
							c-0.91,0.49-1.96,0.88-3.13,1.19c-1.17,0.3-2.46,0.45-3.86,0.45c-1.55,0-3.08-0.24-4.56-0.71c-1.47-0.46-2.8-1.14-3.94-2
							c-1.14-0.85-2.07-1.88-2.77-3.07c-0.71-1.21-1.07-2.55-1.07-3.97c0-1.43,0.36-2.77,1.07-3.98c0.69-1.18,1.63-2.22,2.77-3.09
							c1.14-0.85,2.46-1.52,3.94-1.99c1.47-0.47,3.01-0.71,4.56-0.71c1.35,0,2.6,0.14,3.72,0.43c1.17,0.31,2.16,0.71,3.03,1.21
							c0.89,0.51,1.65,1.11,2.26,1.81c0.51,0.58,0.92,1.2,1.22,1.85h3.16c-0.39-0.69-0.88-1.36-1.45-1.99
							c-0.82-0.9-1.84-1.69-3.01-2.36c-1.17-0.7-2.51-1.24-3.99-1.63c-1.49-0.38-3.15-0.57-4.94-0.57c-2.02,0-3.99,0.29-5.87,0.86
							c-1.88,0.57-3.54,1.37-4.94,2.38c-1.4,1-2.53,2.19-3.37,3.54c-0.83,1.33-1.23,2.72-1.23,4.24c0,1.52,0.41,2.95,1.23,4.25
							c0.84,1.34,1.97,2.52,3.37,3.52c1.4,1.01,3.07,1.81,4.94,2.38c1.86,0.57,3.84,0.86,5.87,0.86c1.85,0,3.55-0.2,5.08-0.59
							c1.51-0.39,2.89-0.93,4.1-1.61C230.34,123.3,231.36,122.5,232.18,121.61z"/>
					</g>
					<path d="M262.03,125.99l-12.32-21.69h-3.05l-12.35,21.69h3.15l3.08-5.33l0.19-0.32h0.37h14.14h0.37l0.19,0.32l3.08,5.33H262.03
						z M253.88,119.07h-11.43h-1.11l0.55-0.96l5.72-10.02l0.56-0.98l0.56,0.98l5.72,10.02l0.55,0.96H253.88z"/>
					<g>
						<polygon points="281.77,122.44 281.24,123.2 280.71,122.44 268.12,104.31 265.56,104.31 265.56,125.99 268.64,125.99 
							268.64,111.14 268.64,109.07 269.81,110.78 280.23,125.99 282.26,125.99 292.7,110.78 293.88,109.07 293.88,111.14 
							293.88,125.99 296.95,125.99 296.95,104.31 294.39,104.31 						"/>
					</g>
					<g>
						<path d="M326.86,107.37c-1.4-1.01-3.07-1.81-4.94-2.38c-1.86-0.57-3.84-0.86-5.87-0.86c-2.04,0-4.02,0.29-5.9,0.86
							c-1.86,0.57-3.51,1.37-4.92,2.38c-1.4,1-2.53,2.19-3.37,3.54c-0.83,1.33-1.23,2.72-1.23,4.24c0,1.52,0.41,2.95,1.23,4.25
							c0.84,1.34,1.97,2.52,3.37,3.52c1.39,1.01,3.04,1.81,4.92,2.38c1.88,0.57,3.87,0.86,5.9,0.86c2.02,0,3.99-0.29,5.87-0.86
							c1.88-0.57,3.54-1.37,4.94-2.38c1.4-1,2.53-2.18,3.37-3.52c0.82-1.3,1.23-2.73,1.23-4.25c0-1.52-0.4-2.91-1.23-4.24
							C329.38,109.56,328.25,108.37,326.86,107.37z M327.31,119.13c-0.7,1.17-1.63,2.2-2.77,3.07c-1.14,0.87-2.47,1.54-3.94,2.01
							c-1.47,0.47-3.01,0.71-4.55,0.71c-1.55,0-3.08-0.24-4.56-0.71c-1.47-0.46-2.8-1.14-3.94-2c-1.16-0.85-2.1-1.88-2.8-3.07
							c-0.7-1.22-1.05-2.55-1.05-3.97c0-1.43,0.35-2.76,1.04-3.97c0.72-1.19,1.66-2.23,2.8-3.09c1.14-0.85,2.46-1.52,3.94-1.99
							c1.47-0.47,3.01-0.71,4.56-0.71c1.55,0,3.08,0.24,4.56,0.71c1.48,0.46,2.81,1.13,3.94,1.99c1.15,0.87,2.08,1.91,2.77,3.09
							c0.71,1.21,1.07,2.55,1.07,3.98C328.38,116.58,328.02,117.92,327.31,119.13z"/>
					</g>
					<polygon points="358.33,124.73 358.33,124.09 358.33,104.31 355.28,104.31 355.28,124.09 355.28,124.73 354.64,124.73 
						338.85,124.73 338.2,124.73 338.2,124.09 338.2,104.31 335.13,104.31 335.13,125.99 358.71,125.99 362.77,125.99 
						362.77,124.73 358.97,124.73 					"/>
					<g>
						<path d="M388.25,122.17c0.47-0.68,0.71-1.39,0.71-2.11c0-0.91-0.23-1.65-0.69-2.27c-0.49-0.67-1.04-1.21-1.63-1.6
							c-0.73-0.48-1.55-0.87-2.43-1.17l-1.65-0.56l1.62-0.64c0.64-0.25,1.24-0.58,1.77-0.97c0.39-0.31,0.79-0.74,1.16-1.26
							c0.33-0.46,0.49-1.03,0.49-1.73c0-0.76-0.21-1.44-0.64-2.09c-0.45-0.68-1.07-1.28-1.86-1.79c-0.79-0.52-1.77-0.94-2.9-1.23
							c-1.14-0.29-2.41-0.44-3.77-0.44h-12.14v21.69h12.41c1.49,0,2.89-0.18,4.16-0.53c1.26-0.35,2.37-0.81,3.29-1.38
							C387.05,123.53,387.76,122.89,388.25,122.17z M369.37,113.31v-7.1v-0.64h0.64h8.43c0.85,0.01,1.66,0.12,2.42,0.32
							c0.77,0.21,1.45,0.5,2.02,0.87c0.58,0.37,1.05,0.82,1.39,1.33c0.35,0.54,0.53,1.14,0.53,1.77c0,0.59-0.18,1.16-0.54,1.68
							c-0.34,0.48-0.8,0.91-1.39,1.27c-0.56,0.35-1.22,0.63-2.01,0.84c-0.75,0.2-1.57,0.31-2.43,0.31h-8.43h-0.64V113.31z
							 M383.79,123.41c-1.33,0.87-3.04,1.32-5.09,1.32h-8.69h-0.64v-0.64v-8.21v-0.64h0.64h8.69c1,0,1.94,0.12,2.8,0.34
							c0.84,0.23,1.58,0.55,2.22,0.95c0.68,0.41,1.21,0.91,1.58,1.47c0.39,0.59,0.58,1.23,0.58,1.88
							C385.91,121.29,385.2,122.48,383.79,123.41z"/>
					</g>
					<g>
						<polygon points="395.98,124.73 395.98,124.09 395.98,116.06 395.98,115.42 396.62,115.42 412.04,115.42 412.04,114.15 
							396.62,114.15 395.98,114.15 395.98,113.51 395.98,106.21 395.98,105.57 396.62,105.57 413.39,105.57 413.39,104.31 
							392.9,104.31 392.9,125.99 413.95,125.99 413.95,124.73 396.62,124.73 						"/>
					</g>
					<g>
						<polygon points="415.76,105.57 425.46,105.57 426.1,105.57 426.1,106.21 426.1,125.99 429.18,125.99 429.18,106.21 
							429.18,105.57 429.82,105.57 439.52,105.57 439.52,104.31 415.76,104.31 						"/>
					</g>
					<g>
						<path d="M463.67,121.88c0.51-0.75,0.77-1.54,0.77-2.35c0-0.83-0.25-1.6-0.77-2.37c-0.54-0.79-1.27-1.5-2.18-2.1
							c-0.92-0.61-2.02-1.11-3.28-1.47c-1.26-0.36-2.61-0.55-4.03-0.55h-7.07h-0.64v-0.64v-8.1h-3.07v21.69h10.79
							c1.42,0,2.78-0.18,4.03-0.54c1.24-0.35,2.35-0.84,3.28-1.46C462.4,123.38,463.13,122.67,463.67,121.88z M460.74,121.65
							c-0.4,0.64-0.93,1.19-1.6,1.65c-0.65,0.45-1.42,0.81-2.28,1.06c-0.85,0.25-1.76,0.37-2.68,0.37h-7.07h-0.64v-0.64v-9.12v-0.64
							h0.64h7.07c0.93,0,1.83,0.13,2.68,0.38c0.86,0.25,1.63,0.6,2.28,1.05c0.67,0.45,1.21,1.01,1.6,1.66
							c0.41,0.67,0.62,1.38,0.62,2.12C461.36,120.27,461.15,120.99,460.74,121.65z"/>
						<rect x="467.79" y="104.31" width="3.07" height="21.69"/>
					</g>
				</g>
			</g>
		</g>
	</g>
</g>
</svg>
