<svg width="800" height="425" viewBox="0 0 800 425" fill="none" xmlns="http://www.w3.org/2000/svg"><path fill="#C4C4C4" d="M0 0h800v424H0z"/><path d="M456.062 180.126a7.187 7.187 0 110 14.374 7.187 7.187 0 010-14.374zm0 2.875a4.313 4.313 0 10-.001 8.625 4.313 4.313 0 00.001-8.625zm-13.513 12.526l13.513 22.224 13.512-22.224a15.82 15.82 0 00-5.529-21.862 15.82 15.82 0 00-15.967 0 15.817 15.817 0 00-7.827 13.917 15.822 15.822 0 002.298 7.945zm29.48 1.495l-15.967 26.263-15.968-26.263a18.682 18.682 0 016.536-25.835 18.69 18.69 0 0125.722 6.969 18.682 18.682 0 01-.317 18.866h-.006z" fill="#000"/></svg>