<svg id="Layer_1" height="512" viewBox="0 0 512 512" width="512" xmlns="http://www.w3.org/2000/svg" data-name="Layer 1"><path d="m256 10a246 246 0 0 0 -173.948 419.948 246 246 0 1 0 347.9-347.9 244.386 244.386 0 0 0 -173.952-72.048zm165.463 411.463a234 234 0 0 1 -330.926-330.926 234 234 0 0 1 330.926 330.926z"/><path d="m363.45 190.173a15.513 15.513 0 1 0 15.541 15.513 15.545 15.545 0 0 0 -15.541-15.513zm0 19.026a3.513 3.513 0 1 1 3.541-3.513 3.531 3.531 0 0 1 -3.541 3.514z"/><path d="m285.086 142.671h-61.034a6 6 0 1 0 0 12h61.034a6 6 0 0 0 0-12z"/><path d="m126.892 224.673a6 6 0 0 0 -6 6v40.614a6 6 0 0 0 12 0v-40.614a6 6 0 0 0 -6-6z"/><path d="m126.892 201.48a6 6 0 0 0 -6 6v4.807a6 6 0 0 0 12 0v-4.807a6 6 0 0 0 -6-6z"/><path d="m256 45.139a211.091 211.091 0 0 0 -135.021 48.893 6 6 0 0 0 -.413 8.835l287.653 289.592a6 6 0 0 0 4.257 1.771h.224a6 6 0 0 0 4.337-2.1c32.6-38.143 49.824-85.216 49.824-136.128 0-116.271-94.591-210.863-210.861-210.863zm63.929 241.407-85.419-85.995a75.26 75.26 0 0 1 16.811-1.667 70.791 70.791 0 0 1 70.824 70.6 67.493 67.493 0 0 1 -2.216 17.062zm75.392 53.324a22.258 22.258 0 0 1 -6.919 15.611l-58.965-59.363a76.248 76.248 0 0 0 4.708-26.637c0-45.544-37.155-82.6-82.824-82.6-10.4 0-19.077 1.331-26.394 4.019l-34.806-35.04 3.418-11.921a6.081 6.081 0 0 0 .145-.628 21.024 21.024 0 0 1 20.782-17.434h74.7a21.056 21.056 0 0 1 20.952 18.607 5.82 5.82 0 0 0 .142.774l2.428 9.658a33.035 33.035 0 0 0 32.099 24.984h29.443a21.074 21.074 0 0 1 21.091 21.01zm16.748 39.438-15.212-15.314a34.16 34.16 0 0 0 10.464-24.124v-138.964a33.088 33.088 0 0 0 -33.091-33.006h-29.443a21.05 21.05 0 0 1 -20.458-15.9l-2.337-9.295a33.055 33.055 0 0 0 -32.822-28.825h-74.7a33 33 0 0 0 -32.547 27.05l-1.485 5.18-46.669-46.98a199.12 199.12 0 0 1 122.231-41.991c109.652 0 198.861 89.209 198.861 198.861 0 45.8-14.77 88.292-42.792 123.308z"/><path d="m103.251 120.138a6 6 0 0 0 -8.838.385 211.031 211.031 0 0 0 -48.733 120.493 6 6 0 0 0 11.966.845 199.076 199.076 0 0 1 41.827-108.53l34.566 34.569h-5.628a33.087 33.087 0 0 0 -33.09 33.01v138.96a33.087 33.087 0 0 0 33.09 33.01h210.618l39.671 39.673c-34.861 27.7-77.144 42.308-122.7 42.308-100.628 0-184.029-75.132-197.076-172.245a5.989 5.989 0 0 0 -5.936-5.191h-.014a6 6 0 0 0 -5.956 6.776c13.824 102.984 102.273 182.66 208.982 182.66 50.66 0 97.518-17.048 135.506-49.3a6 6 0 0 0 .359-8.816zm189.485 206.451c-12.114 8.522-27.166 13.489-41.415 13.489a70.791 70.791 0 0 1 -70.823-70.6 73.039 73.039 0 0 1 13.402-41.718zm-164.325 34.291a21.074 21.074 0 0 1 -21.09-21.01v-138.964a21.074 21.074 0 0 1 21.09-21.01h17.628l39.289 39.287a85.218 85.218 0 0 0 -16.83 50.3c0 45.544 37.154 82.6 82.823 82.6 17.32 0 35.612-6.26 49.995-16.91l25.712 25.712z"/></svg>