<svg width="56" height="56" viewBox="0 0 56 56" fill="inherit" xmlns="http://www.w3.org/2000/svg"><path d="M56 26.054v3.88c-.04.104-.112.2-.12.304-.08 1.976-.504 3.897-1.064 5.785-.904 3.032-2.304 5.824-4.143 8.4a27.542 27.542 0 01-5.832 5.937 27.375 27.375 0 01-5.51 3.24c-2.505 1.096-5.096 1.84-7.816 2.16-.608.072-1.216.16-1.832.24h-3.391c-.752-.08-1.512-.128-2.256-.256-2.216-.368-4.383-.904-6.471-1.744a28.304 28.304 0 01-7.047-4.12 27.18 27.18 0 01-4.832-4.945 28.148 28.148 0 01-3.975-7.264c-1-2.712-1.584-5.505-1.696-8.377-.064-1.6.088-3.208.224-4.808.2-2.392.864-4.672 1.752-6.889 1.016-2.552 2.4-4.896 4.12-7.056a27.077 27.077 0 014.847-4.768 27.754 27.754 0 015.703-3.36C19.925.972 23.341.195 26.884.027c2.711-.128 5.399.184 8.03.848A27.64 27.64 0 0146.49 6.973a27.254 27.254 0 015.336 6.336c2.111 3.464 3.455 7.185 3.935 11.217.064.496.16 1.008.24 1.528zm-14.062 1.912c0-2.784.016-5.576-.008-8.36-.008-1.473-.568-2.745-1.576-3.833-1.296-1.392-2.928-1.96-4.783-1.968-4.688-.008-9.375-.008-14.055 0-.76 0-1.527.048-2.287.12-2.8.264-5.176 2.88-5.176 5.672 0 5.529.008 11.065-.008 16.594 0 .904.208 1.744.64 2.512 1.168 2.096 2.984 3.184 5.376 3.2 5.207.024 10.422.008 15.63 0 .415 0 .831-.064 1.247-.112 2.688-.304 5.072-2.88 5-5.792-.048-2.657 0-5.345 0-8.033z"/><path d="M16.485 27.934c0-2.744.032-5.488-.008-8.233-.032-1.808 1.544-3.432 3.352-3.448 5.447-.04 10.902-.04 16.358 0 1.807.016 3.351 1.608 3.343 3.392a1912.03 1912.03 0 00.008 16.594c.008 1.608-1.464 3.24-3.2 3.248-5.55.04-11.102.04-16.653 0-1.728-.008-3.216-1.64-3.192-3.257.016-2.768-.008-5.528-.008-8.296zm4.24-.008c-.009 3.912 3.255 7.072 6.847 7.24 4.615.224 7.599-3.536 7.695-6.936.128-4.56-3.4-7.625-7.303-7.593-4 .024-7.223 3.137-7.24 7.289zm16.741-7.64c.016-.92-.727-1.729-1.607-1.753-.824-.024-1.792.912-1.776 1.704.024.937.752 1.673 1.672 1.689 1.023.024 1.695-.624 1.711-1.64z"/><path d="M23.148 27.95c-.192-2.64 2.24-4.928 4.823-4.936 2.68-.008 4.952 2.344 4.904 4.896-.056 2.856-2.272 4.912-4.887 4.904-2.624 0-4.896-2.048-4.84-4.864z"/></svg>