<svg width="580" height="83" viewBox="0 0 580 83" fill="none" xmlns="http://www.w3.org/2000/svg"><path d="M71.052 25.877l.04-10.475-23.935 23.64 23.895-13.165zm-.723-.431L51.398 35.87l18.961-18.713-.03 8.288zm.562 42.172l.04-10.475-23.774-13.325 23.734 23.8zm-.723-1.756L51.378 47.02l18.83 10.555-.04 8.288zm1.779-38.46v27.814l.1-.01 6.471-8.428L83 41.359 71.967 27.412l-.02-.01zm.733 2.067l9.396 11.87-4.12 4.987L72.69 53.1V29.47h-.01zM83 54.303V43.065L72.87 55.86 83 54.303zm-.724-.622L74.6 54.865l7.677-9.703v8.52zm-10.249 3.291v10.255l.141-.07 10.53-11.87-10.56 1.555-.11.13zm.734.522L80.83 56.3l-8.07 9.1v-7.906zm.11-30.634L83 39.655V28.416l-10.13-1.555zm9.405 10.707L74.6 27.864l7.677 1.184v8.519zm.423-10.114l-10.531-11.87-.14-.07v10.254l.1.12 10.57 1.566zM72.76 17.337l8.069 9.101-8.07-1.194v-7.907zM11.907 57.143l-.04 10.475 24.036-23.68-23.996 13.205zm.734.431L31.642 47.11 12.611 65.873l.03-8.299zm-.563-42.172l-.04 10.475 23.865 13.385-23.825-23.86zm.714 1.756l18.87 18.893-18.9-10.595.03-8.298zM0 41.6l11.073 13.867V27.653h-.03L0 41.6zm10.34 11.79L.934 41.6l9.416-11.88v23.67h-.01zM0 43.316v11.238l10.149 1.555L0 43.316zm.734 2.097l7.697 9.703-7.697-1.184v-8.519zM.332 55.538l10.52 11.87.14.07V57.223l-.1-.12-10.56-1.565zm9.927 10.114L2.19 56.55l8.07 1.194v7.907zM0 28.677v11.238l10.149-12.793L0 28.677zm.734.622l7.697-1.184-7.697 9.703v-8.52zm10.259-3.281V15.763l-.14.07L.331 27.703l10.56-1.555.1-.13zm-.734-.512L2.201 26.69l8.068-9.1v7.916h-.01zm33.602 10.435l23.895-23.8-10.48-.04-13.415 23.84zm22.147-23.077L47.077 31.717l10.62-18.883 8.31.03zm-40.234-.763l-10.49.04 23.905 23.8-13.415-23.84zm-.422.732l10.621 18.884-18.93-18.853 8.31-.03zm30.146-1.776v-.03L41.53.03 27.653 11.057h27.845zM41.54.963l11.898 9.372H29.733L41.54.963zM39.812.03L28.568 0 27.01 10.134 39.812.03zM29.19.732l8.53.02-9.716 7.656L29.191.732zm-3.175 10.135L27.573.32 15.686 10.837l-.07.14h10.269l.13-.11zm-8.56-.622l9.113-8.057-1.196 8.057h-7.918zM54.483 0L43.228.03 56.04 10.134 54.483 0zm-.623.732l1.185 7.686L45.32.753l8.54-.02zm3.275 10.245h10.27l-.07-.14L55.456.32l1.558 10.546.12.11zm8.44-.732h-7.917l-1.196-8.057 9.114 8.057zM57.276 71.05l10.49.04-23.804-24.142L57.276 71.05zm.422-.723l-10.54-19.104 18.86 19.134-8.32-.03zM39.36 47.089l-23.885 23.8 10.49.04L39.36 47.09zM17.223 70.167l18.921-18.844-10.61 18.874-8.311-.03zm10.551 1.766v.03L41.74 83l13.887-11.067H27.774zM41.74 82.067l-11.897-9.412h23.704L41.74 82.067zm1.72.923l11.254-.01 1.557-10.124L43.46 82.99zm10.63-.732l-8.53.01 9.716-7.686-1.185 7.676zm3.176-10.144l-1.557 10.545 11.887-10.505.07-.14h-10.28l-.12.1zm8.561.622l-9.114 8.057 1.196-8.057h7.918zM28.799 82.98l11.254.01-12.812-10.134L28.8 82.98zm.623-.722l-1.186-7.686 9.717 7.686h-8.531zm-3.276-10.245h-10.28l.071.14L27.824 82.66l-1.557-10.546-.12-.1zm-8.44.723h7.918l1.195 8.057-9.113-8.057z" fill="#CDAA77"/><path d="M42.566 36.513l13.163-24.422-28.226-.11 12.972 24.522a5.142 5.142 0 00-3.999 4.064L12.018 27.423l-.11 28.185 24.598-12.974a5.133 5.133 0 004.14 3.913L27.503 70.93l28.226.11-13.003-24.582c1.92-.472 3.427-2.027 3.799-3.984l24.417 13.135.11-28.185-24.568 12.953a5.124 5.124 0 00-3.919-3.863zm-1.317-.1l-12.53-23.69 25.794.1-12.721 23.59c-.09-.01-.191-.01-.292-.01-.08 0-.17 0-.25.01zm-28.598 17.98l.1-25.756L36.387 41.34c0 .06-.01.11-.01.17 0 .12.01.24.02.351L12.65 54.394zm29.322-7.786l12.54 23.71-25.794-.1 12.711-23.59h.07c.161 0 .322-.01.473-.02zm.401-.792c-.28.06-.572.09-.874.09-.16 0-.321-.03-.482-.05-2.2-.241-3.909-2.077-3.909-4.335a4.393 4.393 0 014.391-4.385 4.38 4.38 0 014.311 3.602c.03.181.04.362.05.542 0 .08.02.15.02.231 0 .2-.03.401-.06.602a4.354 4.354 0 01-3.447 3.703zm4.23-4.676L70.31 28.637l-.1 25.757L46.615 41.71c0-.06.01-.13.01-.19 0-.131 0-.252-.02-.382z" fill="#CDAA77"/><path d="M41.51 38.079a3.433 3.433 0 100 6.863c1.9 0 3.437-1.535 3.437-3.432a3.439 3.439 0 00-3.437-3.431zm0 6.14a2.702 2.702 0 01-2.703-2.699 2.702 2.702 0 012.703-2.699 2.702 2.702 0 012.703 2.7 2.708 2.708 0 01-2.703 2.698z" fill="#CDAA77"/><path d="M126.875 41.03c.85-.45 1.651-1.08 2.371-1.86.67-.73 1-1.66 1-2.85 0-.78-.23-1.54-.69-2.26a6.712 6.712 0 00-1.971-1.97c-.85-.58-1.87-1.05-3.03-1.39a13.425 13.425 0 00-3.742-.52H109v21.77h2.991v-9.5h7.252l.19.22 7.772 9.27h3.121l-7.282-8.66-.67-.8 1.02-.22c1.281-.26 2.451-.67 3.481-1.23zm-6.062.1h-8.822v-9.65h8.822c.831 0 1.641.12 2.411.36.76.24 1.451.57 2.031.97.61.43 1.1.94 1.45 1.53a3.77 3.77 0 01-.01 3.94c-.35.58-.84 1.09-1.44 1.52-.59.41-1.271.74-2.041.98-.75.23-1.56.35-2.401.35zm36.811 6.37c.54-.92.801-1.89.801-2.98V30.18h-2.961v14.35c0 1.97-.831 3.54-2.451 4.67-1.551 1.08-3.621 1.63-6.132 1.63-2.511 0-4.571-.55-6.122-1.64-1.62-1.14-2.44-2.71-2.44-4.66V30.18h-2.991v14.35c0 1.1.27 2.07.82 2.98.55.91 1.34 1.72 2.341 2.4 1.02.69 2.24 1.24 3.651 1.63 1.42.39 3.021.59 4.741.59 1.731 0 3.331-.2 4.761-.59 1.421-.39 2.651-.94 3.672-1.63.99-.68 1.77-1.49 2.31-2.41zm76.043-17.32h-3.121l-12.224 10.7 13.274 11.07h3.071l-12.944-10.58-.58-.47.57-.49 11.954-10.23zm-16.935 21.77V30.18h-2.981v21.77h2.981zm24.057-21.77h-2.38v21.77h2.38V30.18zm14.774 21.77h2.991v-8.54l.13-.17 9.843-13.06h-2.961l-8.002 10.7-.5.67-.5-.67-8.013-10.7h-2.961l9.853 13.06.12.17v8.54zm17.095 0h20.467v-1.3h-17.476v-9.3h15.615v-1.3h-15.615v-8.57h16.935v-1.3h-19.926v21.77zm58.878-8.22c-.82-.76-1.85-1.38-3.081-1.85-1.26-.48-2.661-.88-4.161-1.17a67.872 67.872 0 01-4.311-.99c-1.351-.36-2.511-.83-3.441-1.38-1.061-.63-1.621-1.58-1.621-2.75 0-.6.2-1.18.6-1.72.38-.52.891-.97 1.541-1.34.62-.37 1.38-.67 2.25-.89.881-.22 1.841-.33 2.861-.33h10.494V30h-10.504c-1.52 0-2.931.17-4.211.51-1.27.34-2.371.78-3.271 1.33-.89.54-1.58 1.15-2.071 1.82-.46.64-.68 1.27-.68 1.93 0 1.2.37 2.12 1.131 2.81.83.76 1.86 1.38 3.08 1.85 1.251.48 2.651.88 4.152 1.17 1.64.33 3.051.65 4.311 1 1.36.36 2.511.83 3.441 1.38 1.06.63 1.621 1.58 1.621 2.75 0 1.25-.691 2.31-2.051 3.13-1.26.77-3.101 1.15-5.462 1.15H311.92v1.3h10.233c1.671 0 3.191-.16 4.502-.49 1.3-.32 2.42-.76 3.331-1.3.87-.52 1.54-1.12 2-1.79.44-.64.65-1.3.65-2.01.021-1.19-.35-2.11-1.1-2.81zm-148.674 0c-.82-.76-1.85-1.38-3.081-1.85-1.26-.48-2.66-.88-4.161-1.17-1.62-.32-3.031-.65-4.311-.99-1.351-.36-2.511-.83-3.441-1.38-1.061-.63-1.621-1.58-1.621-2.75 0-.6.2-1.18.6-1.72.381-.52.891-.97 1.541-1.34.62-.37 1.38-.67 2.251-.89.88-.22 1.84-.33 2.86-.33h10.494V30h-10.504c-1.52 0-2.93.17-4.211.51-1.27.34-2.371.78-3.271 1.33-.89.54-1.58 1.15-2.07 1.82-.461.64-.681 1.27-.681 1.93 0 1.2.37 2.12 1.131 2.81.83.76 1.86 1.38 3.081 1.85 1.25.48 2.65.88 4.151 1.17 1.64.33 3.051.65 4.311 1 1.361.36 2.511.83 3.441 1.38 1.061.63 1.621 1.58 1.621 2.75 0 1.25-.69 2.31-2.051 3.13-1.26.77-3.101 1.15-5.462 1.15h-10.223v1.3h10.233c1.671 0 3.191-.16 4.502-.49 1.3-.32 2.421-.76 3.331-1.3.87-.52 1.54-1.12 2-1.79.441-.64.651-1.3.651-2.01.01-1.19-.36-2.11-1.111-2.81zm24.937 0c-.82-.76-1.85-1.38-3.081-1.85-1.26-.48-2.66-.88-4.161-1.17-1.62-.32-3.031-.65-4.311-.99-1.351-.36-2.511-.83-3.441-1.38-1.061-.63-1.621-1.58-1.621-2.75 0-.6.2-1.18.6-1.72.381-.52.891-.97 1.541-1.34.62-.37 1.38-.67 2.251-.89.88-.22 1.84-.33 2.86-.33h10.494V30h-10.504c-1.52 0-2.93.17-4.211.51-1.27.34-2.371.78-3.271 1.33-.89.54-1.58 1.15-2.07 1.82-.461.64-.681 1.27-.681 1.93 0 1.2.37 2.12 1.131 2.81.83.76 1.86 1.38 3.081 1.85 1.25.48 2.65.88 4.151 1.17 1.64.33 3.051.65 4.311 1 1.361.36 2.511.83 3.441 1.38 1.061.63 1.621 1.58 1.621 2.75 0 1.25-.69 2.31-2.051 3.13-1.26.77-3.101 1.15-5.462 1.15h-10.223v1.3h10.233c1.671 0 3.191-.16 4.502-.49 1.3-.32 2.421-.76 3.331-1.3.87-.52 1.54-1.12 2-1.79.441-.64.651-1.3.651-2.01.01-1.19-.35-2.11-1.111-2.81zm269.451 4.83c.44-.64.65-1.3.65-2.01 0-1.2-.37-2.12-1.121-2.81-.82-.76-1.85-1.38-3.081-1.85-1.26-.48-2.66-.88-4.161-1.17-1.62-.32-3.031-.65-4.311-.99-1.35-.36-2.511-.83-3.441-1.38-1.06-.63-1.621-1.58-1.621-2.75 0-.6.201-1.18.601-1.72.38-.52.89-.97 1.54-1.34.62-.37 1.381-.67 2.251-.89.88-.22 1.84-.33 2.861-.33h10.493V30h-10.503c-1.521 0-2.931.17-4.212.51-1.27.34-2.37.78-3.271 1.33-.89.54-1.58 1.15-2.07 1.82-.46.64-.68 1.27-.68 1.93 0 1.2.37 2.12 1.13 2.81.83.76 1.86 1.38 3.081 1.85 1.25.48 2.651.88 4.151 1.17 1.641.33 3.051.65 4.311 1 1.361.36 2.511.83 3.441 1.38 1.061.63 1.621 1.58 1.621 2.75 0 1.25-.69 2.31-2.051 3.13-1.26.77-3.101 1.15-5.461 1.15h-10.233v1.3h10.233c1.67 0 3.191-.16 4.501-.49 1.3-.32 2.421-.76 3.331-1.3.89-.52 1.56-1.12 2.021-1.78zm-114.085 3.39l-12.003-21.77h-2.961l-12.034 21.77h3.071l3.001-5.34.18-.32h14.495l.18.32 3.001 5.34h3.07zm-7.932-6.98H343.06l.51-.93L349.121 34l.55-.99.551.99 5.561 10.05.51.93h-1.06v-.01zm38.891 6.98h2.991V30.18h-2.48l-12.274 18.18-.52.77-.52-.77-12.254-18.18h-2.481v21.77h2.991V34.98l1.151 1.72 10.133 15.25h1.96l10.153-15.25 1.15-1.72v16.97zm35.341-6.61a7.997 7.997 0 001.201-4.28c0-1.51-.4-2.94-1.201-4.27a12.49 12.49 0 00-3.271-3.55c-1.36-1.01-2.981-1.82-4.791-2.39a19.424 19.424 0 00-5.722-.85c-1.98 0-3.911.29-5.721.87-1.821.57-3.432 1.37-4.792 2.39-1.35 1-2.461 2.19-3.281 3.55-.8 1.32-1.2 2.76-1.2 4.26 0 1.55.39 2.95 1.2 4.28.81 1.34 1.911 2.53 3.281 3.54 1.36 1.01 2.981 1.81 4.792 2.39a19.1 19.1 0 005.721.86c1.981 0 3.901-.29 5.722-.86 1.82-.58 3.431-1.38 4.791-2.39 1.361-1.02 2.461-2.21 3.271-3.55zm-2.821-.32c-.68 1.19-1.58 2.23-2.69 3.09-1.091.85-2.381 1.53-3.831 2a14.27 14.27 0 01-4.432.71c-1.5 0-3.001-.24-4.431-.71-1.451-.48-2.741-1.15-3.841-2a10.272 10.272 0 01-2.701-3.08 8.011 8.011 0 01-1.02-3.97c0-1.42.34-2.76 1.02-3.96.67-1.19 1.57-2.23 2.701-3.09 1.11-.86 2.41-1.53 3.841-2 1.44-.47 2.931-.71 4.431-.71 1.501 0 3.001.24 4.432.71 1.44.47 2.73 1.15 3.831 2 1.11.86 2.02 1.9 2.69 3.09a7.879 7.879 0 011.041 3.96c0 1.41-.35 2.75-1.041 3.96zm14.415 6.93h2.98V31.48h10.063v-1.3h-23.106v1.3h10.063v20.47zm51.175-2.23l-.55-1.07-9.603-18.47h-3.101l11.543 21.77h3.462l11.513-21.77h-3.081l-9.623 18.47-.56 1.07zm17.185 2.23h20.466v-1.3H512.41v-9.3h15.614v-1.3H512.41v-8.57h16.935v-1.3h-19.926v21.77zm31.429 0h2.991V31.48h10.063v-1.3h-23.107v1.3h10.053v20.47zm26.198 0h2.991v-8.54l.12-.17L580 30.18h-2.951l-8.012 10.7-.5.67-.501-.67-8.002-10.7h-2.961l9.843 13.06.13.17v8.54z" fill="#000"/></svg>