<svg width="36" height="36" viewBox="0 0 36 36" fill="none" xmlns="http://www.w3.org/2000/svg"><mask id="path-1-inside-1_615_12462" fill="#fff"><path d="M29 3v30H7V3h22zm1-1H6v32h24V2z"/></mask><path d="M29 3v30H7V3h22zm1-1H6v32h24V2z" fill="#A39D94"/><path d="M29 3h1V2h-1v1zm0 30v1h1v-1h-1zM7 33H6v1h1v-1zM7 3V2H6v1h1zm23-1h1V1h-1v1zM6 2V1H5v1h1zm0 32H5v1h1v-1zm24 0v1h1v-1h-1zM28 3v30h2V3h-2zm1 29H7v2h22v-2zM8 33V3H6v30h2zM7 4h22V2H7v2zm23-3H6v2h24V1zM5 2v32h2V2H5zm1 33h24v-2H6v2zm25-1V2h-2v32h2z" fill="#A39D94" mask="url(#path-1-inside-1_615_12462)"/><mask id="path-3-inside-2_615_12462" fill="#fff"><path d="M27 5v26H9V5h18zm1-1H8v28h20V4z"/></mask><path d="M27 5v26H9V5h18zm1-1H8v28h20V4z" fill="#A39D94"/><path d="M27 5h1V4h-1v1zm0 26v1h1v-1h-1zM9 31H8v1h1v-1zM9 5V4H8v1h1zm19-1h1V3h-1v1zM8 4V3H7v1h1zm0 28H7v1h1v-1zm20 0v1h1v-1h-1zM26 5v26h2V5h-2zm1 25H9v2h18v-2zm-17 1V5H8v26h2zM9 6h18V4H9v2zm19-3H8v2h20V3zM7 4v28h2V4H7zm1 29h20v-2H8v2zm21-1V4h-2v28h2z" fill="#A39D94" mask="url(#path-3-inside-2_615_12462)"/><mask id="path-5-inside-3_615_12462" fill="#fff"><path d="M25 7v22H11V7h14zm1-1H10v24h16V6z"/></mask><path d="M25 7v22H11V7h14zm1-1H10v24h16V6z" fill="#A39D94"/><path d="M25 7h1V6h-1v1zm0 22v1h1v-1h-1zm-14 0h-1v1h1v-1zm0-22V6h-1v1h1zm15-1h1V5h-1v1zM10 6V5H9v1h1zm0 24H9v1h1v-1zm16 0v1h1v-1h-1zM24 7v22h2V7h-2zm1 21H11v2h14v-2zm-13 1V7h-2v22h2zM11 8h14V6H11v2zm15-3H10v2h16V5zM9 6v24h2V6H9zm1 25h16v-2H10v2zm17-1V6h-2v24h2z" fill="#A39D94" mask="url(#path-5-inside-3_615_12462)"/><mask id="path-7-inside-4_615_12462" fill="#fff"><path d="M23 9v18H13V9h10zm1-1H12v20h12V8z"/></mask><path d="M23 9v18H13V9h10zm1-1H12v20h12V8z" fill="#A39D94"/><path d="M23 9h1V8h-1v1zm0 18v1h1v-1h-1zm-10 0h-1v1h1v-1zm0-18V8h-1v1h1zm11-1h1V7h-1v1zM12 8V7h-1v1h1zm0 20h-1v1h1v-1zm12 0v1h1v-1h-1zM22 9v18h2V9h-2zm1 17H13v2h10v-2zm-9 1V9h-2v18h2zm-1-17h10V8H13v2zm11-3H12v2h12V7zM11 8v20h2V8h-2zm1 21h12v-2H12v2zm13-1V8h-2v20h2z" fill="#A39D94" mask="url(#path-7-inside-4_615_12462)"/><path d="M23.5 27.5l5.917 5.917M12.48 27.5l-5.916 5.917M23.5 8.482l5.917-5.916M12.48 8.482L6.564 2.566" stroke="#A39D94" stroke-miterlimit="10"/></svg>