<svg width="36" height="36" viewBox="0 0 36 36" fill="none" xmlns="http://www.w3.org/2000/svg"><path d="M18 34c5.523 0 10-7.163 10-16S23.523 2 18 2 8 9.163 8 18s4.477 16 10 16z" stroke="#A39D94" stroke-miterlimit="10"/><path d="M18 2l3 5 4 16v6l-4-1-3-2 4-2 3-1 3-5" stroke="#A39D94" stroke-miterlimit="10"/><path d="M22 3l-1 4h4v6l-3 11-1 4-3 6m9-22l-2 1 3 4m-7 11l1 5m3-10l2 1" stroke="#A39D94" stroke-miterlimit="10"/><path d="M25 13l-7-4 3-2m-3-5l-3 5-4 16v6l4-1 3-2-4-2-3-1-3-5" stroke="#A39D94" stroke-miterlimit="10"/><path d="M14 3l1 4h-4v6l3 11 1 4 3 6M9 12l2 1-3 4m7 11l-1 5m-3-10l-2 1" stroke="#A39D94" stroke-miterlimit="10"/><path d="M11 13l7-4-3-2" stroke="#A39D94" stroke-miterlimit="10"/></svg>