<svg width="36" height="36" viewBox="0 0 36 36" fill="none" xmlns="http://www.w3.org/2000/svg"><path d="M18 6a7.943 7.943 0 00-7-4c-2 0-9 1-9 9 0 11 7 18 16 23 9-5 16-12 16-23 0-4.82-2.542-7.1-5-8.15A10.8 10.8 0 0025 2a7.943 7.943 0 00-7 4v0z" stroke="#A39D94" stroke-miterlimit="10"/><path d="M18 8l6-3 5-2M18 6v2m11-5v5l-4 13-5 7-2 6M29 8l5 4m-4 5l4-5M24 2v3l-4.5-1" stroke="#A39D94" stroke-miterlimit="10"/><path d="M24 5l1 3 5 9-1 8m-9 3l4 2m5-5l-9 3" stroke="#A39D94" stroke-miterlimit="10"/><path d="M33 18l-3-1-5 4-7 4 2 3M18 8l-6-3-5-2m11 3v2M7 3v5l4 13 5 7 2 6" stroke="#A39D94" stroke-miterlimit="10"/><path d="M4 5l3 3h22l3-3M7 8l-5 4m4 5l-4-5M12 2v3l4.5-1" stroke="#A39D94" stroke-miterlimit="10"/><path d="M12 5l-1 3-5 9 1 8m9 3l-4 2m-5-5l9 3" stroke="#A39D94" stroke-miterlimit="10"/><path d="M3 18l3-1 5 4 7 4-2 3" stroke="#A39D94" stroke-miterlimit="10"/></svg>