<svg width="36" height="36" viewBox="0 0 36 36" fill="none" xmlns="http://www.w3.org/2000/svg"><path d="M9.604 2.5h16.792A7.104 7.104 0 0133.5 9.604v16.792a7.104 7.104 0 01-7.104 7.104H9.604A7.104 7.104 0 012.5 26.396V9.604A7.104 7.104 0 019.604 2.5zM25 12l-1-6" stroke="#A39D94" stroke-miterlimit="10"/><path d="M31 4v9l-6-1m-7-9.5L24 6l7-2" stroke="#A39D94" stroke-miterlimit="10"/><path d="M26 2.5L24 6l-6 3 7 3 2 6 4-5m2.5-2.5L31 13l2 5-2 5m0 9l-8-2m0 0l-5-3 7-3-2 6zm10.5-4.5L31 23m0 0l-4-5-2 6 6-1zm0 0v8.5m-12.5 2L23 30l1.5 3.5M11 12l1-6M5 4.5V13l6-1m7-9.5L12 6 5 4" stroke="#A39D94" stroke-miterlimit="10"/><path d="M10 2.5L12 6l6 3-7 3-2 6-4-5m-2.5-2.5L5 13l-2 5 2 5m-.5 8.5L13 30m0 0l5-3-7-3 2 6zM2.5 25.5L5 23m0 0l4-5 2 6-6-1zm0 0v8.5m12.5 2L13 30l-1.5 3.5" stroke="#A39D94" stroke-miterlimit="10"/></svg>