<svg width="36" height="36" viewBox="0 0 36 36" fill="none" xmlns="http://www.w3.org/2000/svg"><mask id="path-1-inside-1_615_12473" fill="#fff"><path d="M25.586 3L29 6.414v23.172L25.586 33H10.414L7 29.586V6.414L10.414 3h15.172zM26 2H10L6 6v24l4 4h16l4-4V6l-4-4z"/></mask><path d="M25.586 3L29 6.414v23.172L25.586 33H10.414L7 29.586V6.414L10.414 3h15.172zM26 2H10L6 6v24l4 4h16l4-4V6l-4-4z" fill="#A39D94"/><path d="M25.586 3l.707-.707L26 2h-.414v1zM29 6.414h1V6l-.293-.293-.707.707zm0 23.172l.707.707L30 30v-.414h-1zM25.586 33v1H26l.293-.293-.707-.707zm-15.172 0l-.707.707L10 34h.414v-1zM7 29.586H6V30l.293.293.707-.707zM7 6.414l-.707-.707L6 6v.414h1zM10.414 3V2H10l-.293.293.707.707zM26 2l.707-.707L26.414 1H26v1zM10 2V1h-.414l-.293.293L10 2zM6 6l-.707-.707L5 5.586V6h1zm0 24H5v.414l.293.293L6 30zm4 4l-.707.707.293.293H10v-1zm16 0v1h.414l.293-.293L26 34zm4-4l.707.707.293-.293V30h-1zm0-24h1v-.414l-.293-.293L30 6zm-5.121-2.293l3.414 3.414 1.414-1.414-3.414-3.414-1.414 1.414zM28 6.414v23.172h2V6.414h-2zm.293 22.465l-3.414 3.414 1.414 1.414 3.414-3.414-1.414-1.414zM25.586 32H10.414v2h15.172v-2zm-14.465.293l-3.414-3.414-1.414 1.414 3.414 3.414 1.414-1.414zM8 29.586V6.414H6v23.172h2zM7.707 7.121l3.414-3.414-1.414-1.414-3.414 3.414L7.707 7.12zM10.414 4h15.172V2H10.414v2zM26 1H10v2h16V1zm-16.707.293l-4 4 1.414 1.414 4-4-1.414-1.414zM5 6v24h2V6H5zm.293 24.707l4 4 1.414-1.414-4-4-1.414 1.414zM10 35h16v-2H10v2zm16.707-.293l4-4-1.414-1.414-4 4 1.414 1.414zM31 30V6h-2v24h2zm-.293-24.707l-4-4-1.414 1.414 4 4 1.414-1.414z" fill="#A39D94" mask="url(#path-1-inside-1_615_12473)"/><mask id="path-3-inside-2_615_12473" fill="#fff"><path d="M24.17 5L27 7.83v20.34L24.17 31H11.83L9 28.17V7.83L11.83 5h12.34zm.414-1H11.416L8 7.416v21.168L11.416 32h13.168L28 28.584V7.416L24.584 4z"/></mask><path d="M24.17 5L27 7.83v20.34L24.17 31H11.83L9 28.17V7.83L11.83 5h12.34zm.414-1H11.416L8 7.416v21.168L11.416 32h13.168L28 28.584V7.416L24.584 4z" fill="#A39D94"/><path d="M24.17 5l.707-.707L24.584 4h-.414v1zM27 7.83h1v-.414l-.293-.293L27 7.83zm0 20.34l.707.707.293-.293v-.414h-1zM24.17 31v1h.414l.293-.293L24.17 31zm-12.34 0l-.707.707.293.293h.414v-1zM9 28.17H8v.414l.293.293L9 28.17zM9 7.83l-.707-.707L8 7.416v.414h1zM11.83 5V4h-.414l-.293.293.707.707zm-.414-1V3h-.414l-.293.293.707.707zM8 7.416l-.707-.707L7 7.002v.414h1zm0 21.168H7v.414l.293.293.707-.707zM11.416 32l-.707.707.293.293h.414v-1zm13.168 0v1h.414l.293-.293-.707-.707zM28 28.584l.707.707.293-.293v-.414h-1zm0-21.168h1v-.414l-.293-.293-.707.707zm-4.537-1.709l2.83 2.83 1.414-1.414-2.83-2.83-1.414 1.414zM26 7.83v20.34h2V7.83h-2zm.293 19.633l-2.83 2.83 1.414 1.414 2.83-2.83-1.414-1.414zM24.17 30H11.83v2h12.34v-2zm-11.633.293l-2.83-2.83-1.414 1.414 2.83 2.83 1.414-1.414zM10 28.17V7.83H8v20.34h2zM9.707 8.537l2.83-2.83-1.414-1.414-2.83 2.83 1.414 1.414zM11.83 6h12.34V4H11.83v2zm12.754-3H11.416v2h13.168V3zm-13.875.293L7.293 6.709l1.414 1.414 3.416-3.416-1.414-1.414zM7 7.416v21.168h2V7.416H7zm.293 21.875l3.416 3.416 1.414-1.414-3.416-3.416-1.414 1.414zM11.416 33h13.168v-2H11.416v2zm13.875-.293l3.416-3.416-1.414-1.414-3.416 3.416 1.414 1.414zM29 28.584V7.416h-2v21.168h2zm-.293-21.875l-3.416-3.416-1.414 1.414 3.416 3.416 1.414-1.414z" fill="#A39D94" mask="url(#path-3-inside-2_615_12473)"/><path d="M25.5 9.036l-.146-.147-2.243-2.243-.354.354v-.5h.208L25.5 9.035v0zm-.146 18.075l.146-.147v0L22.965 29.5h0l.146-.146 2.243-2.243zm-12.465 2.243l.147.146h0L10.5 26.965v0l.146.146 2.243 2.243zM10.646 8.889l-.146.147v0L13.035 6.5h0l-.146.146-2.243 2.243z" fill="#A39D94" stroke="#A39D94"/><mask id="path-6-inside-3_615_12473" fill="#fff"><path d="M21.35 9L23 10.65v14.7L21.35 27h-6.7L13 25.35v-14.7L14.65 9h6.7zm.414-1h-7.528L12 10.236v15.528L14.236 28h7.528L24 25.764V10.236L21.764 8z"/></mask><path d="M21.35 9L23 10.65v14.7L21.35 27h-6.7L13 25.35v-14.7L14.65 9h6.7zm.414-1h-7.528L12 10.236v15.528L14.236 28h7.528L24 25.764V10.236L21.764 8z" fill="#A39D94"/><path d="M21.35 9l.707-.707L21.764 8h-.414v1zM23 10.65h1v-.414l-.293-.293-.707.707zm0 14.7l.707.707.293-.293v-.414h-1zM21.35 27v1h.414l.293-.293L21.35 27zm-6.7 0l-.707.707.293.293h.414v-1zM13 25.35h-1v.414l.293.293.707-.707zm0-14.7l-.707-.707-.293.293v.414h1zM14.65 9V8h-.414l-.293.293.707.707zm-.414-1V7h-.414l-.293.293.707.707zM12 10.236l-.707-.707-.293.293v.414h1zm0 15.528h-1v.414l.293.293.707-.707zM14.236 28l-.707.707.293.293h.414v-1zm7.528 0v1h.414l.293-.293-.707-.707zM24 25.764l.707.707.293-.293v-.414h-1zm0-15.528h1v-.414l-.293-.293-.707.707zm-3.357-.529l1.65 1.65 1.414-1.414-1.65-1.65-1.414 1.414zM22 10.65v14.7h2v-14.7h-2zm.293 13.993l-1.65 1.65 1.414 1.414 1.65-1.65-1.414-1.414zM21.35 26h-6.7v2h6.7v-2zm-5.993.293l-1.65-1.65-1.414 1.414 1.65 1.65 1.414-1.414zM14 25.35v-14.7h-2v14.7h2zm-.293-13.993l1.65-1.65-1.414-1.414-1.65 1.65 1.414 1.414zM14.65 10h6.7V8h-6.7v2zm7.114-3h-7.528v2h7.528V7zm-8.235.293l-2.236 2.236 1.414 1.414 2.236-2.236-1.414-1.414zM11 10.236v15.528h2V10.236h-2zm.293 16.235l2.236 2.236 1.414-1.414-2.236-2.236-1.414 1.414zM14.236 29h7.528v-2h-7.528v2zm8.235-.293l2.236-2.236-1.414-1.414-2.236 2.236 1.414 1.414zM25 25.764V10.236h-2v15.528h2zm-.293-16.235l-2.236-2.236-1.414 1.414 2.236 2.236 1.414-1.414z" fill="#A39D94" mask="url(#path-6-inside-3_615_12473)"/><path d="M25.896 2.625l-4.284 5.911M10.154 2.56l4.284 5.912m9.041 1.986l6.084-4.291m-17.179 4.291L6.3 6.167m19.596 27.255l-4.284-5.91m-11.458 5.973l4.284-5.91m9.041-1.987l6.084 4.292m-17.179-4.292L6.3 29.88m19.596 3.63l-4.284-5.91m-11.458 5.974l4.284-5.91m9.041-1.987l6.084 4.292m-17.179-4.292L6.3 29.969" stroke="#A39D94" stroke-miterlimit="10"/></svg>