<svg width="56" height="56" viewBox="0 0 56 56" fill="inherit" xmlns="http://www.w3.org/2000/svg"><g clip-path="url(#clip0_269_4080)"><path d="M28.008 56C12.448 56.008-.008 43.53 0 27.972A27.905 27.905 0 0128.064 0 27.9 27.9 0 0156 27.956C56.016 43.522 43.568 56 28.008 56zm13.376-37.523c.056-1.151-.136-2.135-1.552-2.12-.632.009-1.288.273-1.896.52A7656.102 7656.102 0 0015.68 26.06c-1.64.68-3.272 1.384-4.896 2.112-.512.232-1.008.544-1 1.216 0 .72.576.912 1.104 1.088 1.64.544 3.264 1.143 4.936 1.551 1.504.36 2.944.248 4.344-.736 3.616-2.543 7.32-4.975 11.008-7.406.68-.448 1.648-1.448 2.232-.744.584.696-.568 1.44-1.152 2.007a889.016 889.016 0 01-7.952 7.591c-.88.84-1.176 1.776-.128 2.592 3.248 2.528 6.576 4.967 10.264 6.823 1.944.976 3.096.288 3.48-1.872.504-2.847.952-5.703 1.4-8.558.712-4.416 1.384-8.831 2.064-13.247z"/></g><defs><clipPath id="clip0_269_4080"><path d="M0 0h56v56H0z"/></clipPath></defs></svg>