<svg width="18" height="18" viewBox="0 0 18 18" fill="inherit" xmlns="http://www.w3.org/2000/svg">
    <path
        d="M8.62523 5.25011C9.12251 5.25011 9.59942 5.44766 9.95105 5.79929C10.3027 6.15092 10.5002 6.62783 10.5002 7.12511C10.5002 7.6224 10.3027 8.09931 9.95105 8.45094C9.59942 8.80257 9.12251 9.00011 8.62523 9.00011C8.12795 9.00011 7.65103 8.80257 7.2994 8.45094C6.94777 8.09931 6.75023 7.6224 6.75023 7.12511C6.75023 6.62783 6.94777 6.15092 7.2994 5.79929C7.65103 5.44766 8.12795 5.25011 8.62523 5.25011V5.25011ZM8.62523 6.00011C8.32686 6.00011 8.04071 6.11864 7.82973 6.32962C7.61875 6.5406 7.50023 6.82675 7.50023 7.12511C7.50023 7.42348 7.61875 7.70963 7.82973 7.92061C8.04071 8.13159 8.32686 8.25011 8.62523 8.25011C8.9236 8.25011 9.20974 8.13159 9.42072 7.92061C9.6317 7.70963 9.75023 7.42348 9.75023 7.12511C9.75023 6.82675 9.6317 6.5406 9.42072 6.32962C9.20974 6.11864 8.9236 6.00011 8.62523 6.00011V6.00011ZM5.10023 9.26786L8.62523 15.0654L12.1502 9.26786C12.5304 8.64237 12.7373 7.92697 12.7496 7.19511C12.762 6.46325 12.5794 5.74128 12.2206 5.1033C11.8618 4.46531 11.3396 3.9343 10.7078 3.56475C10.076 3.1952 9.35719 3.00044 8.62523 3.00044C7.89326 3.00044 7.17448 3.1952 6.54265 3.56475C5.91081 3.9343 5.38869 4.46531 5.02987 5.1033C4.67105 5.74128 4.48845 6.46325 4.50082 7.19511C4.51318 7.92697 4.72006 8.64237 5.10023 9.26786V9.26786ZM12.7907 9.65787L8.62523 16.5091L4.45973 9.65787C4.01057 8.91863 3.76619 8.07319 3.75166 7.20832C3.73714 6.34344 3.953 5.49028 4.37708 4.73638C4.80117 3.98247 5.41821 3.35498 6.16489 2.9183C6.91156 2.48162 7.76098 2.25146 8.62598 2.25146C9.49097 2.25146 10.3404 2.48162 11.0871 2.9183C11.8337 3.35498 12.4508 3.98247 12.8749 4.73638C13.299 5.49028 13.5148 6.34344 13.5003 7.20832C13.4858 8.07319 13.2414 8.91863 12.7922 9.65787H12.7907V9.65787Z"
        fill="inherit" />
</svg>