<svg width="580" height="83" viewBox="0 0 580 83" fill="none" xmlns="http://www.w3.org/2000/svg">
<path d="M71.0524 25.8772L71.0926 15.4019L47.1572 39.0416L71.0524 25.8772ZM70.3289 25.4457L51.3977 35.8709L70.359 17.1578L70.3289 25.4457Z" fill="#CDAA77"/>
<path d="M70.8915 67.6182L70.9316 57.1428L47.1572 43.8179L70.8915 67.6182ZM70.168 65.8622L51.3775 47.0187L70.2082 57.5743L70.168 65.8622Z" fill="#CDAA77"/>
<path d="M71.9468 27.4023V55.2162L72.0473 55.2061L78.5184 46.7777L83 41.3594L71.9669 27.4124L71.9468 27.4023ZM72.6803 29.4693L82.0756 41.3394L77.9557 46.3262L72.6904 53.099V29.4693H72.6803Z" fill="#CDAA77"/>
<path d="M82.9999 54.3033V43.0654L72.8711 55.8586L82.9999 54.3033ZM82.2764 53.6812L74.5994 54.8652L82.2764 45.1625V53.6812Z" fill="#CDAA77"/>
<path d="M72.0273 56.9723V67.2269L72.168 67.1567L82.6988 55.2866L72.1379 56.8419L72.0273 56.9723ZM72.7609 57.4941L80.8298 56.3L72.7609 65.4007V57.4941Z" fill="#CDAA77"/>
<path d="M72.8711 26.8608L82.9999 39.654V28.4161L72.8711 26.8608ZM82.2764 37.567L74.5994 27.8642L82.2764 29.0482V37.567Z" fill="#CDAA77"/>
<path d="M82.6988 27.4525L72.168 15.5824L72.0273 15.5122V25.7668L72.1278 25.8872L82.6988 27.4525ZM72.7609 17.3384L80.8298 26.4391L72.7609 25.245V17.3384Z" fill="#CDAA77"/>
<path d="M11.9074 57.143L11.8672 67.6184L35.903 43.9385L11.9074 57.143ZM12.6409 57.5745L31.6425 47.1092L12.6108 65.8725L12.6409 57.5745Z" fill="#CDAA77"/>
<path d="M12.0783 15.4019L12.0381 25.8772L35.9031 39.2623L12.0783 15.4019ZM12.7917 17.1578L31.6627 36.0515L12.7616 25.4558L12.7917 17.1578Z" fill="#CDAA77"/>
<path d="M0 41.6004L11.0732 55.4672V27.6533H11.0431L0 41.6004ZM10.3397 53.3901L0.934493 41.6004L10.3498 29.7203V53.3901H10.3397Z" fill="#CDAA77"/>
<path d="M0 43.3159V54.5538L10.1489 56.1091L0 43.3159ZM0.733535 45.413L8.43063 55.1157L0.733535 53.9317V45.413Z" fill="#CDAA77"/>
<path d="M0.331543 55.5376L10.8522 67.4076L10.9929 67.4779V57.2233L10.8924 57.1029L0.331543 55.5376ZM10.2594 65.6517L2.1905 56.551L10.2594 57.745V65.6517Z" fill="#CDAA77"/>
<path d="M0 28.6768V39.9147L10.1489 27.1216L0 28.6768ZM0.733535 29.2989L8.43063 28.1149L0.733535 37.8177V29.2989Z" fill="#CDAA77"/>
<path d="M10.9929 26.0178V15.7632L10.8522 15.8334L0.331543 27.7035L10.8924 26.1482L10.9929 26.0178ZM10.2594 25.5061L2.20055 26.69L10.2694 17.5893V25.5061H10.2594Z" fill="#CDAA77"/>
<path d="M43.8613 35.9415L67.7563 12.1412L57.2759 12.1011L43.8613 35.9415ZM66.0079 12.8636L47.0768 31.7172L57.6979 12.8335L66.0079 12.8636Z" fill="#CDAA77"/>
<path d="M25.7742 12.1011L15.2837 12.1412L39.1889 35.9415L25.7742 12.1011ZM25.3522 12.8335L35.9734 31.7172L17.0422 12.8636L25.3522 12.8335Z" fill="#CDAA77"/>
<path d="M55.4975 11.0575V11.0274L41.5302 0.0302734L27.6533 11.0575H55.4975ZM41.5402 0.963421L53.4376 10.335H29.7333L41.5402 0.963421Z" fill="#CDAA77"/>
<path d="M39.8119 0.0301015L28.5678 0L27.0103 10.1342L39.8119 0.0301015ZM29.1908 0.732471L37.7219 0.752539L28.005 8.40836L29.1908 0.732471Z" fill="#CDAA77"/>
<path d="M26.0153 10.8669L27.5728 0.321289L15.6856 10.8368L15.6152 10.9772H25.8846L26.0153 10.8669ZM17.4541 10.2448L26.5679 2.18759L25.3722 10.2448H17.4541Z" fill="#CDAA77"/>
<path d="M54.4826 0L43.2285 0.0301015L56.04 10.1342L54.4826 0ZM53.8596 0.732471L55.0453 8.4184L45.3186 0.752539L53.8596 0.732471Z" fill="#CDAA77"/>
<path d="M57.1351 10.9772H67.4048L67.3344 10.8368L55.457 0.321289L57.0146 10.8669L57.1351 10.9772ZM65.5759 10.2448H57.6577L56.4619 2.18759L65.5759 10.2448Z" fill="#CDAA77"/>
<path d="M57.2761 71.0495L67.7666 71.0897L43.9619 46.9482L57.2761 71.0495ZM57.6981 70.3271L47.1573 51.2227L66.0182 70.3572L57.6981 70.3271Z" fill="#CDAA77"/>
<path d="M39.3599 47.0889L15.4746 70.8892L25.9652 70.9293L39.3599 47.0889ZM17.223 70.1667L36.1443 51.3232L25.5331 70.1968L17.223 70.1667Z" fill="#CDAA77"/>
<path d="M27.7739 71.9326V71.9627L41.7412 83L55.6282 71.9326H27.7739ZM41.7412 82.0668L29.8439 72.6551H53.5481L41.7412 82.0668Z" fill="#CDAA77"/>
<path d="M43.4595 82.9901L54.7137 82.9801L56.2712 72.856L43.4595 82.9901ZM54.0907 82.2577L45.5596 82.2677L55.2764 74.5818L54.0907 82.2577Z" fill="#CDAA77"/>
<path d="M57.266 72.1135L55.7085 82.6591L67.5957 72.1537L67.666 72.0132H57.3866L57.266 72.1135ZM65.8272 72.7356L56.7133 80.7928L57.9091 72.7356H65.8272Z" fill="#CDAA77"/>
<path d="M28.7987 82.9801L40.053 82.9901L27.2412 72.856L28.7987 82.9801ZM29.4217 82.2577L28.236 74.5717L37.9528 82.2577H29.4217Z" fill="#CDAA77"/>
<path d="M26.1461 72.0132H15.8667L15.937 72.1537L27.8242 82.6591L26.2667 72.1135L26.1461 72.0132ZM17.7055 72.7356H25.6236L26.8194 80.7928L17.7055 72.7356Z" fill="#CDAA77"/>
<path d="M42.5655 36.5132L55.7289 12.0908L27.5029 11.9805L40.4754 36.5032C38.4557 36.9146 36.868 38.53 36.4761 40.5669L12.0182 27.4226L11.9077 55.6076L36.5063 42.6339C36.9584 44.6406 38.5963 46.1959 40.6462 46.5471L27.5029 70.9293L55.7289 71.0397L42.7262 46.4568C44.6455 45.9852 46.1527 44.4299 46.5245 42.4733L70.9422 55.6076L71.0528 27.4226L46.4843 40.3763C46.0422 38.4498 44.5149 36.9246 42.5655 36.5132ZM41.2491 36.4129L28.7187 12.723L54.513 12.8233L41.7917 36.4129C41.7013 36.4029 41.6008 36.4029 41.5003 36.4029C41.4199 36.4029 41.3295 36.4029 41.2491 36.4129ZM12.6513 54.3935L12.7518 28.6367L36.3857 41.3395C36.3857 41.3997 36.3756 41.4499 36.3756 41.5101C36.3756 41.6305 36.3857 41.7509 36.3957 41.8613L12.6513 54.3935ZM41.9726 46.6073L54.513 70.3173L28.7187 70.2169L41.43 46.6273C41.4501 46.6273 41.4802 46.6273 41.5003 46.6273C41.6611 46.6273 41.8219 46.6173 41.9726 46.6073ZM42.3745 45.8146C42.0932 45.8748 41.8018 45.9049 41.5003 45.9049C41.3396 45.9049 41.1788 45.8748 41.018 45.8547C38.8174 45.6139 37.1092 43.7777 37.1092 41.5201C37.1092 39.102 39.0787 37.1353 41.5003 37.1353C43.6607 37.1353 45.4393 38.6906 45.8111 40.7375C45.8412 40.9181 45.8513 41.0987 45.8613 41.2793C45.8613 41.3596 45.8814 41.4298 45.8814 41.5101C45.8814 41.7108 45.8513 41.9114 45.8212 42.1121C45.58 43.9583 44.1933 45.4434 42.3745 45.8146ZM46.6049 41.1388L70.3092 28.6367L70.2087 54.3935L46.615 41.7108C46.615 41.6506 46.625 41.5803 46.625 41.5201C46.625 41.3897 46.625 41.2693 46.6049 41.1388Z" fill="#CDAA77"/>
<path d="M41.5103 38.0786C39.6111 38.0786 38.0737 39.6138 38.0737 41.5102C38.0737 43.4066 39.6111 44.9418 41.5103 44.9418C43.4094 44.9418 44.9469 43.4066 44.9469 41.5102C44.9469 39.6138 43.3994 38.0786 41.5103 38.0786ZM41.5103 44.2193C40.0131 44.2193 38.8073 43.0052 38.8073 41.5202C38.8073 40.0252 40.0231 38.8211 41.5103 38.8211C43.0075 38.8211 44.2133 40.0352 44.2133 41.5202C44.2133 43.0052 42.9975 44.2193 41.5103 44.2193Z" fill="#CDAA77"/>
<path d="M126.875 41.0302C127.725 40.5802 128.526 39.9502 129.246 39.1702C129.916 38.4402 130.246 37.5102 130.246 36.3202C130.246 35.5402 130.016 34.7802 129.556 34.0602C129.076 33.3102 128.416 32.6402 127.585 32.0902C126.735 31.5102 125.715 31.0402 124.555 30.7002C123.384 30.3602 122.124 30.1802 120.813 30.1802H109V51.9502H111.991V43.0802V42.4502H112.621H118.953H119.243L119.433 42.6702L127.205 51.9402H130.326L123.044 43.2802L122.374 42.4802L123.394 42.2602C124.675 42.0002 125.845 41.5902 126.875 41.0302ZM120.813 41.1302H112.611H111.991V40.5002V32.1002V31.4802H112.621H120.813C121.644 31.4802 122.454 31.6002 123.224 31.8402C123.984 32.0802 124.675 32.4102 125.255 32.8102C125.865 33.2402 126.355 33.7502 126.705 34.3402C127.075 34.9502 127.255 35.6202 127.255 36.3202C127.255 37.0102 127.065 37.6702 126.695 38.2802C126.345 38.8602 125.855 39.3702 125.255 39.8002C124.665 40.2102 123.984 40.5402 123.214 40.7802C122.464 41.0102 121.654 41.1302 120.813 41.1302Z" fill="black"/>
<path d="M157.624 47.4997C158.164 46.5797 158.425 45.6097 158.425 44.5197V30.1797H155.464V44.5297C155.464 46.4997 154.633 48.0697 153.013 49.1997C151.462 50.2797 149.392 50.8297 146.881 50.8297C144.37 50.8297 142.31 50.2797 140.759 49.1897C139.139 48.0497 138.319 46.4797 138.319 44.5297V30.1797H135.328V44.5297C135.328 45.6297 135.598 46.5997 136.148 47.5097C136.698 48.4197 137.488 49.2297 138.489 49.9097C139.509 50.5997 140.729 51.1497 142.14 51.5397C143.56 51.9297 145.161 52.1297 146.881 52.1297C148.612 52.1297 150.212 51.9297 151.642 51.5397C153.063 51.1497 154.293 50.5997 155.314 49.9097C156.304 49.2297 157.084 48.4197 157.624 47.4997Z" fill="black"/>
<path d="M233.667 30.1797H230.546L218.322 40.8797L231.596 51.9497H234.667L221.723 41.3697L221.143 40.8997L221.713 40.4097L233.667 30.1797Z" fill="black"/>
<path d="M216.732 51.9497V40.8897V30.1797H213.751V51.9497H216.732Z" fill="black"/>
<path d="M240.789 30.1797H238.409V51.9497H240.789V30.1797Z" fill="black"/>
<path d="M255.563 51.9497H258.554V43.6097V43.4097L258.684 43.2397L268.527 30.1797H265.566L257.564 40.8797L257.064 41.5497L256.564 40.8797L248.551 30.1797H245.59L255.443 43.2397L255.563 43.4097V43.6097V51.9497Z" fill="black"/>
<path d="M272.658 51.9497H293.125V50.6497H276.28H275.649V50.0297V41.9797V41.3497H276.28H291.264V40.0497H276.28H275.649V39.4297V32.0997V31.4797H276.28H292.584V30.1797H272.658V51.9497Z" fill="black"/>
<path d="M331.536 43.73C330.716 42.97 329.686 42.35 328.455 41.88C327.195 41.4 325.794 41 324.294 40.71C322.673 40.39 321.263 40.06 319.983 39.72C318.632 39.36 317.472 38.89 316.542 38.34C315.481 37.71 314.921 36.76 314.921 35.59C314.921 34.99 315.121 34.41 315.521 33.87C315.901 33.35 316.412 32.9 317.062 32.53C317.682 32.16 318.442 31.86 319.312 31.64C320.193 31.42 321.153 31.31 322.173 31.31H332.667V30H322.163C320.643 30 319.232 30.17 317.952 30.51C316.682 30.85 315.581 31.29 314.681 31.84C313.791 32.38 313.101 32.99 312.61 33.66C312.15 34.3 311.93 34.93 311.93 35.59C311.93 36.79 312.3 37.71 313.061 38.4C313.891 39.16 314.921 39.78 316.141 40.25C317.392 40.73 318.792 41.13 320.293 41.42C321.933 41.75 323.344 42.07 324.604 42.42C325.964 42.78 327.115 43.25 328.045 43.8C329.105 44.43 329.666 45.38 329.666 46.55C329.666 47.8 328.975 48.86 327.615 49.68C326.355 50.45 324.514 50.83 322.153 50.83H311.92V52.13H322.153C323.824 52.13 325.344 51.97 326.655 51.64C327.955 51.32 329.075 50.88 329.986 50.34C330.856 49.82 331.526 49.22 331.986 48.55C332.426 47.91 332.636 47.25 332.636 46.54C332.657 45.35 332.286 44.43 331.536 43.73Z" fill="black"/>
<path d="M182.862 43.73C182.042 42.97 181.012 42.35 179.781 41.88C178.521 41.4 177.121 41 175.62 40.71C174 40.39 172.589 40.06 171.309 39.72C169.958 39.36 168.798 38.89 167.868 38.34C166.807 37.71 166.247 36.76 166.247 35.59C166.247 34.99 166.447 34.41 166.847 33.87C167.228 33.35 167.738 32.9 168.388 32.53C169.008 32.16 169.768 31.86 170.639 31.64C171.519 31.42 172.479 31.31 173.499 31.31H183.993V30H173.489C171.969 30 170.559 30.17 169.278 30.51C168.008 30.85 166.907 31.29 166.007 31.84C165.117 32.38 164.427 32.99 163.937 33.66C163.476 34.3 163.256 34.93 163.256 35.59C163.256 36.79 163.626 37.71 164.387 38.4C165.217 39.16 166.247 39.78 167.468 40.25C168.718 40.73 170.118 41.13 171.619 41.42C173.259 41.75 174.67 42.07 175.93 42.42C177.291 42.78 178.441 43.25 179.371 43.8C180.432 44.43 180.992 45.38 180.992 46.55C180.992 47.8 180.302 48.86 178.941 49.68C177.681 50.45 175.84 50.83 173.479 50.83H163.256V52.13H173.489C175.16 52.13 176.68 51.97 177.991 51.64C179.291 51.32 180.412 50.88 181.322 50.34C182.192 49.82 182.862 49.22 183.322 48.55C183.763 47.91 183.973 47.25 183.973 46.54C183.983 45.35 183.613 44.43 182.862 43.73Z" fill="black"/>
<path d="M207.799 43.73C206.979 42.97 205.949 42.35 204.718 41.88C203.458 41.4 202.058 41 200.557 40.71C198.937 40.39 197.526 40.06 196.246 39.72C194.895 39.36 193.735 38.89 192.805 38.34C191.744 37.71 191.184 36.76 191.184 35.59C191.184 34.99 191.384 34.41 191.784 33.87C192.165 33.35 192.675 32.9 193.325 32.53C193.945 32.16 194.705 31.86 195.576 31.64C196.456 31.42 197.416 31.31 198.436 31.31H208.93V30H198.426C196.906 30 195.496 30.17 194.215 30.51C192.945 30.85 191.844 31.29 190.944 31.84C190.054 32.38 189.364 32.99 188.874 33.66C188.413 34.3 188.193 34.93 188.193 35.59C188.193 36.79 188.563 37.71 189.324 38.4C190.154 39.16 191.184 39.78 192.405 40.25C193.655 40.73 195.055 41.13 196.556 41.42C198.196 41.75 199.607 42.07 200.867 42.42C202.228 42.78 203.378 43.25 204.308 43.8C205.369 44.43 205.929 45.38 205.929 46.55C205.929 47.8 205.239 48.86 203.878 49.68C202.618 50.45 200.777 50.83 198.416 50.83H188.193V52.13H198.426C200.097 52.13 201.617 51.97 202.928 51.64C204.228 51.32 205.349 50.88 206.259 50.34C207.129 49.82 207.799 49.22 208.259 48.55C208.7 47.91 208.91 47.25 208.91 46.54C208.92 45.35 208.56 44.43 207.799 43.73Z" fill="black"/>
<path d="M477.25 48.56C477.69 47.92 477.9 47.26 477.9 46.55C477.9 45.35 477.53 44.43 476.779 43.74C475.959 42.98 474.929 42.36 473.698 41.89C472.438 41.41 471.038 41.01 469.537 40.72C467.917 40.4 466.506 40.07 465.226 39.73C463.876 39.37 462.715 38.9 461.785 38.35C460.725 37.72 460.164 36.77 460.164 35.6C460.164 35 460.365 34.42 460.765 33.88C461.145 33.36 461.655 32.91 462.305 32.54C462.925 32.17 463.686 31.87 464.556 31.65C465.436 31.43 466.396 31.32 467.417 31.32H477.91V30H467.407C465.886 30 464.476 30.17 463.195 30.51C461.925 30.85 460.825 31.29 459.924 31.84C459.034 32.38 458.344 32.99 457.854 33.66C457.394 34.3 457.174 34.93 457.174 35.59C457.174 36.79 457.544 37.71 458.304 38.4C459.134 39.16 460.164 39.78 461.385 40.25C462.635 40.73 464.036 41.13 465.536 41.42C467.177 41.75 468.587 42.07 469.847 42.42C471.208 42.78 472.358 43.25 473.288 43.8C474.349 44.43 474.909 45.38 474.909 46.55C474.909 47.8 474.219 48.86 472.858 49.68C471.598 50.45 469.757 50.83 467.397 50.83H457.164V52.13H467.397C469.067 52.13 470.588 51.97 471.898 51.64C473.198 51.32 474.319 50.88 475.229 50.34C476.119 49.82 476.789 49.22 477.25 48.56Z" fill="black"/>
<path d="M363.165 51.9497L351.162 30.1797H348.201L336.167 51.9497H339.238L342.239 46.6097L342.419 46.2897H342.789H356.544H356.914L357.094 46.6097L360.095 51.9497H363.165ZM355.233 44.9697H344.12H343.06L343.57 44.0397L349.121 33.9997L349.671 33.0097L350.222 33.9997L355.783 44.0497L356.293 44.9797H355.233V44.9697Z" fill="black"/>
<path d="M394.124 51.9497H397.115V30.1797H394.635L382.361 48.3597L381.841 49.1297L381.321 48.3597L369.067 30.1797H366.586V51.9497H369.577V37.0497V34.9797L370.728 36.6997L380.861 51.9497H382.821L392.974 36.6997L394.124 34.9797V37.0497V51.9497Z" fill="black"/>
<path d="M429.465 45.34C430.276 44.01 430.666 42.61 430.666 41.06C430.666 39.55 430.266 38.12 429.465 36.79C428.645 35.44 427.545 34.24 426.194 33.24C424.834 32.23 423.213 31.42 421.403 30.85C419.582 30.29 417.662 30 415.681 30C413.701 30 411.77 30.29 409.96 30.87C408.139 31.44 406.528 32.24 405.168 33.26C403.818 34.26 402.707 35.45 401.887 36.81C401.087 38.13 400.687 39.57 400.687 41.07C400.687 42.62 401.077 44.02 401.887 45.35C402.697 46.69 403.798 47.88 405.168 48.89C406.528 49.9 408.149 50.7 409.96 51.28C411.78 51.85 413.701 52.14 415.681 52.14C417.662 52.14 419.582 51.85 421.403 51.28C423.223 50.7 424.834 49.9 426.194 48.89C427.555 47.87 428.655 46.68 429.465 45.34ZM426.644 45.02C425.964 46.21 425.064 47.25 423.954 48.11C422.863 48.96 421.573 49.64 420.123 50.11C418.682 50.58 417.192 50.82 415.691 50.82C414.191 50.82 412.69 50.58 411.26 50.11C409.809 49.63 408.519 48.96 407.419 48.11C406.298 47.25 405.388 46.21 404.718 45.03C404.038 43.82 403.698 42.48 403.698 41.06C403.698 39.64 404.038 38.3 404.718 37.1C405.388 35.91 406.288 34.87 407.419 34.01C408.529 33.15 409.829 32.48 411.26 32.01C412.7 31.54 414.191 31.3 415.691 31.3C417.192 31.3 418.692 31.54 420.123 32.01C421.563 32.48 422.853 33.16 423.954 34.01C425.064 34.87 425.974 35.91 426.644 37.1C427.335 38.31 427.685 39.64 427.685 41.06C427.685 42.47 427.335 43.81 426.644 45.02Z" fill="black"/>
<path d="M441.059 51.9497H444.039V32.0997V31.4797H444.67H454.102V30.1797H430.996V31.4797H440.428H441.059V32.0997V51.9497Z" fill="black"/>
<path d="M492.234 49.7197L491.684 48.6497L482.081 30.1797H478.98L490.523 51.9497H493.985L505.498 30.1797H502.417L492.794 48.6497L492.234 49.7197Z" fill="black"/>
<path d="M509.419 51.9497H529.885V50.6497H513.03H512.41V50.0297V41.9797V41.3497H513.03H528.024V40.0497H513.03H512.41V39.4297V32.0997V31.4797H513.03H529.345V30.1797H509.419V51.9497Z" fill="black"/>
<path d="M540.848 51.9497H543.839V32.0997V31.4797H544.469H553.902V30.1797H530.795V31.4797H540.228H540.848V32.0997V51.9497Z" fill="black"/>
<path d="M567.046 51.9497H570.037V43.6097V43.4097L570.157 43.2397L580 30.1797H577.049L569.037 40.8797L568.537 41.5497L568.036 40.8797L560.034 30.1797H557.073L566.916 43.2397L567.046 43.4097V43.6097V51.9497Z" fill="black"/>
</svg>
