<svg width="94" height="65" viewBox="0 0 94 65" fill="none" xmlns="http://www.w3.org/2000/svg">
<g clip-path="url(#clip0_360_8312)">
<path d="M25.6739 63.7033C39.4147 63.7033 50.5539 52.5641 50.5539 38.8233C50.5539 25.0825 39.4147 13.9434 25.6739 13.9434C11.9331 13.9434 0.793945 25.0825 0.793945 38.8233C0.793945 52.5641 11.9331 63.7033 25.6739 63.7033Z" stroke="#A39D94" stroke-miterlimit="10"/>
<path d="M13.0693 11.9354L19.1638 6.55469H31.1959L37.2826 11.9354L25.1564 23.944L13.0693 11.9354Z" fill="white"/>
<path d="M31.0467 6.95477L36.7491 11.9512L25.1562 23.4264L13.6417 11.9512L19.3127 6.95477H31.0781H31.0467ZM31.3762 6.17041H19.0146L18.7872 6.3665L13.1241 11.3707L12.4966 11.9276L13.0849 12.5159L24.5993 23.9519L25.1483 24.501L25.7052 23.9519L37.2589 12.5081L37.855 11.9198L37.2275 11.3629L31.5644 6.35866L31.3448 6.17041H31.3762Z" fill="#A39D94"/>
<path d="M38.059 43.4275H33.2273L42.3024 19.1123H46.5536L55.6365 43.4275H50.8048L49.0636 38.3998H39.7924L38.059 43.4275ZM47.5184 34.1564L44.428 25.2695L41.3376 34.1564H47.5184Z" fill="black" stroke="white" stroke-miterlimit="10"/>
<path d="M63.6213 23.2301C63.4141 22.7708 63.2994 22.2751 63.2838 21.7714C63.2682 21.2677 63.3521 20.7658 63.5305 20.2945C63.709 19.8232 63.9786 19.3917 64.3239 19.0247C64.6692 18.6576 65.0835 18.3622 65.543 18.1553L72.7042 14.6963L75.8417 22.4772L68.4765 25.2381C67.5637 25.5841 66.5533 25.5691 65.6511 25.196C64.749 24.8229 64.0231 24.1199 63.6213 23.2301V23.2301Z" stroke="black" stroke-miterlimit="10"/>
<path d="M49.0244 29.2148L56.0209 29.5364" stroke="black" stroke-miterlimit="10"/>
<path d="M49.3225 28.9873L52.0835 26.1558" stroke="black" stroke-miterlimit="10"/>
<path d="M49.0557 27.8264L50.0204 22.7202" stroke="black" stroke-miterlimit="10"/>
<path d="M49.1028 28.6268L53.1658 21.1597" stroke="black" stroke-miterlimit="10"/>
<path d="M49.3225 28.9873L51.9658 31.2541" stroke="black" stroke-miterlimit="10"/>
<path d="M63.7312 23.1519L49.3225 28.9875" stroke="black" stroke-miterlimit="10"/>
<path d="M72.7043 14.6885L75.779 7.58219L92.3134 0.405273" stroke="black" stroke-miterlimit="10"/>
<path d="M75.9358 22.3439L83.2304 23.944L93.0976 20.085" stroke="black" stroke-miterlimit="10"/>
</g>
<defs>
<clipPath id="clip0_360_8312">
<rect width="94" height="65" fill="white"/>
</clipPath>
</defs>
</svg>
