<svg width="104" height="70" viewBox="0 0 104 70" fill="none" xmlns="http://www.w3.org/2000/svg">
<path d="M52.3615 59.1586C59.1886 59.1586 64.7231 53.6242 64.7231 46.7971C64.7231 39.97 59.1886 34.4355 52.3615 34.4355C45.5345 34.4355 40 39.97 40 46.7971C40 53.6242 45.5345 59.1586 52.3615 59.1586Z" stroke="#111111" stroke-miterlimit="10"/>
<path d="M45.8047 33.4313L49.0519 30.5684H55.1778L58.4094 33.4313L52.0953 39.6826L45.8047 33.4313Z" fill="white"/>
<mask id="path-3-inside-1_644_9115" fill="white">
<path d="M55.029 30.7844L57.837 33.2708L52.0955 38.9574L46.3775 33.2708L49.1934 30.7844H55.029ZM55.3271 30H48.9031L48.6757 30.1961L45.8833 32.6825L45.2559 33.2394L45.852 33.8277L51.57 39.5143L52.119 40.0634L52.6759 39.5143L58.4331 33.8277L59.0293 33.2394L58.4018 32.6825L55.5859 30.1961L55.2957 30H55.3271Z"/>
</mask>
<path d="M55.029 30.7844L57.837 33.2708L52.0955 38.9574L46.3775 33.2708L49.1934 30.7844H55.029ZM55.3271 30H48.9031L48.6757 30.1961L45.8833 32.6825L45.2559 33.2394L45.852 33.8277L51.57 39.5143L52.119 40.0634L52.6759 39.5143L58.4331 33.8277L59.0293 33.2394L58.4018 32.6825L55.5859 30.1961L55.2957 30H55.3271Z" fill="black"/>
<path d="M55.029 30.7844L55.6919 30.0357L55.4081 29.7844H55.029V30.7844ZM57.837 33.2708L58.5407 33.9813L59.2993 33.2299L58.5 32.5221L57.837 33.2708ZM52.0955 38.9574L51.3903 39.6665L52.0941 40.3663L52.7992 39.6679L52.0955 38.9574ZM46.3775 33.2708L45.7156 32.5212L44.9158 33.2274L45.6723 33.9798L46.3775 33.2708ZM49.1934 30.7844V29.7844H48.815L48.5315 30.0348L49.1934 30.7844ZM48.9031 30V29H48.5316L48.2502 29.2426L48.9031 30ZM48.6757 30.1961L48.0227 29.4387L48.0167 29.4439L48.0107 29.4493L48.6757 30.1961ZM45.8833 32.6825L46.5471 33.4304L46.5484 33.4294L45.8833 32.6825ZM45.2559 33.2394L44.5921 32.4915L43.793 33.2007L44.5535 33.9512L45.2559 33.2394ZM45.852 33.8277L46.5571 33.1186L46.5544 33.1159L45.852 33.8277ZM51.57 39.5143L52.2771 38.8072L52.2751 38.8053L51.57 39.5143ZM52.119 40.0634L51.4119 40.7705L52.114 41.4726L52.8211 40.7755L52.119 40.0634ZM52.6759 39.5143L53.378 40.2264L53.3787 40.2258L52.6759 39.5143ZM58.4331 33.8277L57.7307 33.1159L57.7304 33.1162L58.4331 33.8277ZM59.0293 33.2394L59.7317 33.9512L60.4922 33.2007L59.693 32.4915L59.0293 33.2394ZM58.4018 32.6825L59.0656 31.9346L59.0637 31.9329L58.4018 32.6825ZM55.5859 30.1961L56.2478 29.4465L56.1993 29.4037L56.1458 29.3675L55.5859 30.1961ZM55.2957 30V29H52.0295L54.7358 30.8286L55.2957 30ZM54.3661 31.533L57.1741 34.0195L58.5 32.5221L55.6919 30.0357L54.3661 31.533ZM57.1333 32.5603L51.3918 38.2469L52.7992 39.6679L58.5407 33.9813L57.1333 32.5603ZM52.8007 38.2484L47.0827 32.5617L45.6723 33.9798L51.3903 39.6665L52.8007 38.2484ZM47.0394 34.0204L49.8553 31.534L48.5315 30.0348L45.7156 32.5212L47.0394 34.0204ZM49.1934 31.7844H55.029V29.7844H49.1934V31.7844ZM55.3271 29H48.9031V31H55.3271V29ZM48.2502 29.2426L48.0227 29.4387L49.3286 30.9535L49.5561 30.7574L48.2502 29.2426ZM48.0107 29.4493L45.2183 31.9357L46.5484 33.4294L49.3407 30.9429L48.0107 29.4493ZM45.2196 31.9346L44.5921 32.4915L45.9196 33.9873L46.5471 33.4304L45.2196 31.9346ZM44.5535 33.9512L45.1496 34.5395L46.5544 33.1159L45.9583 32.5276L44.5535 33.9512ZM45.1468 34.5367L50.8648 40.2234L52.2751 38.8053L46.5571 33.1186L45.1468 34.5367ZM50.8629 40.2214L51.4119 40.7705L52.8261 39.3563L52.2771 38.8072L50.8629 40.2214ZM52.8211 40.7755L53.378 40.2264L51.9739 38.8022L51.417 39.3513L52.8211 40.7755ZM53.3787 40.2258L59.1359 34.5391L57.7304 33.1162L51.9732 38.8029L53.3787 40.2258ZM59.1356 34.5395L59.7317 33.9512L58.3269 32.5276L57.7307 33.1159L59.1356 34.5395ZM59.693 32.4915L59.0655 31.9346L57.738 33.4304L58.3655 33.9873L59.693 32.4915ZM59.0637 31.9329L56.2478 29.4465L54.924 30.9457L57.7399 33.4321L59.0637 31.9329ZM56.1458 29.3675L55.8556 29.1714L54.7358 30.8286L55.0261 31.0247L56.1458 29.3675ZM55.2957 31H55.3271V29H55.2957V31Z" fill="#111111" mask="url(#path-3-inside-1_644_9115)"/>
<path d="M52.6286 59.8236C62.9169 59.8236 71.2572 51.4833 71.2572 41.195C71.2572 30.9067 62.9169 22.5664 52.6286 22.5664C42.3403 22.5664 34 30.9067 34 41.195C34 51.4833 42.3403 59.8236 52.6286 59.8236Z" stroke="#111111" stroke-miterlimit="10"/>
<path d="M43 20.3548L47.567 16H56.4406L61 20.3548L51.9808 30L43 20.3548Z" fill="white"/>
<mask id="path-7-inside-2_644_9115" fill="white">
<path d="M56.5017 16.7844L60.7451 20.5336L52.1171 29.0988L43.4891 20.5336L47.7404 16.7844H56.5017ZM56.7998 16H47.3874L47.16 16.1961L42.9166 19.9453L42.2891 20.4944L42.8852 21.0905L51.5132 29.6557L52.0622 30.2048L52.6191 29.6557L61.2471 21.0905L61.8432 20.5022L61.2157 19.9453L57.0272 16.1961L56.8076 16H56.7998Z"/>
</mask>
<path d="M56.5017 16.7844L60.7451 20.5336L52.1171 29.0988L43.4891 20.5336L47.7404 16.7844H56.5017ZM56.7998 16H47.3874L47.16 16.1961L42.9166 19.9453L42.2891 20.4944L42.8852 21.0905L51.5132 29.6557L52.0622 30.2048L52.6191 29.6557L61.2471 21.0905L61.8432 20.5022L61.2157 19.9453L57.0272 16.1961L56.8076 16H56.7998Z" fill="black"/>
<path d="M56.5017 16.7844L57.1638 16.035L56.8802 15.7844H56.5017V16.7844ZM60.7451 20.5336L61.4496 21.2433L62.2073 20.4911L61.4072 19.7842L60.7451 20.5336ZM52.1171 29.0988L51.4126 29.8085L52.1171 30.5079L52.8216 29.8085L52.1171 29.0988ZM43.4891 20.5336L42.8277 19.7836L42.0262 20.4904L42.7846 21.2433L43.4891 20.5336ZM47.7404 16.7844V15.7844H47.3624L47.0789 16.0344L47.7404 16.7844ZM47.3874 16V15H47.0159L46.7345 15.2426L47.3874 16ZM47.16 16.1961L46.507 15.4386L46.4978 15.4467L47.16 16.1961ZM42.9166 19.9453L43.5751 20.6979L43.5787 20.6947L42.9166 19.9453ZM42.2891 20.4944L41.6306 19.7418L40.8261 20.4457L41.582 21.2015L42.2891 20.4944ZM42.8852 21.0905L42.1781 21.7976L42.1807 21.8002L42.8852 21.0905ZM51.5132 29.6557L52.2203 28.9486L52.2177 28.9461L51.5132 29.6557ZM52.0622 30.2048L51.3551 30.9119L52.0572 31.614L52.7643 30.9169L52.0622 30.2048ZM52.6191 29.6557L53.3212 30.3679L53.3236 30.3654L52.6191 29.6557ZM61.2471 21.0905L60.5447 20.3787L60.5426 20.3808L61.2471 21.0905ZM61.8432 20.5022L62.5456 21.214L63.3061 20.4635L62.507 19.7543L61.8432 20.5022ZM61.2157 19.9453L60.5488 20.6904L60.5519 20.6933L61.2157 19.9453ZM57.0272 16.1961L57.6942 15.451L57.6932 15.4502L57.0272 16.1961ZM56.8076 16L57.4736 15.2541L57.1891 15H56.8076V16ZM55.8396 17.5338L60.083 21.283L61.4072 19.7842L57.1638 16.035L55.8396 17.5338ZM60.0406 19.8239L51.4126 28.3892L52.8216 29.8085L61.4496 21.2433L60.0406 19.8239ZM52.8216 28.3892L44.1937 19.8239L42.7846 21.2433L51.4126 29.8085L52.8216 28.3892ZM44.1506 21.2836L48.4018 17.5344L47.0789 16.0344L42.8277 19.7836L44.1506 21.2836ZM47.7404 17.7844H56.5017V15.7844H47.7404V17.7844ZM56.7998 15H47.3874V17H56.7998V15ZM46.7345 15.2426L46.507 15.4387L47.8129 16.9535L48.0404 16.7574L46.7345 15.2426ZM46.4978 15.4467L42.2544 19.1959L43.5787 20.6947L47.8221 16.9455L46.4978 15.4467ZM42.258 19.1928L41.6306 19.7418L42.9476 21.247L43.5751 20.6979L42.258 19.1928ZM41.582 21.2015L42.1781 21.7976L43.5923 20.3834L42.9962 19.7873L41.582 21.2015ZM42.1807 21.8002L50.8086 30.3654L52.2177 28.9461L43.5897 20.3808L42.1807 21.8002ZM50.8061 30.3629L51.3551 30.9119L52.7693 29.4977L52.2203 28.9486L50.8061 30.3629ZM52.7643 30.9169L53.3212 30.3678L51.917 28.9436L51.3601 29.4927L52.7643 30.9169ZM53.3236 30.3654L61.9516 21.8002L60.5426 20.3808L51.9146 28.9461L53.3236 30.3654ZM61.9495 21.8023L62.5456 21.214L61.1408 19.7905L60.5447 20.3787L61.9495 21.8023ZM62.507 19.7543L61.8795 19.1974L60.5519 20.6933L61.1794 21.2502L62.507 19.7543ZM61.8827 19.2002L57.6942 15.451L56.3603 16.9412L60.5488 20.6904L61.8827 19.2002ZM57.6932 15.4502L57.4736 15.2541L56.1416 16.7459L56.3612 16.942L57.6932 15.4502ZM56.8076 15H56.7998V17H56.8076V15Z" fill="#111111" mask="url(#path-7-inside-2_644_9115)"/>
<path d="M52.7977 59.8239C67.0453 59.8239 78.5953 48.2738 78.5953 34.0262C78.5953 19.7785 67.0453 8.22852 52.7977 8.22852C38.55 8.22852 27 19.7785 27 34.0262C27 48.2738 38.55 59.8239 52.7977 59.8239Z" stroke="#111111" stroke-miterlimit="10"/>
<path d="M39.7461 6.151L46.0445 0.582031H58.5159L64.8143 6.151L52.2567 18.5831L39.7461 6.151Z" fill="white"/>
<mask id="path-11-inside-3_644_9115" fill="white">
<path d="M58.3672 0.973815L64.242 6.16629L52.257 18.0258L40.319 6.16629L46.1939 0.973815H58.3672ZM58.6652 0.189453H45.9037L45.6762 0.385544L39.8013 5.57802L39.1738 6.13492L39.7621 6.72319L51.7001 18.5827L52.257 19.1318L52.806 18.5906L64.7911 6.72319L65.3872 6.13492L64.7597 5.57802L58.8848 0.385544L58.6652 0.189453V0.189453Z"/>
</mask>
<path d="M58.3672 0.973815L64.242 6.16629L52.257 18.0258L40.319 6.16629L46.1939 0.973815H58.3672ZM58.6652 0.189453H45.9037L45.6762 0.385544L39.8013 5.57802L39.1738 6.13492L39.7621 6.72319L51.7001 18.5827L52.257 19.1318L52.806 18.5906L64.7911 6.72319L65.3872 6.13492L64.7597 5.57802L58.8848 0.385544L58.6652 0.189453V0.189453Z" fill="black"/>
<path d="M58.3672 0.973815L59.0294 0.224532L58.7458 -0.0261847H58.3672V0.973815ZM64.242 6.16629L64.9454 6.87711L65.7054 6.12508L64.9043 5.41701L64.242 6.16629ZM52.257 18.0258L51.5522 18.7353L52.2556 19.434L52.9604 18.7367L52.257 18.0258ZM40.319 6.16629L39.6567 5.41701L38.8572 6.12368L39.6142 6.87573L40.319 6.16629ZM46.1939 0.973815V-0.0261847H45.8153L45.5316 0.224532L46.1939 0.973815ZM45.9037 0.189453V-0.810547H45.5321L45.2507 -0.567949L45.9037 0.189453ZM45.6762 0.385544L45.0232 -0.371917L45.0139 -0.363739L45.6762 0.385544ZM39.8013 5.57802L39.1391 4.82874L39.1375 4.8301L39.8013 5.57802ZM39.1738 6.13492L38.51 5.38699L37.7162 6.09152L38.4667 6.84202L39.1738 6.13492ZM39.7621 6.72319L39.055 7.4303L39.0573 7.43262L39.7621 6.72319ZM51.7001 18.5827L50.9953 19.2922L50.998 19.2948L51.7001 18.5827ZM52.257 19.1318L51.5549 19.8439L52.2569 20.536L52.959 19.844L52.257 19.1318ZM52.806 18.5906L53.508 19.3028L53.5097 19.3012L52.806 18.5906ZM64.7911 6.72319L64.0887 6.01141L64.0875 6.0126L64.7911 6.72319ZM65.3872 6.13492L66.0896 6.84669L66.8501 6.09621L66.051 5.38699L65.3872 6.13492ZM64.7597 5.57802L65.4235 4.83009L65.422 4.82874L64.7597 5.57802ZM58.8848 0.385544L58.2188 1.13149L58.2226 1.13483L58.8848 0.385544ZM57.7049 1.7231L63.5798 6.91558L64.9043 5.41701L59.0294 0.224532L57.7049 1.7231ZM63.5387 5.45547L51.5536 17.315L52.9604 18.7367L64.9454 6.87711L63.5387 5.45547ZM52.9618 17.3164L41.0238 5.45686L39.6142 6.87573L51.5522 18.7353L52.9618 17.3164ZM40.9812 6.91558L46.8561 1.7231L45.5316 0.224532L39.6567 5.41701L40.9812 6.91558ZM46.1939 1.97382H58.3672V-0.0261847H46.1939V1.97382ZM58.6652 -0.810547H45.9037V1.18945H58.6652V-0.810547ZM45.2507 -0.567949L45.0232 -0.371859L46.3291 1.14295L46.5566 0.946856L45.2507 -0.567949ZM45.0139 -0.363739L39.1391 4.82874L40.4636 6.3273L46.3384 1.13483L45.0139 -0.363739ZM39.1375 4.8301L38.51 5.38699L39.8376 6.88284L40.4651 6.32594L39.1375 4.8301ZM38.4667 6.84202L39.055 7.4303L40.4692 6.01608L39.8809 5.42781L38.4667 6.84202ZM39.0573 7.43262L50.9953 19.2922L52.4049 17.8733L40.4669 6.01376L39.0573 7.43262ZM50.998 19.2948L51.5549 19.8439L52.9591 18.4197L52.4022 17.8706L50.998 19.2948ZM52.959 19.844L53.508 19.3028L52.104 17.8784L51.555 18.4196L52.959 19.844ZM53.5097 19.3012L65.4947 7.43378L64.0875 6.0126L52.1024 17.88L53.5097 19.3012ZM65.4935 7.43496L66.0896 6.84669L64.6848 5.42314L64.0887 6.01141L65.4935 7.43496ZM66.051 5.38699L65.4235 4.83009L64.0959 6.32595L64.7234 6.88284L66.051 5.38699ZM65.422 4.82874L59.5471 -0.363739L58.2226 1.13483L64.0975 6.3273L65.422 4.82874ZM59.5509 -0.360393L59.3312 -0.556483L57.9992 0.935389L58.2188 1.13148L59.5509 -0.360393Z" fill="#111111" mask="url(#path-11-inside-3_644_9115)"/>
<path d="M103 65V67.5694V70" stroke="#A39D94" stroke-miterlimit="10"/>
<path d="M91 65V67.5694V70" stroke="#A39D94" stroke-miterlimit="10"/>
<path d="M79 65V67.5694V70" stroke="#A39D94" stroke-miterlimit="10"/>
<path d="M67 65V67.5694V70" stroke="#A39D94" stroke-miterlimit="10"/>
<path d="M55 65V67.5694V70" stroke="#A39D94" stroke-miterlimit="10"/>
<path d="M43 65V67.5694V70" stroke="#A39D94" stroke-miterlimit="10"/>
<path d="M31 65V67.5694V70" stroke="#A39D94" stroke-miterlimit="10"/>
<path d="M19 65V67.5694V70" stroke="#A39D94" stroke-miterlimit="10"/>
<path d="M97 65V67.5694V70" stroke="#A39D94" stroke-miterlimit="10"/>
<path d="M85 65V67.5694V70" stroke="#A39D94" stroke-miterlimit="10"/>
<path d="M73 65V67.5694V70" stroke="#A39D94" stroke-miterlimit="10"/>
<path d="M61 65V67.5694V70" stroke="#A39D94" stroke-miterlimit="10"/>
<path d="M49 65V67.5694V70" stroke="#A39D94" stroke-miterlimit="10"/>
<path d="M37 65V67.5694V70" stroke="#A39D94" stroke-miterlimit="10"/>
<path d="M25 65V67.5694V70" stroke="#A39D94" stroke-miterlimit="10"/>
<path d="M13 65V67.5694V70" stroke="#A39D94" stroke-miterlimit="10"/>
<path d="M100 68V69.0272V70" stroke="#A39D94" stroke-miterlimit="10"/>
<path d="M88 68V69.0272V70" stroke="#A39D94" stroke-miterlimit="10"/>
<path d="M76 68V69.0272V70" stroke="#A39D94" stroke-miterlimit="10"/>
<path d="M64 68V69.0272V70" stroke="#A39D94" stroke-miterlimit="10"/>
<path d="M52 68V69.0272V70" stroke="#A39D94" stroke-miterlimit="10"/>
<path d="M40 68V69.0272V70" stroke="#A39D94" stroke-miterlimit="10"/>
<path d="M28 68V69.0272V70" stroke="#A39D94" stroke-miterlimit="10"/>
<path d="M16 68V69.0272V70" stroke="#A39D94" stroke-miterlimit="10"/>
<path d="M94 68V69.0272V70" stroke="#A39D94" stroke-miterlimit="10"/>
<path d="M82 68V69.0272V70" stroke="#A39D94" stroke-miterlimit="10"/>
<path d="M70 68V69.0272V70" stroke="#A39D94" stroke-miterlimit="10"/>
<path d="M58 68V69.0272V70" stroke="#A39D94" stroke-miterlimit="10"/>
<path d="M46 68V69.0272V70" stroke="#A39D94" stroke-miterlimit="10"/>
<path d="M34 68V69.0272V70" stroke="#A39D94" stroke-miterlimit="10"/>
<path d="M22 68V69.0272V70" stroke="#A39D94" stroke-miterlimit="10"/>
<path d="M10 68V69.0272V70" stroke="#A39D94" stroke-miterlimit="10"/>
<path fill-rule="evenodd" clip-rule="evenodd" d="M1 69H103V70H1V69Z" fill="#A39D94"/>
<path d="M1 65V67.5694V70" stroke="#A39D94" stroke-miterlimit="10"/>
<path d="M7 65V67.5694V70" stroke="#A39D94" stroke-miterlimit="10"/>
<path d="M4 68V69.0272V70" stroke="#A39D94" stroke-miterlimit="10"/>
</svg>
