<svg width="97" height="72" viewBox="0 0 97 72" fill="none" xmlns="http://www.w3.org/2000/svg">
<g clip-path="url(#clip0_360_8242)">
<path d="M45.6827 57.6213C59.4235 57.6213 70.5627 46.4821 70.5627 32.7413C70.5627 19.0005 59.4235 7.86133 45.6827 7.86133C31.9419 7.86133 20.8027 19.0005 20.8027 32.7413C20.8027 46.4821 31.9419 57.6213 45.6827 57.6213Z" stroke="#A39D94" stroke-miterlimit="10"/>
<path d="M45.158 17.1656L33.8014 5.88272L39.3539 0.980469H51.0154L56.5598 5.88179L45.158 17.1656Z" fill="white" stroke="#A39D94"/>
<path d="M31.8009 31.918H0.748047" stroke="#111111" stroke-miterlimit="10"/>
<path d="M28.5065 20.8262H13.0938V22.4263H28.5065V20.8262Z" fill="#111111"/>
<path d="M28.1139 21.259V22.0433H13.4855V21.259H28.1139ZM28.8983 20.4746H12.7012V22.8277H28.8983V20.4746Z" fill="white"/>
<path d="M18.4733 38.1621H3.06055V39.7622H18.4733V38.1621Z" fill="#111111"/>
<path d="M18.0808 38.5539V39.3383H3.42108V38.5539H18.0808ZM18.8652 37.7695H2.63672V40.1226H18.8652V37.7695Z" fill="white"/>
<path d="M33.636 30.8203H0.355469V32.4204H33.636V30.8203Z" fill="#111111"/>
<path d="M33.2277 31.2121V31.9965H0.747253V31.2121H33.2277ZM34.0121 30.4277H-0.0371094V32.7808H34.0121V30.4277Z" fill="white"/>
<path d="M76.7043 71.7561C75.188 71.7577 73.7053 71.3094 72.4439 70.4679C71.1825 69.6265 70.199 68.4297 69.618 67.0291C69.0371 65.6285 68.8846 64.0871 69.1801 62.5998C69.4755 61.1126 70.2055 59.7464 71.2777 58.6742C72.3499 57.602 73.7161 56.872 75.2033 56.5766C76.6906 56.2811 78.232 56.4335 79.6326 57.0145C81.0332 57.5955 82.23 58.5789 83.0714 59.8403C83.9129 61.1018 84.3612 62.5844 84.3596 64.1008C84.3555 66.1298 83.5476 68.0746 82.1129 69.5093C80.6781 70.9441 78.7333 71.752 76.7043 71.7561Z" fill="white"/>
<path d="M76.7058 56.8293C78.1439 56.8293 79.5497 57.2557 80.7454 58.0547C81.9411 58.8536 82.8731 59.9892 83.4234 61.3178C83.9737 62.6464 84.1177 64.1084 83.8372 65.5188C83.5566 66.9293 82.8641 68.2249 81.8472 69.2417C80.8304 70.2586 79.5348 70.9511 78.1243 71.2317C76.7139 71.5122 75.2519 71.3682 73.9233 70.8179C72.5947 70.2676 71.4591 69.3356 70.6602 68.1399C69.8612 66.9442 69.4348 65.5384 69.4348 64.1003C69.4348 62.1719 70.2008 60.3225 71.5644 58.9589C72.928 57.5953 74.7774 56.8293 76.7058 56.8293ZM76.7058 56.0449C75.1123 56.0434 73.5541 56.5145 72.2284 57.3987C70.9026 58.2829 69.8689 59.5404 69.258 61.0122C68.6471 62.484 68.4865 64.1039 68.7964 65.667C69.1063 67.2302 69.8729 68.6662 70.9992 69.7936C72.1254 70.9209 73.5608 71.6889 75.1236 72.0004C76.6864 72.3118 78.3064 72.1528 79.7788 71.5433C81.2512 70.9338 82.5098 69.9014 83.3953 68.5765C84.2807 67.2516 84.7534 65.6939 84.7534 64.1003C84.7492 61.9665 83.9003 59.9212 82.3922 58.4116C80.8841 56.9021 78.8396 56.0511 76.7058 56.0449Z" fill="#111111"/>
<path d="M20.4972 71.7561C24.7251 71.7561 28.1525 68.3286 28.1525 64.1007C28.1525 59.8727 24.7251 56.4453 20.4972 56.4453C16.2692 56.4453 12.8418 59.8727 12.8418 64.1007C12.8418 68.3286 16.2692 71.7561 20.4972 71.7561Z" fill="white"/>
<path d="M20.4969 56.8293C21.9353 56.8278 23.3419 57.2529 24.5386 58.0509C25.7354 58.8489 26.6686 59.984 27.2201 61.3124C27.7716 62.6409 27.9167 64.1031 27.6371 65.5141C27.3574 66.925 26.6655 68.2213 25.649 69.239C24.6324 70.2567 23.3368 70.9499 21.9262 71.2311C20.5155 71.5123 19.0532 71.3688 17.7241 70.8187C16.395 70.2686 15.259 69.3367 14.4597 68.1408C13.6604 66.9449 13.2337 65.5388 13.2337 64.1004C13.2337 62.1733 13.9987 60.3251 15.3606 58.9618C16.7225 57.5984 18.5699 56.8314 20.4969 56.8293ZM20.4969 56.045C18.9024 56.0388 17.3419 56.5059 16.0131 57.3873C14.6843 58.2686 13.6469 59.5245 13.0324 60.9959C12.4179 62.4673 12.2539 64.0879 12.5611 65.6526C12.8684 67.2172 13.6331 68.6555 14.7584 69.7852C15.8837 70.9149 17.319 71.6853 18.8825 71.9986C20.4459 72.312 22.0672 72.1543 23.5409 71.5456C25.0147 70.9368 26.2746 69.9043 27.1612 68.579C28.0477 67.2536 28.5209 65.6949 28.521 64.1004C28.5189 61.9646 27.6695 59.9169 26.1593 58.4067C24.6491 56.8964 22.6013 56.0471 20.4656 56.045H20.4969Z" fill="#111111"/>
<path d="M20.4976 68.8994C19.5482 68.8994 18.6201 68.6179 17.8307 68.0904C17.0413 67.563 16.426 66.8133 16.0627 65.9361C15.6993 65.059 15.6043 64.0938 15.7895 63.1626C15.9747 62.2315 16.4319 61.3761 17.1032 60.7048C17.7746 60.0335 18.6299 59.5763 19.5611 59.3911C20.4922 59.2058 21.4574 59.3009 22.3346 59.6642C23.2117 60.0276 23.9614 60.6428 24.4889 61.4322C25.0163 62.2216 25.2979 63.1497 25.2979 64.0991C25.2958 65.3716 24.7894 66.5914 23.8896 67.4912C22.9898 68.3909 21.77 68.8973 20.4976 68.8994Z" fill="white"/>
<path d="M20.4972 59.6926C21.369 59.6926 22.2213 59.9511 22.9462 60.4355C23.6711 60.9198 24.2361 61.6083 24.5697 62.4138C24.9034 63.2192 24.9907 64.1056 24.8206 64.9607C24.6505 65.8158 24.2307 66.6012 23.6142 67.2177C22.9977 67.8342 22.2122 68.254 21.3571 68.4241C20.5021 68.5942 19.6157 68.5069 18.8103 68.1732C18.0048 67.8396 17.3163 67.2746 16.832 66.5497C16.3476 65.8248 16.0891 64.9725 16.0891 64.1007C16.088 63.5215 16.2013 62.9478 16.4225 62.4125C16.6437 61.8773 16.9683 61.3909 17.3779 60.9814C17.7874 60.5718 18.2737 60.2472 18.809 60.026C19.3443 59.8048 19.918 59.6915 20.4972 59.6926ZM20.4972 58.9082C19.4702 58.9082 18.4663 59.2127 17.6124 59.7833C16.7585 60.3538 16.093 61.1648 15.6999 62.1136C15.3069 63.0624 15.2041 64.1064 15.4045 65.1137C15.6048 66.1209 16.0994 67.0461 16.8255 67.7723C17.5517 68.4985 18.4769 68.993 19.4842 69.1934C20.4914 69.3937 21.5354 69.2909 22.4842 68.8979C23.433 68.5049 24.244 67.8394 24.8146 66.9855C25.3851 66.1316 25.6896 65.1277 25.6896 64.1007C25.6876 62.7242 25.1398 61.4047 24.1665 60.4313C23.1932 59.458 21.8737 58.9103 20.4972 58.9082Z" fill="#111111"/>
<path d="M76.7046 68.8994C75.7552 68.8994 74.8271 68.6179 74.0377 68.0904C73.2483 67.563 72.633 66.8133 72.2697 65.9361C71.9064 65.059 71.8113 64.0938 71.9965 63.1626C72.1818 62.2315 72.6389 61.3761 73.3103 60.7048C73.9816 60.0335 74.8369 59.5763 75.7681 59.3911C76.6993 59.2058 77.6644 59.3009 78.5416 59.6642C79.4187 60.0276 80.1684 60.6428 80.6959 61.4322C81.2234 62.2216 81.5049 63.1497 81.5049 64.0991C81.5028 65.3716 80.9964 66.5914 80.0966 67.4912C79.1968 68.3909 77.9771 68.8973 76.7046 68.8994Z" fill="white"/>
<path d="M76.7042 59.6926C77.5757 59.6941 78.4272 59.954 79.1511 60.4393C79.875 60.9246 80.4387 61.6136 80.7712 62.4192C81.1036 63.2248 81.1898 64.1109 81.0188 64.9655C80.8478 65.82 80.4274 66.6048 79.8106 67.2205C79.1938 67.8362 78.4083 68.2552 77.5535 68.4247C76.6986 68.5941 75.8127 68.5064 75.0076 68.1725C74.2026 67.8386 73.5146 67.2736 73.0306 66.5489C72.5466 65.8241 72.2882 64.9722 72.2882 64.1007C72.2882 63.5211 72.4025 62.9473 72.6245 62.412C72.8466 61.8766 73.172 61.3903 73.5821 60.9809C73.9923 60.5715 74.4792 60.2469 75.0149 60.0259C75.5506 59.8048 76.1247 59.6915 76.7042 59.6926ZM76.7042 58.9082C75.6772 58.9082 74.6733 59.2127 73.8194 59.7833C72.9655 60.3538 72.3 61.1648 71.907 62.1136C71.514 63.0624 71.4111 64.1064 71.6115 65.1137C71.8118 66.1209 72.3064 67.0461 73.0326 67.7723C73.7587 68.4985 74.684 68.993 75.6912 69.1934C76.6984 69.3937 77.7425 69.2909 78.6913 68.8979C79.6401 68.5049 80.451 67.8394 81.0216 66.9855C81.5921 66.1316 81.8967 65.1277 81.8967 64.1007C81.8946 62.7242 81.3469 61.4047 80.3735 60.4313C79.4002 59.458 78.0807 58.9103 76.7042 58.9082Z" fill="#111111"/>
<path d="M70.5625 21.627H86.8694L96.4386 46.7658V64.1002H87.7949" stroke="#111111" stroke-miterlimit="10"/>
<path d="M72.5788 27.627H83.552L90.0544 45.33H69.9434" stroke="#111111" stroke-miterlimit="10"/>
<path d="M31.6582 64.0059H65.3858" stroke="#111111"/>
</g>
<defs>
<clipPath id="clip0_360_8242">
<rect width="97" height="72" fill="white"/>
</clipPath>
</defs>
</svg>
