<svg width="89" height="78" viewBox="0 0 89 78" fill="none" xmlns="http://www.w3.org/2000/svg">
<path d="M83.2507 29.999H35.7493C33.1264 29.999 31 32.1237 31 34.7446V62.2534C31 64.8743 33.1264 66.999 35.7493 66.999H83.2507C85.8736 66.999 88 64.8743 88 62.2534V34.7446C88 32.1237 85.8736 29.999 83.2507 29.999Z" fill="white" stroke="black" stroke-miterlimit="10"/>
<path d="M88 36.999H31V40.999H88V36.999Z" fill="black"/>
<path d="M40 26.999H38V43.999H40V26.999Z" fill="white"/>
<path d="M40 55.999V53.999H22V55.999H40Z" fill="white"/>
<path d="M38.9867 12.1265H1V41.0459H38.9867V12.1265Z" fill="white" stroke="black" stroke-miterlimit="10"/>
<path d="M39 40.999H1V54.999H39V40.999Z" fill="white" stroke="black" stroke-miterlimit="10"/>
<path d="M11.9998 40.999C11.4536 39.7028 11.3582 38.1504 11.4884 36.7499C11.6186 35.3493 12.0927 34.0026 12.8686 32.8293C13.6444 31.6561 14.698 30.6925 15.9357 30.0243C17.1735 29.3562 18.5571 29.004 19.9637 28.9991C21.3702 28.9942 22.7563 29.3367 23.9986 29.9963C25.241 30.6558 26.3013 31.612 27.0853 32.7798C27.8693 33.9477 28.3527 35.291 28.4927 36.6906C28.6327 38.0903 28.537 39.699 27.9998 40.999" stroke="black" stroke-miterlimit="10"/>
<path d="M15.2832 28.5278L17.6598 26.4336H21.9895L24.3583 28.5357L19.8168 33.0301L15.2832 28.5278Z" fill="black"/>
<path d="M21.8403 26.8259L23.7777 28.5515L19.8166 32.4733L15.8948 28.5515L17.8401 26.8259H21.8403ZM22.1305 26.0415H17.5106L17.291 26.2376L15.3379 27.9946L14.7104 28.5436L15.3066 29.1397L19.2284 33.0615L19.7774 33.6106L20.3343 33.0694L24.3032 29.1476L24.8993 28.5515L24.2718 28.0024L22.3266 26.2768L22.0991 26.0807L22.1305 26.0415Z" fill="white"/>
<path d="M78.8323 22.9744C76.6188 18.2747 73.466 14.0783 69.5684 10.6439C65.6708 7.20957 61.1109 4.61006 56.17 3.00572C51.2291 1.40138 46.0119 0.826217 40.8402 1.3157C35.6684 1.80519 30.6518 3.34895 26.0996 5.85178" stroke="#A39D94" stroke-miterlimit="10"/>
<mask id="path-11-inside-1_360_8167" fill="white">
<path d="M80.5341 19.2328L79.7811 19.0054L78.6751 22.7154L75.0592 21.3349L74.7769 22.0644L79.185 23.7429L80.5341 19.2328Z"/>
</mask>
<path d="M80.5341 19.2328L79.7811 19.0054L78.6751 22.7154L75.0592 21.3349L74.7769 22.0644L79.185 23.7429L80.5341 19.2328Z" fill="black"/>
<path d="M80.5341 19.2328L81.4921 19.5194L81.7779 18.564L80.8233 18.2756L80.5341 19.2328ZM79.7811 19.0054L80.0703 18.0481L79.1095 17.7579L78.8228 18.7197L79.7811 19.0054ZM78.6751 22.7154L78.3185 23.6496L79.3255 24.0341L79.6335 23.0011L78.6751 22.7154ZM75.0592 21.3349L75.4159 20.4007L74.486 20.0457L74.1267 20.9739L75.0592 21.3349ZM74.7769 22.0644L73.8443 21.7034L73.4813 22.6411L74.421 22.9989L74.7769 22.0644ZM79.185 23.7429L78.8291 24.6775L79.8347 25.0604L80.143 24.0295L79.185 23.7429ZM80.8233 18.2756L80.0703 18.0481L79.4919 19.9626L80.2449 20.1901L80.8233 18.2756ZM78.8228 18.7197L77.7168 22.4297L79.6335 23.0011L80.7394 19.291L78.8228 18.7197ZM79.0318 21.7812L75.4159 20.4007L74.7026 22.2692L78.3185 23.6496L79.0318 21.7812ZM74.1267 20.9739L73.8443 21.7034L75.7094 22.4254L75.9918 21.6959L74.1267 20.9739ZM74.421 22.9989L78.8291 24.6775L79.5408 22.8084L75.1327 21.1298L74.421 22.9989ZM80.143 24.0295L81.4921 19.5194L79.576 18.9463L78.2269 23.4563L80.143 24.0295Z" fill="#A39D94" mask="url(#path-11-inside-1_360_8167)"/>
<path d="M14.2402 62.2319C19.5785 69.2039 27.164 74.1148 35.7101 76.132C44.2562 78.1491 53.237 77.1483 61.1294 73.2993" stroke="#A39D94" stroke-miterlimit="10"/>
<mask id="path-14-inside-2_360_8167" fill="white">
<path d="M13.3691 66.2477L14.1535 66.3104L14.4437 62.4513L18.2714 63.0239L18.3891 62.2474L13.7299 61.5493L13.3691 66.2477Z"/>
</mask>
<path d="M13.3691 66.2477L14.1535 66.3104L14.4437 62.4513L18.2714 63.0239L18.3891 62.2474L13.7299 61.5493L13.3691 66.2477Z" fill="black"/>
<path d="M13.3691 66.2477L12.3721 66.1711L12.2958 67.165L13.2894 67.2445L13.3691 66.2477ZM14.1535 66.3104L14.0738 67.3072L15.0753 67.3873L15.1507 66.3854L14.1535 66.3104ZM14.4437 62.4513L14.5917 61.4623L13.5272 61.3031L13.4465 62.3763L14.4437 62.4513ZM18.2714 63.0239L18.1235 64.0129L19.1106 64.1606L19.2601 63.1737L18.2714 63.0239ZM18.3891 62.2474L19.3778 62.3972L19.5278 61.4069L18.5372 61.2584L18.3891 62.2474ZM13.7299 61.5493L13.8781 60.5604L12.8152 60.4011L12.7329 61.4727L13.7299 61.5493ZM13.2894 67.2445L14.0738 67.3072L14.2332 65.3136L13.4489 65.2508L13.2894 67.2445ZM15.1507 66.3854L15.4409 62.5263L13.4465 62.3763L13.1563 66.2354L15.1507 66.3854ZM14.2958 63.4403L18.1235 64.0129L18.4193 62.0349L14.5917 61.4623L14.2958 63.4403ZM19.2601 63.1737L19.3778 62.3972L17.4003 62.0976L17.2827 62.8741L19.2601 63.1737ZM18.5372 61.2584L13.8781 60.5604L13.5818 62.5383L18.2409 63.2364L18.5372 61.2584ZM12.7329 61.4727L12.3721 66.1711L14.3662 66.3242L14.727 61.6259L12.7329 61.4727Z" fill="#A39D94" mask="url(#path-14-inside-2_360_8167)"/>
</svg>
