<?xml version="1.0" encoding="utf-8"?><svg width="24" height="24" fill="none" xmlns="http://www.w3.org/2000/svg" viewBox="0 0 24 24"><g clip-path="url(#eclip0_947_21097)" fill="#111"><path fill-rule="evenodd" clip-rule="evenodd" d="M8.518 13.223a8.23 8.23 0 00-4.554 2.313A3.292 3.292 0 003 17.863V21h18v-3.307a2.88 2.88 0 00-.844-2.037 8.642 8.642 0 00-4.687-2.413 3.593 3.593 0 01-.851.903 7.642 7.642 0 014.831 2.217c.353.353.551.831.551 1.33V20H4v-2.137c0-.607.242-1.19.671-1.62a7.23 7.23 0 014.699-2.106 3.591 3.591 0 01-.852-.914z"/><path d="M10.276 13.653l-.146.479h.004l.011.004.04.012a13.874 13.874 0 00.611.163c.356.086.838.187 1.203.187a4.97 4.97 0 001.901-.373l.024-.008a4.624 4.624 0 00.442-.185c.18-.086.41-.21.62-.375l.817.233c2.644 1.538 3.697 3.036 4.043 4.108.176.543.172.98.107 1.275-.034.149-.08.254-.122.318a.348.348 0 01-.037.05 1.494 1.494 0 01-.097.02c-.087.015-.204.03-.35.047-.29.032-.675.063-1.127.093-.903.06-2.054.114-3.211.158-2.317.09-4.635.141-5.008.141-.186 0-.623.017-1.182.038-.613.023-1.372.052-2.11.071-.719.018-1.428.027-1.998.014a10.317 10.317 0 01-.716-.037l-.026-.003c-.208-3.736 2.33-5.195 3.736-6.004.193-.11.365-.21.505-.3l.809-.224c.21.165.44.29.619.375a4.679 4.679 0 00.439.183l.03.01.009.004h.003l.001.001h0l.155-.471-.154.472.01.002.145-.478z" stroke="#111"/><path fill-rule="evenodd" clip-rule="evenodd" d="M12 12a5 5 0 100-10 5 5 0 000 10z"/></g><defs><clipPath id="eclip0_947_21097"><path fill="#fff" d="M0 0h24v24H0z"/></clipPath></defs></svg>