<?xml version="1.0" encoding="utf-8"?><svg width="48" height="48" fill="none" xmlns="http://www.w3.org/2000/svg" viewBox="0 0 48 48"><circle cx="24" cy="24" r="23.5" stroke="#fff"/><mask id="ha" style="mask-type:alpha" maskUnits="userSpaceOnUse" x="0" y="0" width="48" height="48"><circle cx="24" cy="24" r="24" fill="#000"/></mask><g mask="url(#ha)"><path d="M30 24l-6 3-6-3-8 4-2.5 26h33L38 28l-8-4z" fill="#fff"/><path stroke="#56323F" d="M29.5 31.5h6v4h-6z"/><path fill-rule="evenodd" clip-rule="evenodd" d="M24 23a8 8 0 100-16 8 8 0 000 16z" fill="#fff"/><path stroke="#56323F" stroke-width="2" d="M29 31h7"/><path d="M23.667 28L22 39l2 2 2-2-1.667-11h-.666z" fill="#56323F" stroke="#56323F"/><path d="M24 30l2-4-2 .8-2-.8 2 4z" fill="#56323F" stroke="#56323F"/></g></svg>