<?xml version="1.0" encoding="utf-8"?><svg width="56" height="56" fill="inherit" xmlns="http://www.w3.org/2000/svg" viewBox="0 0 56 56"><path d="M56 26.828v2.312c-.152 1.2-.256 2.407-.464 3.591-1.24 7.095-4.728 12.862-10.368 17.318-3.88 3.063-8.304 4.935-13.216 5.615-.928.128-1.864.224-2.8.336H26.84c-1.088-.128-2.184-.2-3.264-.384C16.408 54.392 10.528 50.953 6 45.249 2.92 41.354 1.032 36.922.336 31.995.208 31.083.112 30.171 0 29.26v-2.543c.04-.208.08-.408.112-.616.264-1.672.392-3.376.8-5C4.48 7.047 18.112-1.943 32.392.36c7.248 1.167 13.16 4.71 17.696 10.486 3.032 3.863 4.888 8.247 5.568 13.118.136.952.232 1.912.344 2.864zm-20.048-9.43v-5.624c-.216 0-.408.016-.6 0-2.008-.176-4.016-.288-6.008.128-2.632.56-4.528 2.016-5.048 4.775-.232 1.248-.184 2.552-.24 3.824-.032.784-.008 1.567-.008 2.407h-3.904v5.544h3.928v18.125h6.584V28.436h4.24c.32-1.856.64-3.672.968-5.56h-5.216c0-.976-.088-1.911.024-2.815.152-1.328.608-2.4 2.552-2.496.912-.04 1.808-.112 2.728-.168z"/></svg>