<?xml version="1.0" encoding="utf-8"?><svg width="28" height="28" fill="none" xmlns="http://www.w3.org/2000/svg" viewBox="0 0 28 28"><path d="M4.49 5.729L5.24 5l17.785 17.271-.75.729-3.555-3.452a12.481 12.481 0 01-4.72.919 12.48 12.48 0 01-6.494-1.814A11.984 11.984 0 013 13.764a12.043 12.043 0 014.644-4.97L4.49 5.728zM14 19.436a11.43 11.43 0 003.902-.682l-1.199-1.163a4.887 4.887 0 01-6.082-.546 4.585 4.585 0 01-1.378-2.854 4.539 4.539 0 01.818-3.052L8.419 9.545a11.032 11.032 0 00-4.226 4.22 10.972 10.972 0 004.1 4.146A11.4 11.4 0 0014 19.435zm9.805-5.672a10.972 10.972 0 00-4.098-4.146A11.399 11.399 0 0014 8.093a11.441 11.441 0 00-3.51.547l-.83-.807a12.505 12.505 0 014.34-.77c2.297-.002 4.548.627 6.494 1.813A11.984 11.984 0 0125 13.764a12.025 12.025 0 01-4.32 4.772l-.768-.746a11.018 11.018 0 003.893-4.026zM14 9.124c.838 0 1.66.214 2.387.62.726.406 1.329.99 1.749 1.695.42.704.642 1.503.643 2.316a4.538 4.538 0 01-.634 2.32l-.785-.764c.33-.673.436-1.429.306-2.163a3.575 3.575 0 00-1.035-1.939 3.754 3.754 0 00-1.996-1.004 3.816 3.816 0 00-2.228.297l-.785-.763A4.867 4.867 0 0114 9.124zm-3.716 4.64c0 .642.175 1.271.509 1.824.333.554.813 1.01 1.388 1.324a3.805 3.805 0 003.756-.067l-5.11-4.961a3.515 3.515 0 00-.543 1.88z" fill="#000"/></svg>