<?xml version="1.0" encoding="utf-8"?><svg width="36" height="36" fill="none" xmlns="http://www.w3.org/2000/svg" viewBox="0 0 36 36"><mask id="aua" fill="#fff"><path d="M28.586 3L33 7.414v21.172L28.586 33H7.414L3 28.586V7.414L7.414 3h21.172zM29 2H7L2 7v22l5 5h22l5-5V7l-5-5z"/></mask><path d="M28.586 3l.707-.707L29 2h-.414v1zM33 7.414h1V7l-.293-.293-.707.707zm0 21.172l.707.707L34 29v-.414h-1zM28.586 33v1H29l.293-.293-.707-.707zM7.414 33l-.707.707L7 34h.414v-1zM3 28.586H2V29l.293.293.707-.707zM3 7.414l-.707-.707L2 7v.414h1zM7.414 3V2H7l-.293.293.707.707zM29 2l.707-.707L29.414 1H29v1zM7 2V1h-.414l-.293.293L7 2zM2 7l-.707-.707L1 6.586V7h1zm0 22H1v.414l.293.293L2 29zm5 5l-.707.707.293.293H7v-1zm22 0v1h.414l.293-.293L29 34zm5-5l.707.707.293-.293V29h-1zm0-22h1v-.414l-.293-.293L34 7zm-6.121-3.293l4.414 4.414 1.414-1.414-4.414-4.414-1.414 1.414zM32 7.414v21.172h2V7.414h-2zm.293 20.465l-4.414 4.414 1.414 1.414 4.414-4.414-1.414-1.414zM28.586 32H7.414v2h21.172v-2zm-20.465.293l-4.414-4.414-1.414 1.414 4.414 4.414 1.414-1.414zM4 28.586V7.414H2v21.172h2zM3.707 8.121l4.414-4.414-1.414-1.414-4.414 4.414L3.707 8.12zM7.414 4h21.172V2H7.414v2zM29 1H7v2h22V1zm-22.707.293l-5 5 1.414 1.414 5-5-1.414-1.414zM1 7v22h2V7H1zm.293 22.707l5 5 1.414-1.414-5-5-1.414 1.414zM7 35h22v-2H7v2zm22.707-.293l5-5-1.414-1.414-5 5 1.414 1.414zM35 29V7h-2v22h2zm-.293-22.707l-5-5-1.414 1.414 5 5 1.414-1.414z" fill="#A39D94" mask="url(#aua)"/><path d="M26.877 5.646L26.73 5.5h0l3.046 3.045-2.9-2.899zm3.477 21.23l.146-.146v0l-3.77 3.77h0l.147-.146 3.477-3.477zm-24.708 0l2.9 2.9L5.5 26.73v0l.146.146z" stroke="#A39D94"/><mask id="aub" fill="#fff"><path d="M24.461 9L27 11.539v12.922L24.461 27H11.539L9 24.461V11.593L12.112 9h12.349zm.414-1H11.75L8 11.125v13.75L11.125 28h13.75L28 24.875v-13.75L24.875 8z"/></mask><path d="M24.461 9l.707-.707L24.875 8h-.414v1zM27 11.539h1v-.414l-.293-.293-.707.707zm0 12.922l.707.707.293-.293v-.414h-1zM24.461 27v1h.414l.293-.293-.707-.707zm-12.922 0l-.707.707.293.293h.414v-1zM9 24.461H8v.414l.293.293.707-.707zm0-12.868l-.64-.768-.36.3v.468h1zM12.112 9V8h-.362l-.278.232.64.768zm12.763-1l.707-.707L25.29 7h-.414v1zM11.75 8V7h-.362l-.278.232.64.768zM8 11.125l-.64-.768-.36.3v.468h1zm0 13.75H7v.414l.293.293.707-.707zM11.125 28l-.707.707.293.293h.414v-1zm13.75 0v1h.414l.293-.293-.707-.707zM28 24.875l.707.707.293-.293v-.414h-1zm0-13.75h1v-.414l-.293-.293-.707.707zm-4.246-1.418l2.539 2.54 1.414-1.415-2.539-2.54-1.414 1.415zM26 11.54v12.922h2V11.539h-2zm.293 12.215l-2.54 2.539 1.415 1.414 2.54-2.539-1.415-1.414zM24.46 26H11.539v2h12.922v-2zm-12.215.293l-2.539-2.54-1.414 1.415 2.539 2.54 1.414-1.415zM10 24.46V11.593H8v12.868h2zm-.36-12.1l3.112-2.593-1.28-1.536-3.112 2.593 1.28 1.536zM12.112 10h12.349V8H12.112v2zm12.763-3H11.75v2h13.125V7zm-13.765.232l-3.75 3.125 1.28 1.536 3.75-3.125-1.28-1.536zM7 11.125v13.75h2v-13.75H7zm.293 14.457l3.125 3.125 1.414-1.414-3.125-3.125-1.414 1.414zM11.125 29h13.75v-2h-13.75v2zm14.457-.293l3.125-3.125-1.414-1.414-3.125 3.125 1.414 1.414zM29 24.875v-13.75h-2v13.75h2zm-.293-14.457l-3.125-3.125-1.414 1.414 3.125 3.125 1.414-1.414z" fill="#A39D94" mask="url(#aub)"/><path d="M28.722 2.5l-4.11 6.056M33.528 7.167l-6.06 4.126M7.414 2.5l4.111 6.056M2.608 7.167l6.06 4.126M28.722 33.642l-4-6.086M33.57 28.875l-6.084-4.292M7.347 33.583l3.972-6.055M2.583 28.764l5.973-4.083" stroke="#A39D94" stroke-miterlimit="10"/></svg>