<?xml version="1.0" encoding="utf-8"?><svg width="36" height="36" fill="none" xmlns="http://www.w3.org/2000/svg" viewBox="0 0 36 36"><path d="M33 33H3V3h30v30z" stroke="#A39D94" stroke-width=".938" stroke-miterlimit="10"/><path d="M33 3l-3.75 1.875L18 3 6.75 4.875 3 3M33 33l-1.875-3.75L33 18 31.125 6.75 33 3M3 33l3.75-1.875L18 33l11.25-1.875L33 33M3 3l1.875 3.75L3 18l1.875 11.25L3 33M6.75 31.125l.925-2.825-2.8-21.55 2.812.938L29.25 4.875l-.937 2.813 2.812 21.562-2.812-.95L6.75 31.125zM29.25 31.125H6.75M31.125 6.75v22.5M29.25 4.875H6.75" stroke="#A39D94" stroke-width=".938" stroke-miterlimit="10"/><path d="M4.875 6.75v22.5l2.8-.95 21.575 2.825-.937-2.825 2.812-21.55-2.812.938L6.75 4.875 7.583 7.7 4.875 29.25" stroke="#A39D94" stroke-width=".938" stroke-miterlimit="10"/></svg>