<?xml version="1.0" encoding="utf-8"?><svg width="36" height="36" fill="none" xmlns="http://www.w3.org/2000/svg" viewBox="0 0 36 36"><mask id="axa" fill="#fff"><path d="M27.473 3L33 8.527V27.6l-5.527 5.527H8.527L3 27.6V8.527L8.527 3h18.946zm.414-1H8.113L2 8.113v19.9l6.113 6.113h19.774L34 28.012V8.113L27.887 2z"/></mask><path d="M27.473 3L33 8.527V27.6l-5.527 5.527H8.527L3 27.6V8.527L8.527 3h18.946zm.414-1H8.113L2 8.113v19.9l6.113 6.113h19.774L34 28.012V8.113L27.887 2z" fill="#A39D94"/><path d="M27.473 3l.707-.707L27.887 2h-.414v1zM33 8.527h1v-.414l-.293-.293-.707.707zM33 27.6l.707.707.293-.293V27.6h-1zm-5.527 5.527v1h.414l.293-.293-.707-.707zm-18.946 0l-.707.707.293.293h.414v-1zM3 27.6H2v.414l.293.293L3 27.6zM3 8.527l-.707-.707L2 8.113v.414h1zM8.527 3V2h-.414l-.293.293.707.707zm19.36-1l.707-.707L28.301 1h-.414v1zM8.113 2V1h-.414l-.293.293.707.707zM2 8.113l-.707-.707L1 7.699v.414h1zm0 19.9H1v.414l.293.293.707-.707zm6.113 6.113l-.707.707.293.293h.414v-1zm19.774 0v1h.414l.293-.293-.707-.707zM34 28.012l.707.707.293-.293v-.414h-1zm0-19.899h1v-.414l-.293-.293-.707.707zm-7.234-4.406l5.527 5.527 1.414-1.414-5.527-5.527-1.414 1.414zM32 8.527V27.6h2V8.527h-2zm.293 18.366l-5.527 5.527 1.414 1.414 5.527-5.527-1.414-1.414zm-4.82 5.234H8.527v2h18.946v-2zm-18.239.293l-5.527-5.527-1.414 1.414 5.527 5.527 1.414-1.414zM4 27.6V8.527H2V27.6h2zM3.707 9.234l5.527-5.527L7.82 2.293 2.293 7.82l1.414 1.414zM8.527 4h18.946V2H8.527v2zm19.36-3H8.113v2h19.774V1zm-20.481.293L1.293 7.406 2.707 8.82 8.82 2.707 7.406 1.293zM1 8.113v19.9h2v-19.9H1zm.293 20.607l6.113 6.113L8.82 33.42l-6.113-6.113-1.414 1.414zm6.82 6.406h19.774v-2H8.113v2zm20.481-.293l6.113-6.114-1.414-1.414-6.113 6.114 1.414 1.414zM35 28.012V8.113h-2v19.899h2zm-.293-20.606l-6.113-6.113-1.414 1.414 6.113 6.113 1.414-1.414z" fill="#A39D94" mask="url(#axa)"/><path d="M8.5 2.5L11 11M25 11l2.5-8.5M33.5 8.5L25 11M2.5 8.5L11 11M25 25l8.5 2.5M27.5 33.5L25 25M8.5 33.5L11 25M2.5 27.5L11 25M31 27V9l-4-4H9L5 9v18l4 4h18l4-4zm0 0l-4-9-2-7-7-2-9-4" stroke="#A39D94" stroke-miterlimit="10"/><path d="M27 5l-9 4-7 2-1 7 1 7 7 2 9 4" stroke="#A39D94" stroke-miterlimit="10"/><path d="M31 9l-4 9-2 7-7 2-9 4M5 9l5 9-5 9" stroke="#A39D94" stroke-miterlimit="10"/></svg>