<?xml version="1.0" encoding="utf-8"?><svg width="36" height="36" fill="none" xmlns="http://www.w3.org/2000/svg" viewBox="0 0 36 36"><path d="M26 18c0 10-8 16-8 16s-8-6-8-16 8-16 8-16 8 6 8 16zM24 26l-4 4" stroke="#A39D94" stroke-miterlimit="10"/><path d="M18 2l2 5 2.986 17L24 26" stroke="#A39D94" stroke-miterlimit="10"/><path d="M18 34l1.986-5.014L23 13l1-3-4-4M12.476 27.357L16 30M18 2l-2 5-3.014 17-.876 2.665" stroke="#A39D94" stroke-miterlimit="10"/><path d="M26 18l-3.014 6-2.382 2L18 28l-2.571-2-2.443-2L10 18M10 18l3-5 2-2 3-3 3 3 2 2 3 5M21 5l-3 3-3-3M18 28l-3 2.986M21 30.986L18 28" stroke="#A39D94" stroke-miterlimit="10"/><path d="M16 6l-4 4 1 3 2.986 15.986L18 34" stroke="#A39D94" stroke-miterlimit="10"/></svg>