<?xml version="1.0" encoding="utf-8"?><svg width="36" height="36" fill="none" xmlns="http://www.w3.org/2000/svg" viewBox="0 0 36 36"><path d="M28 23.775C28 29.2 23.98 34 18.003 34S8 29.203 8 23.775C8 16.904 11.947 9.017 17.997 2 24.05 9.02 28 16.907 28 23.775z" stroke="#A39D94"/><path d="M11 13v7l3 9 1 2 3 3M14 7l11.145 13.189L28 24" stroke="#A39D94" stroke-miterlimit="10"/><path d="M22 7L10.834 20.216 8 24" stroke="#A39D94" stroke-miterlimit="10"/><path d="M20 9l5 4v7l-3 9-1 2-3 3M16 9l-5 4v7l3 9 1 2 3 3M25 20l2-2M11 20l-2-2" stroke="#A39D94" stroke-miterlimit="10"/><path d="M28 24.276L25.231 27l-10.165 4-3.885-.166L11 27l7.116-25" stroke="#A39D94" stroke-miterlimit="10"/><path d="M8 24.13L10.891 27l10.078 4 3.874-.166L25 27 17.946 2" stroke="#A39D94" stroke-miterlimit="10"/></svg>