<?xml version="1.0" encoding="utf-8"?><svg width="36" height="36" fill="none" xmlns="http://www.w3.org/2000/svg" viewBox="0 0 36 36"><circle cx="18" cy="18" r="15.5" stroke="#A39D94"/><path stroke="#A39D94" d="M14.15 8.654l13.196 5.497-5.497 13.196L8.653 21.85z"/><path stroke="#A39D94" d="M27.33 21.888l-13.217 5.444-5.444-13.218L21.887 8.67z"/><path d="M18 2.776l4.062 4.817.168.2.26-.024 6.313-.572-.572 6.314-.024.26.2.167L33.224 18l-4.817 4.062-.2.168.024.26.572 6.313-6.314-.572-.26-.024-.167.2L18 33.224l-4.062-4.817-.168-.2-.26.024-6.313.572.572-6.314.024-.26-.2-.167L2.776 18l4.817-4.062.2-.168-.024-.26-.572-6.313 6.314.572.26.024.167-.2L18 2.776zM8.846 21.77L4 23.792m4.828-9.655L4 12.207m10.138-3.38L12.207 4m9.655 4.828L23.793 4m3.38 10.138L32 12.207m-4.828 9.655L32 23.793m-10.138 3.38L23.793 32m-9.655-4.828L12.207 32" stroke="#A39D94"/></svg>