<?xml version="1.0" encoding="utf-8"?><svg width="36" height="36" fill="none" xmlns="http://www.w3.org/2000/svg" viewBox="0 0 36 36"><path d="M21 8l2.677-5.354M23 10l4.432-2.66M15 8l-2.677-5.354M13 10L8.55 7.331M21 28l2.728 5.456M23 26l4.428 2.657" stroke="#A39D94" stroke-miterlimit="10"/><path d="M23.91 2.688l-.15-.188h0l3.74 4.675v0l-.11-.136-3.48-4.351zm0 30.624l.727-.908-.877 1.096h0l.15-.188zm-11.82 0l.15.188h0L8.5 28.825v0l.11.136 3.48 4.351zM8.61 7.04l-.11.137v0L12.24 2.5h0l-.15.188-3.48 4.35z" stroke="#A39D94"/><path clip-rule="evenodd" d="M14 30l-3-3.021V9.021L14 6h8l3 3.021v17.958L22 30h-8z" stroke="#A39D94" stroke-width="1.018" stroke-miterlimit="10"/><path clip-rule="evenodd" d="M15 28l-2-2V10l2-2h6l2 2v16l-2 2h-6z" stroke="#A39D94" stroke-miterlimit="10"/><path d="M15 28l-2.7 5.4M13 26l-4.473 2.684" stroke="#A39D94" stroke-miterlimit="10"/></svg>