<?xml version="1.0" encoding="utf-8"?><svg width="48" height="48" fill="none" xmlns="http://www.w3.org/2000/svg" viewBox="0 0 48 48"><mask id="ja" style="mask-type:alpha" maskUnits="userSpaceOnUse" x="0" y="0" width="48" height="48"><circle cx="24" cy="24" r="24" fill="#000"/></mask><g mask="url(#ja)" stroke="#fff"><rect x="9.5" y="10.5" width="29" height="55" rx="1.5" fill="#56323F"/><path fill="#fff" d="M12.5 14.5h23v46h-23z"/><path stroke-linecap="round" d="M21.5 12.5h5"/></g><circle cx="24" cy="24" r="23.5" stroke="#fff"/><path d="M22 35.5h-6.5v-13h17v13h-6.707l-.147.146L24 37.293l-1.646-1.647-.147-.146H22z" fill="#fff" stroke="#56323F"/><path d="M18.968 29.713l-.54-.897-.536.897-.317-.224.629-.809-.945-.268.136-.316.9.316-.047-1.08h.36l-.044 1.08.9-.316.137.316-.945.268.629.809-.317.224zm2.786 0l-.54-.897-.536.897-.317-.224.629-.809-.945-.268.136-.316.901.316-.048-1.08h.36l-.044 1.08.901-.316.136.316-.945.268.629.809-.317.224zm2.787 0L24 28.816l-.536.897-.316-.224.628-.809-.945-.268.136-.316.901.316-.048-1.08h.36l-.044 1.08.901-.316.136.316-.944.268.628.809-.316.224zm2.786 0l-.54-.897-.537.897-.316-.224.628-.809-.945-.268.136-.316.901.316-.048-1.08h.36l-.044 1.08.901-.316.136.316-.944.268.628.809-.316.224zm2.786 0l-.54-.897-.537.897-.316-.224.628-.809-.945-.268.137-.316.9.316-.048-1.08h.36l-.043 1.08.9-.316.137.316-.945.268.628.809-.316.224z" fill="#56323F"/></svg>