<?xml version="1.0" encoding="utf-8"?><svg width="56" height="56" fill="inherit" xmlns="http://www.w3.org/2000/svg" viewBox="0 0 56 56"><g clip-path="url(#nclip0_269_4082)"><path d="M29.135 55.998h-2.448c-.032-.008-.064-.023-.104-.023-.864-.08-1.736-.129-2.592-.24a25.706 25.706 0 01-4.831-1.136c-4.344-1.464-8.104-3.856-11.288-7.168a27.864 27.864 0 01-4.904-6.96 27.764 27.764 0 01-2.264-6.374 26.672 26.672 0 01-.656-5.344L0 28.025v-.184c.008-.064.024-.128.024-.192.016-.424.016-.84.04-1.264a25.98 25.98 0 01.528-4.088 27.949 27.949 0 012.488-7.055 27.713 27.713 0 015.68-7.567c3.072-2.904 6.624-5.032 10.647-6.328A27.368 27.368 0 0128.383.004c1.72.024 3.424.208 5.112.543 2.392.48 4.68 1.256 6.872 2.336a28.067 28.067 0 017.768 5.664 27.619 27.619 0 015.168 7.423 27.414 27.414 0 012.592 9.487c.111 1.264.127 2.536.08 3.808a26.644 26.644 0 01-.456 3.904 27.408 27.408 0 01-2.632 7.63 27.922 27.922 0 01-8.04 9.552 27.54 27.54 0 01-10.224 4.856 26.51 26.51 0 01-4.616.712c-.288.024-.584.056-.872.08zm-7.632-37.812c.2.08.384.184.584.24.816.224 1.296.776 1.528 1.576.28.984.352 1.992.344 3a26.879 26.879 0 01-.144 2.663c-.048.496-.2.992-.36 1.464-.16.48-.568.696-1.016.592-.208-.048-.408-.168-.6-.28-.488-.296-.8-.768-1.136-1.224-1.68-2.312-3.023-4.823-4.12-7.455-.327-.784-.791-1.104-1.631-1.104H9.76c-.128 0-.264 0-.392.032-.776.184-1.04.552-.72 1.304 1.584 3.695 3.416 7.263 5.552 10.663 1.448 2.312 3.111 4.44 5.192 6.215 1.391 1.184 2.943 2.056 4.703 2.56.992.28 2 .448 3.024.544.912.08 1.832.144 2.752.072.744-.064 1.184-.44 1.328-1.168.04-.208.048-.432.064-.648.04-.424.056-.848.112-1.272.08-.584.28-1.128.632-1.608.464-.631 1.128-.735 1.76-.28.216.16.44.32.632.512.936.944 1.88 1.88 2.784 2.856.832.904 1.816 1.456 3.032 1.616 1.032.136 2.064.048 3.096.064.88.008 1.752.016 2.632.032.664.008 1.264-.304 1.488-.992.152-.464.056-.896-.152-1.328-.296-.616-.72-1.136-1.176-1.632a693.924 693.924 0 00-3.296-3.56c-.368-.391-.776-.751-1.152-1.151-.568-.6-.648-1.176-.288-1.912a4.11 4.11 0 01.36-.6c1.304-1.816 2.616-3.632 3.912-5.456.504-.711 1.048-1.4 1.4-2.207.232-.536.52-1.04.544-1.648.008-.232-.032-.44-.24-.544-.448-.216-.912-.416-1.416-.44a53.566 53.566 0 00-2.272-.04c-1.288 0-2.584.016-3.872.008-.648 0-1.104.272-1.376.856-.152.32-.296.648-.44.968-1.024 2.264-2.088 4.503-3.584 6.503-.408.544-.824 1.064-1.352 1.488-.4.32-.824.288-1.2-.064-.408-.384-.584-.856-.584-1.408 0-2.272 0-4.543.008-6.815 0-.2 0-.4-.008-.6-.048-1.016-.672-1.624-1.688-1.64-1.08-.016-2.16-.024-3.24-.04-.576-.008-1.152-.024-1.728-.024-.512.008-1.032 0-1.544.064-.744.128-1.232.568-1.544 1.248z"/></g><defs><clipPath id="nclip0_269_4082"><path d="M0 0h56v55.998H0z"/></clipPath></defs></svg>