<?xml version="1.0" encoding="utf-8"?><svg width="89" height="78" fill="none" xmlns="http://www.w3.org/2000/svg" viewBox="0 0 89 78"><path d="M83.25 29.999h-47.5A4.748 4.748 0 0031 34.745v27.508A4.748 4.748 0 0035.75 67h47.5A4.748 4.748 0 0088 62.253V34.745a4.748 4.748 0 00-4.75-4.746z" fill="#fff" stroke="#000" stroke-miterlimit="10"/><path d="M88 36.999H31v4h57v-4z" fill="#000"/><path d="M40 26.999h-2v17h2v-17zM40 55.999v-2H22v2h18z" fill="#fff"/><path d="M38.987 12.127H1v28.919h37.987v-28.92z" fill="#fff" stroke="#000" stroke-miterlimit="10"/><path d="M39 40.999H1v14h38v-14z" fill="#fff" stroke="#000" stroke-miterlimit="10"/><path d="M12 40.999c-.546-1.296-.642-2.849-.512-4.25a8.54 8.54 0 0117.005-.058c.14 1.4.044 3.008-.493 4.308" stroke="#000" stroke-miterlimit="10"/><path d="M15.283 28.528l2.377-2.094h4.33l2.368 2.102-4.541 4.494-4.534-4.502z" fill="#000"/><path d="M21.84 26.826l1.938 1.726-3.961 3.921-3.922-3.921 1.945-1.726h4zm.29-.785h-4.62l-.219.197-1.953 1.757-.628.549.597.596 3.921 3.922.55.549.556-.542 3.97-3.921.595-.596-.627-.55-1.945-1.725-.228-.196.032-.04z" fill="#fff"/><path d="M78.832 22.974A38.035 38.035 0 0026.1 5.852" stroke="#A39D94" stroke-miterlimit="10"/><mask id="oa" fill="#fff"><path d="M80.534 19.233l-.753-.228-1.106 3.71-3.616-1.38-.282.73 4.408 1.678 1.35-4.51z"/></mask><path d="M80.534 19.233l-.753-.228-1.106 3.71-3.616-1.38-.282.73 4.408 1.678 1.35-4.51z" fill="#000"/><path d="M80.534 19.233l.958.286.286-.955-.955-.288-.289.957zm-.753-.228l.29-.957-.962-.29-.286.962.958.285zm-1.106 3.71l-.356.935 1.007.384.308-1.033-.959-.286zm-3.616-1.38l.357-.934-.93-.355-.36.928.933.36zm-.282.73l-.933-.362-.363.938.94.358.356-.935zm4.408 1.678l-.356.934 1.006.383.308-1.03-.958-.287zm1.638-5.467l-.753-.228-.578 1.915.753.227.578-1.914zm-2 .444l-1.106 3.71 1.916.571 1.106-3.71-1.916-.571zm.209 3.061l-3.616-1.38-.713 1.868 3.615 1.38.714-1.868zm-4.905-.807l-.283.73 1.865.721.283-.73-1.865-.721zm.294 2.025l4.408 1.678.712-1.869-4.408-1.678-.712 1.869zm5.722 1.03l1.35-4.51-1.917-.573-1.35 4.51 1.917.573z" fill="#A39D94" mask="url(#oa)"/><path d="M14.24 62.232a38.05 38.05 0 0046.89 11.067" stroke="#A39D94" stroke-miterlimit="10"/><mask id="ob" fill="#fff"><path d="M13.37 66.248l.784.062.29-3.859 3.827.573.118-.777-4.66-.698-.36 4.699z"/></mask><path d="M13.37 66.248l.784.062.29-3.859 3.827.573.118-.777-4.66-.698-.36 4.699z" fill="#000"/><path d="M13.37 66.248l-.998-.077-.076.994.993.08.08-.997zm.784.062l-.08.997 1.001.08.076-1.002-.998-.075zm.29-3.859l.148-.989-1.065-.159-.08 1.073.997.075zm3.827.573l-.148.989.988.148.15-.987-.99-.15zm.118-.777l.989.15.15-.99-.99-.149-.149.99zm-4.66-.698l.15-.989-1.064-.159-.082 1.072.997.076zm-.44 5.696l.785.062.16-1.993-.785-.063-.16 1.993zm1.862-.86l.29-3.859-1.995-.15-.29 3.86 1.995.15zm-.855-2.945l3.828.573.295-1.978-3.827-.573-.296 1.978zm4.964-.266l.118-.777-1.978-.3-.117.777 1.977.3zm-.723-1.916l-4.659-.698-.296 1.978 4.659.698.296-1.978zm-5.804.215l-.36 4.698 1.993.153.361-4.698-1.994-.153z" fill="#A39D94" mask="url(#ob)"/></svg>