<?xml version="1.0" encoding="utf-8"?><svg width="97" height="72" fill="none" xmlns="http://www.w3.org/2000/svg" viewBox="0 0 97 72"><g clip-path="url(#qclip0_360_8242)"><path d="M45.683 57.621c13.74 0 24.88-11.139 24.88-24.88 0-13.74-11.14-24.88-24.88-24.88-13.741 0-24.88 11.14-24.88 24.88 0 13.741 11.139 24.88 24.88 24.88z" stroke="#A39D94" stroke-miterlimit="10"/><path d="M45.158 17.166L33.801 5.883 39.354.98h11.661l5.545 4.902-11.402 11.284z" fill="#fff" stroke="#A39D94"/><path d="M31.8 31.918H.749" stroke="#111" stroke-miterlimit="10"/><path d="M28.506 20.826H13.094v1.6h15.412v-1.6z" fill="#111"/><path d="M28.114 21.259v.784H13.485v-.784h14.629zm.784-.784H12.701v2.353h16.197v-2.353z" fill="#fff"/><path d="M18.473 38.162H3.061v1.6h15.412v-1.6z" fill="#111"/><path d="M18.08 38.554v.784H3.422v-.784h14.66zm.785-.785H2.637v2.354h16.228V37.77z" fill="#fff"/><path d="M33.636 30.82H.356v1.6h33.28v-1.6z" fill="#111"/><path d="M33.228 31.212v.785H.748v-.785h32.48zm.784-.784H-.038v2.353h34.05v-2.353zM76.704 71.756a7.662 7.662 0 117.656-7.655 7.67 7.67 0 01-7.656 7.655z" fill="#fff"/><path d="M76.706 56.83a7.27 7.27 0 110 14.54 7.27 7.27 0 010-14.54zm0-.785a8.056 8.056 0 108.047 8.055 8.071 8.071 0 00-8.047-8.055z" fill="#111"/><path d="M20.497 71.756a7.655 7.655 0 100-15.31 7.655 7.655 0 000 15.31z" fill="#fff"/><path d="M20.497 56.83a7.271 7.271 0 11.015 14.542 7.271 7.271 0 01-.015-14.543zm0-.785A8.055 8.055 0 1028.52 64.1a8.063 8.063 0 00-8.055-8.055h.03z" fill="#111"/><path d="M20.498 68.9a4.8 4.8 0 114.8-4.8 4.808 4.808 0 01-4.8 4.8z" fill="#fff"/><path d="M20.497 59.693A4.408 4.408 0 1116.09 64.1a4.399 4.399 0 014.408-4.408zm0-.785a5.192 5.192 0 105.193 5.193 5.2 5.2 0 00-5.193-5.193z" fill="#111"/><path d="M76.705 68.9a4.8 4.8 0 114.8-4.8 4.808 4.808 0 01-4.8 4.8z" fill="#fff"/><path d="M76.704 59.693a4.408 4.408 0 11-.015 8.815 4.408 4.408 0 01.015-8.815zm0-.785a5.192 5.192 0 105.193 5.193 5.2 5.2 0 00-5.193-5.193z" fill="#111"/><path d="M70.563 21.627h16.306l9.57 25.139V64.1h-8.644" stroke="#111" stroke-miterlimit="10"/><path d="M72.579 27.627h10.973l6.502 17.703h-20.11" stroke="#111" stroke-miterlimit="10"/><path d="M31.658 64.006h33.728" stroke="#111"/></g><defs><clipPath id="qclip0_360_8242"><path fill="#fff" d="M0 0h97v72H0z"/></clipPath></defs></svg>