<?xml version="1.0" encoding="utf-8"?><svg width="81" height="82" fill="none" xmlns="http://www.w3.org/2000/svg" viewBox="0 0 81 82"><g clip-path="url(#rclip0_360_8268)" stroke-miterlimit="10"><path d="M21.416 17.037h33.712M21.416 30.073h7.757M21.416 25.728h29.029M21.416 21.383h17.758M40.82 21.383h14.308M30.82 30.073h15.358" stroke="#A39D94"/><path d="M39.926 67c8.285 0 15-6.716 15-15 0-8.284-6.715-15-15-15-8.284 0-15 6.716-15 15 0 8.284 6.716 15 15 15z" stroke="#000"/><path d="M39.926 53.1a1.105 1.105 0 100-2.21 1.105 1.105 0 000 2.21zM48.494 45.213v13.573M41.576 51.283l7.034-6.97 3.317 3.743v7.799l-3.317 3.832-7.034-7.023M41.906 51.728l5.982-3.324M41.906 52.272l5.982 3.315M49.011 48.404l2.513 1.658M49.011 55.587l2.513-1.657M31.36 58.786V45.213M38.277 52.718l-7.034 6.969-3.316-3.743v-7.798l3.316-3.833 7.034 7.023M37.947 52.272l-5.982 3.315M37.947 51.728l-5.982-3.324M30.84 55.587l-2.512-1.657M30.84 48.404l-2.512 1.658M46.72 60.569H33.133M40.64 53.653l6.972 7.032L43.867 64h-7.792l-3.833-3.315 7.025-7.032M40.203 53.983l3.316 5.97M39.65 53.983l-3.316 5.97M43.519 61.077L41.86 63.59M36.334 61.077l1.657 2.513M33.133 43.431H46.72M39.213 50.347l-6.971-7.032L35.986 40h7.792l3.834 3.315-7.026 7.032M39.65 50.017l-3.316-5.971M40.203 50.017l3.316-5.971M36.334 42.914l1.657-2.504M43.519 42.914L41.86 40.41" stroke="#000"/><path d="M12.576 19.841v-8.573a7.012 7.012 0 016.989-6.989h53.94" stroke="#A39D94"/><path d="M66.516 19.841v-8.573a7.012 7.012 0 016.988-6.989v0a7.004 7.004 0 016.981 6.989h-13.97" stroke="#A39D94"/><path d="M66.517 10.66v62.718a7.004 7.004 0 01-6.981 6.989H8.293" stroke="#A39D94"/><path d="M8.293 80.398a7.012 7.012 0 01-6.988-6.989h11.271" stroke="#A39D94"/><path d="M59.528 80.367a6.981 6.981 0 01-6.98-6.958H12.544V10.66" stroke="#A39D94"/></g><defs><clipPath id="rclip0_360_8268"><path fill="#fff" transform="translate(.926)" d="M0 0h80v82H0z"/></clipPath></defs></svg>