<?xml version="1.0" encoding="utf-8"?><svg width="104" height="70" fill="none" xmlns="http://www.w3.org/2000/svg" viewBox="0 0 104 70"><path d="M52.361 59.159c6.828 0 12.362-5.535 12.362-12.362S59.19 34.436 52.362 34.436C45.533 34.435 40 39.97 40 46.796c0 6.827 5.535 12.362 12.361 12.362z" stroke="#111" stroke-miterlimit="10"/><path d="M45.805 33.431l3.247-2.863h6.126l3.231 2.863-6.314 6.252-6.29-6.252z" fill="#fff"/><mask id="pa" fill="#fff"><path d="M55.029 30.784l2.808 2.487-5.742 5.686-5.718-5.686 2.816-2.487h5.836zm.298-.784h-6.424l-.227.196-2.793 2.486-.627.557.596.589 5.718 5.686.549.55.557-.55 5.757-5.686.596-.589-.627-.556-2.816-2.487-.29-.196h.031z"/></mask><path d="M55.029 30.784l2.808 2.487-5.742 5.686-5.718-5.686 2.816-2.487h5.836zm.298-.784h-6.424l-.227.196-2.793 2.486-.627.557.596.589 5.718 5.686.549.55.557-.55 5.757-5.686.596-.589-.627-.556-2.816-2.487-.29-.196h.031z" fill="#000"/><path d="M55.029 30.784l.663-.748-.284-.252h-.379v1zm2.808 2.487l.704.71.758-.751-.799-.708-.663.749zm-5.742 5.686l-.705.71.704.7.705-.7-.703-.71zm-5.718-5.686l-.661-.75-.8.706.756.753.706-.71zm2.816-2.487v-1h-.378l-.283.25.661.75zm-.29-.784v-1h-.371l-.282.243.653.757zm-.227.196l-.653-.757-.006.005-.006.005.665.747zm-2.793 2.486l.664.748h.001l-.665-.748zm-.627.557l-.664-.747-.799.709.76.75.703-.712zm.596.589l.705-.71-.003-.002-.702.712zm5.718 5.686l.707-.707-.002-.002-.705.71zm.549.55l-.707.706.702.703.707-.697-.702-.713zm.557-.55l.702.712-.702-.712zm5.757-5.686l-.702-.712.702.712zm.596-.589l.703.712.76-.75-.799-.71-.664.748zm-.627-.556l.664-.748-.002-.002-.662.75zm-2.816-2.487l.662-.75-.049-.042-.053-.037-.56.83zm-.29-.196v-1h-3.267l2.707 1.829.56-.829zm-.93 1.533l2.808 2.486 1.326-1.497-2.808-2.486-1.326 1.497zm2.767 1.027l-5.741 5.687 1.407 1.42 5.742-5.686-1.408-1.42zm-4.332 5.688l-5.718-5.686-1.41 1.418 5.717 5.687 1.41-1.419zm-5.762-4.228l2.816-2.486-1.323-1.5-2.816 2.487 1.323 1.5zm2.154-2.236h5.836v-2h-5.836v2zM55.327 29h-6.424v2h6.424v-2zm-7.077.243l-.227.196 1.306 1.514.227-.196-1.306-1.514zm-.24.206l-2.792 2.487 1.33 1.493 2.793-2.486-1.33-1.494zm-2.79 2.486l-.628.557 1.328 1.495.627-.557-1.327-1.495zm-.666 2.016l.596.588 1.404-1.423-.596-.588-1.404 1.423zm.593.586l5.718 5.686 1.41-1.418-5.718-5.686-1.41 1.418zm5.716 5.684l.549.55 1.414-1.415-.549-.549-1.414 1.414zm1.958.555l.557-.55-1.404-1.424-.557.55 1.404 1.424zm.558-.55l5.757-5.687-1.406-1.423-5.757 5.687 1.406 1.423zm5.757-5.687l.596-.588-1.405-1.423-.596.588 1.405 1.423zm.557-2.047l-.627-.557-1.328 1.495.627.557 1.328-1.495zm-.63-.56l-2.815-2.485-1.324 1.499 2.816 2.486 1.324-1.5zm-2.917-2.564l-.29-.197-1.12 1.658.29.196 1.12-1.657zM55.296 31h.031v-2h-.031v2z" fill="#111" mask="url(#pa)"/><path d="M52.629 59.824c10.288 0 18.628-8.34 18.628-18.629 0-10.288-8.34-18.629-18.628-18.629C42.34 22.566 34 30.906 34 41.195c0 10.288 8.34 18.629 18.629 18.629z" stroke="#111" stroke-miterlimit="10"/><path d="M43 20.355L47.567 16h8.874L61 20.355 51.98 30 43 20.355z" fill="#fff"/><mask id="pb" fill="#fff"><path d="M56.502 16.784l4.243 3.75-8.628 8.565-8.628-8.565 4.251-3.75h8.762zM56.8 16h-9.413l-.227.196-4.243 3.75-.628.548.596.596 8.628 8.566.55.549.556-.55 8.628-8.565.596-.588-.627-.557-4.189-3.749-.22-.196H56.8z"/></mask><path d="M56.502 16.784l4.243 3.75-8.628 8.565-8.628-8.565 4.251-3.75h8.762zM56.8 16h-9.413l-.227.196-4.243 3.75-.628.548.596.596 8.628 8.566.55.549.556-.55 8.628-8.565.596-.588-.627-.557-4.189-3.749-.22-.196H56.8z" fill="#000"/><path d="M56.502 16.784l.662-.749-.284-.25h-.378v1zm4.243 3.75l.705.71.757-.753-.8-.707-.662.75zm-8.628 8.565l-.704.71.704.699.705-.7-.705-.71zm-8.628-8.565l-.661-.75-.802.706.759.753.704-.71zm4.251-3.75v-1h-.378l-.283.25.661.75zM47.387 16v-1h-.371l-.282.243.653.757zm-.227.196l-.653-.757-.01.008.663.75zm-4.243 3.75l.658.752.004-.003-.662-.75zm-.628.548l-.658-.752-.805.704.756.755.707-.707zm.596.596l-.707.708.003.002.704-.71zm8.628 8.566l.707-.707-.002-.003-.705.71zm.55.549l-.708.707.702.702.707-.697-.702-.712zm.556-.55l.702.713.003-.003-.705-.71zm8.628-8.565l-.702-.711-.002.002.704.71zm.596-.588l.703.712.76-.75-.799-.71-.664.748zm-.627-.557l-.667.745.003.003.664-.748zm-4.189-3.749l.667-.745-.667.745zm-.22-.196l.667-.746-.285-.254h-.381v1zm-.967 1.534l4.243 3.749 1.324-1.499-4.243-3.749-1.324 1.499zm4.2 2.29l-8.627 8.565 1.409 1.42 8.628-8.566-1.41-1.42zm-7.218 8.565l-8.628-8.565-1.41 1.42 8.629 8.564 1.409-1.419zm-8.671-7.105l4.25-3.75-1.322-1.5-4.251 3.75 1.323 1.5zm3.59-3.5h8.76v-2h-8.76v2zM56.8 15h-9.413v2H56.8v-2zm-10.066.243l-.227.196 1.306 1.514.227-.196-1.306-1.514zm-.236.204l-4.244 3.749 1.325 1.499 4.243-3.75-1.324-1.498zm-4.24 3.746l-.627.549 1.317 1.505.627-.55-1.317-1.504zm-.676 2.008l.596.597 1.414-1.415-.596-.596-1.414 1.415zm.599.6l8.628 8.564 1.409-1.419-8.628-8.565-1.41 1.42zm8.625 8.562l.55.549 1.413-1.414-.549-.55-1.414 1.415zm1.958.554l.557-.55-1.404-1.423-.557.549 1.404 1.424zm.56-.552l8.628-8.565-1.41-1.42-8.627 8.566 1.409 1.42zm8.626-8.563l.596-.588-1.405-1.423-.596.588 1.404 1.423zm.557-2.048l-.627-.557-1.328 1.496.627.557 1.328-1.496zm-.624-.554l-4.189-3.749-1.334 1.49 4.189 3.75 1.334-1.49zm-4.19-3.75l-.22-.196-1.331 1.492.22.196 1.331-1.492zm-.885-.45H56.8v2h.008v-2z" fill="#111" mask="url(#pb)"/><path d="M52.798 59.824c14.247 0 25.797-11.55 25.797-25.798 0-14.248-11.55-25.797-25.797-25.797C38.55 8.229 27 19.779 27 34.026c0 14.248 11.55 25.798 25.798 25.798z" stroke="#111" stroke-miterlimit="10"/><path d="M39.746 6.151L46.044.582h12.472l6.298 5.569-12.557 12.432-12.51-12.432z" fill="#fff"/><mask id="pc" fill="#fff"><path d="M58.367.974l5.875 5.192-11.985 11.86-11.938-11.86L46.194.974h12.173zm.298-.785H45.904l-.228.197-5.875 5.192-.627.557.588.588L51.7 18.583l.557.549.549-.541L64.791 6.723l.596-.588-.627-.557L58.885.386l-.22-.197z"/></mask><path d="M58.367.974l5.875 5.192-11.985 11.86-11.938-11.86L46.194.974h12.173zm.298-.785H45.904l-.228.197-5.875 5.192-.627.557.588.588L51.7 18.583l.557.549.549-.541L64.791 6.723l.596-.588-.627-.557L58.885.386l-.22-.197z" fill="#000"/><path d="M58.367.974l.662-.75-.283-.25h-.379v1zm5.875 5.192l.703.711.76-.752-.8-.708-.663.75zm-11.985 11.86l-.705.71.704.698.704-.697-.703-.711zM40.319 6.166l-.662-.749-.8.707.757.752.705-.71zM46.194.974v-1h-.379l-.283.25.662.75zm-.29-.785v-1h-.372l-.281.243.653.757zm-.228.197l-.653-.758-.01.008.663.75zm-5.875 5.192l-.662-.75-.002.002.664.748zm-.627.557l-.664-.748-.794.705.75.75.708-.707zm.588.588l-.707.707.002.003.705-.71zM51.7 18.583l-.705.71.003.002.702-.712zm.557.549l-.702.712.702.692.702-.692-.702-.712zm.549-.541l.702.712.002-.002-.704-.71zM64.791 6.723l-.702-.712-.001.002.703.71zm.596-.588l.703.712.76-.75-.799-.71-.664.748zm-.627-.557l.663-.748-.001-.001-.662.749zM58.885.386l-.666.745.004.004.662-.75zm-1.18 1.337l5.875 5.193 1.324-1.499L59.03.225l-1.324 1.498zm5.834 3.732l-11.985 11.86 1.406 1.422 11.985-11.86-1.406-1.422zM52.962 17.316L41.024 5.456l-1.41 1.42 11.938 11.86 1.41-1.42zm-11.98-10.4l5.874-5.193L45.532.225l-5.875 5.192 1.324 1.499zm5.212-4.942h12.173v-2H46.194v2zM58.665-.811H45.904v2h12.761v-2zm-13.414.243l-.228.196 1.306 1.515.228-.196L45.25-.568zm-.237.204L39.139 4.83l1.325 1.498 5.874-5.192-1.324-1.499zM39.137 4.83l-.627.557 1.328 1.496.627-.557-1.328-1.496zm-.67 2.012l.588.588 1.414-1.414-.588-.588-1.414 1.414zm.59.59l11.938 11.86 1.41-1.419-11.938-11.86-1.41 1.42zm11.941 11.863l.557.549 1.404-1.424-.557-.55-1.404 1.425zm1.961.549l.549-.541-1.404-1.425-.549.542 1.404 1.424zm.55-.543L65.496 7.434l-1.407-1.421L52.102 17.88l1.408 1.421zM65.494 7.435l.597-.588-1.405-1.424-.596.588 1.404 1.424zm.558-2.048l-.627-.557-1.328 1.496.627.557 1.328-1.496zm-.629-.558L59.547-.364l-1.324 1.499 5.874 5.192 1.325-1.498zm-5.871-5.19l-.22-.195L58 .935l.22.196L59.55-.36z" fill="#111" mask="url(#pc)"/><path d="M103 65v5M91 65v5M79 65v5M67 65v5M55 65v5M43 65v5M31 65v5M19 65v5M97 65v5M85 65v5M73 65v5M61 65v5M49 65v5M37 65v5M25 65v5M13 65v5M100 68v2M88 68v2M76 68v2M64 68v2M52 68v2M40 68v2M28 68v2M16 68v2M94 68v2M82 68v2M70 68v2M58 68v2M46 68v2M34 68v2M22 68v2M10 68v2" stroke="#A39D94" stroke-miterlimit="10"/><path fill-rule="evenodd" clip-rule="evenodd" d="M1 69h102v1H1v-1z" fill="#A39D94"/><path d="M1 65v5M7 65v5M4 68v2" stroke="#A39D94" stroke-miterlimit="10"/></svg>