<?xml version="1.0" encoding="utf-8"?><svg width="94" height="65" fill="none" xmlns="http://www.w3.org/2000/svg" viewBox="0 0 94 65"><g clip-path="url(#sclip0_360_8312)"><path d="M25.674 63.703c13.74 0 24.88-11.139 24.88-24.88 0-13.74-11.14-24.88-24.88-24.88-13.74 0-24.88 11.14-24.88 24.88 0 13.741 11.14 24.88 24.88 24.88z" stroke="#A39D94" stroke-miterlimit="10"/><path d="M13.07 11.935l6.094-5.38h12.032l6.087 5.38-12.127 12.009L13.07 11.935z" fill="#fff"/><path d="M31.047 6.955l5.702 4.996-11.593 11.475-11.514-11.475 5.67-4.996h11.766-.031zm.33-.785H19.014l-.228.197-5.663 5.004-.627.557.588.588 11.514 11.436.55.549.556-.55L37.26 12.509l.596-.588-.627-.557-5.664-5.004-.22-.189h.032z" fill="#A39D94"/><path d="M38.059 43.428h-4.832l9.075-24.316h4.252l9.082 24.316h-4.831L49.064 38.4h-9.272l-1.733 5.028zm9.46-9.272l-3.091-8.886-3.09 8.886h6.18z" fill="#000" stroke="#fff" stroke-miterlimit="10"/><path d="M63.621 23.23a3.836 3.836 0 011.922-5.075l7.161-3.459 3.138 7.781-7.365 2.761a3.836 3.836 0 01-4.856-2.008v0zM49.024 29.215l6.997.321M49.322 28.987l2.761-2.831M49.056 27.826l.964-5.106M49.103 28.627l4.063-7.467M49.322 28.987l2.644 2.267M63.731 23.152l-14.409 5.835M72.704 14.688l3.075-7.106L92.313.405M75.936 22.344l7.294 1.6 9.868-3.859" stroke="#000" stroke-miterlimit="10"/></g><defs><clipPath id="sclip0_360_8312"><path fill="#fff" d="M0 0h94v65H0z"/></clipPath></defs></svg>