<svg width="249" height="65" id="Layer_1" data-name="Layer 1" xmlns="http://www.w3.org/2000/svg"
    viewBox="0 0 470.86 155.96">
    <defs>
        <style>
            .cls-1 {
                fill: #1d1d1b;
            }

            .cls-2 {
                fill: #cdaa77;
            }
        </style>
    </defs>
    <path class="cls-1"
        d="M17.87,115.29a9,9,0,0,0,2.37-1.86,4,4,0,0,0,1-2.85,4.21,4.21,0,0,0-.69-2.26,6.87,6.87,0,0,0-2-2,10.7,10.7,0,0,0-3-1.38,13.15,13.15,0,0,0-3.74-.52H0v21.77H3v-9.5h7.25l.19.23,7.77,9.27h3.12L14,117.55l-.67-.8,1-.22A13.14,13.14,0,0,0,17.87,115.29Zm-6.06.1H3v-9.65h8.82a8.08,8.08,0,0,1,2.41.36,7.79,7.79,0,0,1,2,1,5.09,5.09,0,0,1,1.44,1.53,3.78,3.78,0,0,1,.56,2,3.74,3.74,0,0,1-.56,2,5.06,5.06,0,0,1-1.44,1.52,7.5,7.5,0,0,1-2,1A8.31,8.31,0,0,1,11.81,115.39Z">
    </path>
    <path class="cls-1"
        d="M48.61,121.76a5.73,5.73,0,0,0,.81-3V104.44h-3v14.34A5.4,5.4,0,0,1,44,123.46a10.58,10.58,0,0,1-6.13,1.63,10.52,10.52,0,0,1-6.13-1.64,5.45,5.45,0,0,1-2.43-4.67V104.44h-3v14.34a5.71,5.71,0,0,0,.81,3,7.84,7.84,0,0,0,2.34,2.4,12.36,12.36,0,0,0,3.65,1.63,19.46,19.46,0,0,0,9.51,0,12.31,12.31,0,0,0,3.66-1.63A7.58,7.58,0,0,0,48.61,121.76Z">
    </path>
    <polygon class="cls-1"
        points="124.63 104.44 121.51 104.44 109.29 115.13 122.56 126.21 125.63 126.21 112.69 115.63 112.11 115.16 112.68 114.67 124.63 104.44">
    </polygon>
    <polygon class="cls-1" points="107.7 126.21 107.7 115.14 107.7 104.44 104.72 104.44 104.72 126.21 107.7 126.21">
    </polygon>
    <rect class="cls-1" x="129.37" y="104.44" width="2.38" height="21.77"></rect>
    <polygon class="cls-1"
        points="146.52 126.21 149.51 126.21 149.51 117.87 149.51 117.66 149.64 117.5 159.48 104.44 156.52 104.44 148.52 115.14 148.02 115.81 147.52 115.14 139.51 104.44 136.55 104.44 146.4 117.5 146.52 117.66 146.52 117.87 146.52 126.21">
    </polygon>
    <polygon class="cls-1"
        points="163.61 126.21 184.07 126.21 184.07 124.91 167.23 124.91 166.6 124.91 166.6 124.28 166.6 116.23 166.6 115.61 167.23 115.61 182.21 115.61 182.21 114.31 167.23 114.31 166.6 114.31 166.6 113.68 166.6 106.36 166.6 105.74 167.23 105.74 183.53 105.74 183.53 104.44 163.61 104.44 163.61 126.21">
    </polygon>
    <path class="cls-1"
        d="M222.47,118a9.43,9.43,0,0,0-3.08-1.85,25,25,0,0,0-4.17-1.17c-1.61-.33-3-.65-4.3-1a13.76,13.76,0,0,1-3.44-1.39,3.08,3.08,0,0,1-1.62-2.75,3,3,0,0,1,.59-1.72,4.94,4.94,0,0,1,1.54-1.34,8.45,8.45,0,0,1,2.25-.89,11.81,11.81,0,0,1,2.86-.33h10.48v-1.3H213.1a16.36,16.36,0,0,0-4.21.51,12.13,12.13,0,0,0-3.27,1.33,6.79,6.79,0,0,0-2.07,1.82,3.24,3.24,0,0,0-.68,1.92,3.61,3.61,0,0,0,1.13,2.82,9.72,9.72,0,0,0,3.08,1.85,25.72,25.72,0,0,0,4.15,1.17c1.64.33,3.05.65,4.31,1a13.54,13.54,0,0,1,3.43,1.37,3.09,3.09,0,0,1,1.63,2.75,3.63,3.63,0,0,1-2,3.13,10.57,10.57,0,0,1-5.45,1.16H202.87v1.3H213.1a19.2,19.2,0,0,0,4.5-.49,12.31,12.31,0,0,0,3.33-1.3,6.27,6.27,0,0,0,2-1.78,3.52,3.52,0,0,0,.66-2A3.6,3.6,0,0,0,222.47,118Z">
    </path>
    <path class="cls-1"
        d="M73.84,118a9.33,9.33,0,0,0-3.08-1.85A25.13,25.13,0,0,0,66.6,115c-1.62-.33-3-.65-4.31-1a13.92,13.92,0,0,1-3.44-1.39,3.08,3.08,0,0,1-1.62-2.75,3,3,0,0,1,.59-1.72,4.94,4.94,0,0,1,1.54-1.34,8.45,8.45,0,0,1,2.25-.89,11.93,11.93,0,0,1,2.86-.33H75v-1.3H64.47a16.41,16.41,0,0,0-4.21.51A12.13,12.13,0,0,0,57,106.1a6.91,6.91,0,0,0-2.07,1.82,3.24,3.24,0,0,0-.68,1.92,3.61,3.61,0,0,0,1.13,2.82,9.72,9.72,0,0,0,3.08,1.85,25.72,25.72,0,0,0,4.15,1.17c1.64.33,3.05.65,4.31,1a13.62,13.62,0,0,1,3.44,1.37A3.1,3.1,0,0,1,72,120.8a3.63,3.63,0,0,1-2,3.13,10.61,10.61,0,0,1-5.46,1.16H54.24v1.3H64.47a19.14,19.14,0,0,0,4.5-.49,12.25,12.25,0,0,0,3.34-1.3,6.38,6.38,0,0,0,2-1.78,3.51,3.51,0,0,0,.65-2A3.6,3.6,0,0,0,73.84,118Z">
    </path>
    <path class="cls-1"
        d="M98.77,118a9.33,9.33,0,0,0-3.08-1.85A25.13,25.13,0,0,0,91.53,115c-1.62-.33-3-.65-4.3-1a14,14,0,0,1-3.45-1.39,3.08,3.08,0,0,1-1.62-2.75,2.9,2.9,0,0,1,.6-1.72,4.79,4.79,0,0,1,1.53-1.34,8.66,8.66,0,0,1,2.26-.89,11.79,11.79,0,0,1,2.85-.33H99.89v-1.3H89.4a16.47,16.47,0,0,0-4.21.51,12.13,12.13,0,0,0-3.27,1.33,6.74,6.74,0,0,0-2.06,1.82,3.25,3.25,0,0,0-.69,1.92,3.61,3.61,0,0,0,1.13,2.82,9.77,9.77,0,0,0,3.09,1.85,25.59,25.59,0,0,0,4.14,1.17c1.64.33,3,.65,4.31,1a13.47,13.47,0,0,1,3.44,1.37,3.1,3.1,0,0,1,1.62,2.75,3.61,3.61,0,0,1-2,3.13,10.61,10.61,0,0,1-5.46,1.16H79.17v1.3H89.4a19.29,19.29,0,0,0,4.51-.49,12.31,12.31,0,0,0,3.33-1.3,6.38,6.38,0,0,0,2-1.78,3.51,3.51,0,0,0,.65-2A3.57,3.57,0,0,0,98.77,118Z">
    </path>
    <path class="cls-1"
        d="M368.14,122.82a3.51,3.51,0,0,0,.65-2,3.57,3.57,0,0,0-1.12-2.81,9.33,9.33,0,0,0-3.08-1.85,25.13,25.13,0,0,0-4.16-1.17c-1.62-.33-3-.65-4.3-1a13.76,13.76,0,0,1-3.44-1.39,3.07,3.07,0,0,1-1.63-2.75,2.9,2.9,0,0,1,.6-1.72,4.83,4.83,0,0,1,1.54-1.34,8.45,8.45,0,0,1,2.25-.89,11.79,11.79,0,0,1,2.85-.33h10.49v-1.3H358.3a16.33,16.33,0,0,0-4.2.51,12.07,12.07,0,0,0-3.28,1.33,6.74,6.74,0,0,0-2.06,1.82,3.25,3.25,0,0,0-.69,1.92,3.61,3.61,0,0,0,1.13,2.82,9.77,9.77,0,0,0,3.09,1.85,25.59,25.59,0,0,0,4.14,1.17c1.64.33,3.05.65,4.31,1a13.47,13.47,0,0,1,3.44,1.37,3.1,3.1,0,0,1,1.62,2.75,3.61,3.61,0,0,1-2,3.13,10.61,10.61,0,0,1-5.46,1.16H348.07v1.3H358.3a19.23,19.23,0,0,0,4.51-.49,12.31,12.31,0,0,0,3.33-1.3A6.38,6.38,0,0,0,368.14,122.82Z">
    </path>
    <path class="cls-1"
        d="M254.09,126.21l-12-21.77h-3l-12,21.77h3.07l3-5.34.18-.32h14.48l.18.32,3,5.34Zm-7.93-7H234l.51-.93,5.56-10,.55-1,.55,1,5.55,10,.52.93Z">
    </path>
    <polygon class="cls-1"
        points="285.04 126.21 288.03 126.21 288.03 104.44 285.55 104.44 273.28 122.62 272.76 123.39 272.24 122.62 259.99 104.44 257.51 104.44 257.51 126.21 260.5 126.21 260.5 111.31 260.5 109.23 261.65 110.96 271.78 126.21 273.74 126.21 283.89 110.96 285.04 109.24 285.04 111.31 285.04 126.21">
    </polygon>
    <path class="cls-1"
        d="M320.37,119.6a8,8,0,0,0,1.21-4.28,8.14,8.14,0,0,0-1.21-4.26,12.5,12.5,0,0,0-3.27-3.55,16.53,16.53,0,0,0-4.79-2.39,19.45,19.45,0,0,0-11.44,0,16.28,16.28,0,0,0-4.79,2.39,12.39,12.39,0,0,0-3.28,3.55,8.22,8.22,0,0,0-1.2,4.26,8.09,8.09,0,0,0,1.2,4.28,12.63,12.63,0,0,0,3.28,3.54,16.28,16.28,0,0,0,4.79,2.39,19.45,19.45,0,0,0,11.44,0,16.53,16.53,0,0,0,4.79-2.39A12.44,12.44,0,0,0,320.37,119.6Zm-2.82-.32a10.48,10.48,0,0,1-2.7,3.09,12.47,12.47,0,0,1-3.83,2,14.21,14.21,0,0,1-8.87,0,12.75,12.75,0,0,1-3.84-2,10.16,10.16,0,0,1-2.7-3.08,8.22,8.22,0,0,1,0-7.93,10.2,10.2,0,0,1,2.7-3.09,12.86,12.86,0,0,1,3.84-2,14.21,14.21,0,0,1,8.87,0,12.46,12.46,0,0,1,3.83,2,10.34,10.34,0,0,1,2.7,3.09,7.86,7.86,0,0,1,1,4A7.94,7.94,0,0,1,317.55,119.28Z">
    </path>
    <polygon class="cls-1"
        points="331.96 126.21 334.94 126.21 334.94 106.36 334.94 105.74 335.57 105.74 345 105.74 345 104.44 321.9 104.44 321.9 105.74 331.33 105.74 331.96 105.74 331.96 106.36 331.96 126.21">
    </polygon>
    <polygon class="cls-1"
        points="383.12 123.98 382.57 122.91 372.98 104.44 369.87 104.44 381.41 126.21 384.87 126.21 396.38 104.44 393.3 104.44 383.68 122.91 383.12 123.98">
    </polygon>
    <polygon class="cls-1"
        points="400.3 126.21 420.76 126.21 420.76 124.91 403.91 124.91 403.29 124.91 403.29 124.28 403.29 116.23 403.29 115.61 403.91 115.61 418.9 115.61 418.9 114.31 403.91 114.31 403.29 114.31 403.29 113.68 403.29 106.36 403.29 105.74 403.91 105.74 420.22 105.74 420.22 104.44 400.3 104.44 400.3 126.21">
    </polygon>
    <polygon class="cls-1"
        points="431.73 126.21 434.71 126.21 434.71 106.36 434.71 105.74 435.34 105.74 444.77 105.74 444.77 104.44 421.67 104.44 421.67 105.74 431.1 105.74 431.73 105.74 431.73 106.36 431.73 126.21">
    </polygon>
    <polygon class="cls-1"
        points="457.91 126.21 460.9 126.21 460.9 117.87 460.9 117.66 461.02 117.5 470.87 104.44 467.91 104.44 459.9 115.14 459.4 115.81 458.9 115.14 450.89 104.44 447.94 104.44 457.78 117.5 457.91 117.66 457.91 117.87 457.91 126.21">
    </polygon>
    <path class="cls-2" d="M264.84,25.79l0-10.44L241.06,38.91Zm-.72-.43L245.28,35.75,264.15,17.1Z"></path>
    <path class="cls-2" d="M264.68,67.39l0-10.44L241.06,43.67ZM264,65.64l-18.7-18.78L264,57.38Z"></path>
    <path class="cls-2" d="M265.73,27.31V55h.1l6.44-8.41,4.46-5.4-11-13.89Zm.73,2.06L275.8,41.2l-4.1,5-5.24,6.74Z">
    </path>
    <path class="cls-2" d="M276.73,54.12V42.92L266.65,55.67ZM276,53.5l-7.64,1.17L276,45Z"></path>
    <path class="cls-2" d="M265.81,56.78V67l.15-.07L276.43,55.1l-10.51,1.56Zm.73.52,8-1.19-8,9.07Z"></path>
    <path class="cls-2" d="M266.65,26.77l10.08,12.75V28.33ZM276,37.44l-7.64-9.67L276,29Z"></path>
    <path class="cls-2" d="M276.43,27.36,266,15.53l-.15-.07V25.68l.11.13Zm-9.89-10.08,8,9.07-8-1.18Z"></path>
    <path class="cls-2" d="M206,57l0,10.44,23.92-23.6Zm.73.43L225.62,47,206.68,65.65Z"></path>
    <path class="cls-2" d="M206.15,15.35l0,10.44,23.75,13.34Zm.71,1.75,18.79,18.83L206.83,25.37Z"></path>
    <path class="cls-2" d="M194.13,41.46l11,13.82V27.56h0Zm10.29,11.75-9.36-11.75,9.36-11.84Z"></path>
    <path class="cls-2" d="M194.13,43.17v11.2l10.1,1.55Zm.73,2.09,7.65,9.66-7.65-1.17Z"></path>
    <path class="cls-2" d="M194.46,55.35l10.47,11.83.14.07V57l-.1-.12Zm9.88,10.08-8-9.07,8,1.19Z"></path>
    <path class="cls-2" d="M194.13,28.58V39.77L204.23,27Zm.73.62L202.51,28l-7.65,9.67Z"></path>
    <path class="cls-2" d="M205.07,25.93V15.71l-.14.07L194.46,27.61,205,26.06Zm-.73-.51-8,1.18,8-9.07Z"></path>
    <path class="cls-2" d="M237.78,35.82,261.56,12.1l-10.43,0Zm22-23L241,31.61l10.57-18.82Z"></path>
    <path class="cls-2" d="M219.78,12.06l-10.44,0,23.79,23.72Zm-.42.73,10.57,18.82L211.09,12.82Z"></path>
    <path class="cls-2" d="M249.36,11v0L235.46,0,221.65,11ZM235.47,1l11.83,9.33H223.72Z"></path>
    <path class="cls-2" d="M233.75,0,222.56,0,221,10.1Zm-10.57.7,8.49,0L222,8.39Z"></path>
    <path class="cls-2" d="M220,10.83,221.57.32,209.74,10.8l-.06.14H219.9Zm-8.52-.62,9.06-8-1.18,8Z"></path>
    <path class="cls-2" d="M248.35,0l-11.2,0L249.9,10.1Zm-.62.73,1.18,7.66L239.23.75Z"></path>
    <path class="cls-2" d="M251,10.94h10.22l-.06-.14L249.32.32l1.55,10.51Zm8.4-.73h-7.88l-1.19-8Z"></path>
    <path class="cls-2" d="M251.13,70.81l10.43,0L237.88,46.79Zm.43-.72-10.5-19,18.77,19.07Z"></path>
    <path class="cls-2" d="M233.3,46.93,209.53,70.65l10.44,0Zm-22,23,18.84-18.78L219.54,70Z"></path>
    <path class="cls-2" d="M221.78,71.69v0l13.89,11,13.82-11Zm13.89,10.1-11.84-9.38h23.59Z"></path>
    <path class="cls-2" d="M237.38,82.71h11.2l1.55-10.09ZM248,82h-8.49l9.67-7.67Z"></path>
    <path class="cls-2" d="M251.12,71.87l-1.55,10.51L261.4,71.91l.06-.14H251.24Zm8.52.62-9.07,8,1.19-8Z"></path>
    <path class="cls-2" d="M222.79,82.7H234l-12.75-10.1Zm.62-.72-1.18-7.66L231.9,82Z"></path>
    <path class="cls-2" d="M220.15,71.77H209.93l.06.14,11.83,10.47-1.55-10.51Zm-8.4.72h7.88l1.18,8Z"></path>
    <path class="cls-2"
        d="M236.49,36.39l13.1-24.33L221.5,12l12.91,24.43a5.1,5.1,0,0,0-4,4L206.1,27.33,206,55.42l24.48-12.94a5.08,5.08,0,0,0,4.12,3.9L221.5,70.69l28.09.11L236.65,46.31a5.09,5.09,0,0,0,3.78-4l24.3,13.08.11-28.09L240.39,40.24A5.1,5.1,0,0,0,236.49,36.39Zm-1.31-.1L222.71,12.68l25.67.1L235.72,36.29h-.54ZM206.72,54.21l.1-25.67L230.35,41.2a1,1,0,0,0,0,.17c0,.13,0,.24,0,.36Zm29.18-7.76,12.48,23.62L222.71,70l12.66-23.5h.07Zm.4-.79h0a4.91,4.91,0,0,1-.86.08c-.17,0-.32,0-.48,0h0a4.36,4.36,0,1,1,4.77-5.11h0a5.11,5.11,0,0,1,.05.55,1.81,1.81,0,0,1,0,.23,5.8,5.8,0,0,1-.06.6h0A4.38,4.38,0,0,1,236.3,45.66ZM240.51,41l23.6-12.47L264,54.21,240.52,41.57a1.34,1.34,0,0,0,0-.2h0A2.36,2.36,0,0,0,240.51,41Z">
    </path>
    <path class="cls-2"
        d="M235.44,38a3.42,3.42,0,1,0,3.41,3.42A3.42,3.42,0,0,0,235.44,38Zm0,6.12a2.7,2.7,0,1,1,2.69-2.7A2.7,2.7,0,0,1,235.44,44.07Z">
    </path>
    <path class="cls-1" d="M220.26,144.35V156h-1.82V146l-3.35.79-.44-1.18,4.94-1.23Z"></path>
    <path class="cls-1"
        d="M231.82,144.67a4.61,4.61,0,0,1,1.9,1.41,3.13,3.13,0,0,1,.7,2,3.06,3.06,0,0,1-.27,1.28,4.64,4.64,0,0,1-.63,1c-.24.3-.65.76-1.22,1.39L228.48,156h-2.14l3.91-4.26a4.62,4.62,0,0,1-1.3.16,6.21,6.21,0,0,1-2.48-.5,4.62,4.62,0,0,1-1.84-1.37,3,3,0,0,1-.69-1.93,3.12,3.12,0,0,1,.71-2,4.71,4.71,0,0,1,1.91-1.41,7,7,0,0,1,5.26,0Zm-2.62,6a4.34,4.34,0,0,0,1.75-.35,3,3,0,0,0,1.23-1,2.24,2.24,0,0,0,0-2.69,2.83,2.83,0,0,0-1.23-.95,4.67,4.67,0,0,0-3.5,0,2.93,2.93,0,0,0-1.26.95,2.2,2.2,0,0,0,0,2.69,3.11,3.11,0,0,0,1.26,1A4.37,4.37,0,0,0,229.2,150.7Z">
    </path>
    <path class="cls-1" d="M241.92,144.35V156H240.1V146l-3.35.79-.44-1.18,4.93-1.23Z"></path>
    <path class="cls-1"
        d="M256.22,154.73V156H245.53v-.35l5.47-4.4a15.73,15.73,0,0,0,2.05-1.87,2.45,2.45,0,0,0,.65-1.59,2.09,2.09,0,0,0-.8-1.65,3.27,3.27,0,0,0-2.16-.68,3.35,3.35,0,0,0-2.23.71,2.13,2.13,0,0,0-.84,1.69,3.48,3.48,0,0,0,.14,1H246a3,3,0,0,1-.17-1,2.91,2.91,0,0,1,.61-1.75,4.26,4.26,0,0,1,1.73-1.34,6.35,6.35,0,0,1,2.62-.51,6.45,6.45,0,0,1,2.51.46,4.3,4.3,0,0,1,1.72,1.27,2.86,2.86,0,0,1,.62,1.79,2.92,2.92,0,0,1-.45,1.54,6.1,6.1,0,0,1-1.08,1.36c-.43.41-1,.89-1.69,1.44l-3.4,2.71Z">
    </path>
</svg>