<?xml version="1.0" encoding="utf-8"?><svg viewBox="0 0 580 83" xmlns="http://www.w3.org/2000/svg" xmlns:xlink="http://www.w3.org/1999/xlink"><style>:root>svg{display:none}:root>svg:target{display:block}</style><svg fill="inherit" viewBox="0 0 11 20" id="arrow" xmlns="http://www.w3.org/2000/svg"><path d="M9.778 0L0 10l9.778 10L11 18.75 2.444 10 11 1.25 9.778 0z"/></svg><svg fill="inherit" viewBox="0 0 25 24" id="close-filters" xmlns="http://www.w3.org/2000/svg"><path d="M5.5 4l15 15-1 1-15-15 1-1z"/><path d="M20.5 5l-15 15-1-1 15-15 1 1z"/></svg><svg fill="none" viewBox="0 0 48 48" id="consultation" xmlns="http://www.w3.org/2000/svg"><circle cx="24" cy="24" r="23.5" stroke="#fff"/><mask id="ca" style="mask-type:alpha" maskUnits="userSpaceOnUse" x="0" y="0" width="48" height="48"><circle cx="24" cy="24" r="24" fill="#000"/></mask><g mask="url(#ca)"><path d="M30 24l-6 3-6-3-8 4-2.5 26h33L38 28l-8-4z" fill="#fff"/><path stroke="#56323F" d="M29.5 31.5h6v4h-6z"/><path fill-rule="evenodd" clip-rule="evenodd" d="M24 23a8 8 0 100-16 8 8 0 000 16z" fill="#fff"/><path stroke="#56323F" stroke-width="2" d="M29 31h7"/><path d="M23.667 28L22 39l2 2 2-2-1.667-11h-.666z" fill="#56323F" stroke="#56323F"/><path d="M24 30l2-4-2 .8-2-.8 2 4z" fill="#56323F" stroke="#56323F"/></g></svg><svg fill="inherit" viewBox="0 0 56 56" id="facebook" xmlns="http://www.w3.org/2000/svg"><path d="M56 26.828v2.312c-.152 1.2-.256 2.407-.464 3.591-1.24 7.095-4.728 12.862-10.368 17.318-3.88 3.063-8.304 4.935-13.216 5.615-.928.128-1.864.224-2.8.336H26.84c-1.088-.128-2.184-.2-3.264-.384C16.408 54.392 10.528 50.953 6 45.249 2.92 41.354 1.032 36.922.336 31.995.208 31.083.112 30.171 0 29.26v-2.543c.04-.208.08-.408.112-.616.264-1.672.392-3.376.8-5C4.48 7.047 18.112-1.943 32.392.36c7.248 1.167 13.16 4.71 17.696 10.486 3.032 3.863 4.888 8.247 5.568 13.118.136.952.232 1.912.344 2.864zm-20.048-9.43v-5.624c-.216 0-.408.016-.6 0-2.008-.176-4.016-.288-6.008.128-2.632.56-4.528 2.016-5.048 4.775-.232 1.248-.184 2.552-.24 3.824-.032.784-.008 1.567-.008 2.407h-3.904v5.544h3.928v18.125h6.584V28.436h4.24c.32-1.856.64-3.672.968-5.56h-5.216c0-.976-.088-1.911.024-2.815.152-1.328.608-2.4 2.552-2.496.912-.04 1.808-.112 2.728-.168z"/></svg><svg fill="inherit" viewBox="0 0 56 56" id="instagram" xmlns="http://www.w3.org/2000/svg"><path d="M56 26.054v3.88c-.04.104-.112.2-.12.304-.08 1.976-.504 3.897-1.064 5.785-.904 3.032-2.304 5.824-4.143 8.4a27.542 27.542 0 01-5.832 5.937 27.375 27.375 0 01-5.51 3.24c-2.505 1.096-5.096 1.84-7.816 2.16-.608.072-1.216.16-1.832.24h-3.391c-.752-.08-1.512-.128-2.256-.256-2.216-.368-4.383-.904-6.471-1.744a28.304 28.304 0 01-7.047-4.12 27.18 27.18 0 01-4.832-4.945 28.148 28.148 0 01-3.975-7.264c-1-2.712-1.584-5.505-1.696-8.377-.064-1.6.088-3.208.224-4.808.2-2.392.864-4.672 1.752-6.889 1.016-2.552 2.4-4.896 4.12-7.056a27.077 27.077 0 014.847-4.768 27.754 27.754 0 015.703-3.36C19.925.972 23.341.195 26.884.027c2.711-.128 5.399.184 8.03.848A27.64 27.64 0 0146.49 6.973a27.254 27.254 0 015.336 6.336c2.111 3.464 3.455 7.185 3.935 11.217.064.496.16 1.008.24 1.528zm-14.062 1.912c0-2.784.016-5.576-.008-8.36-.008-1.473-.568-2.745-1.576-3.833-1.296-1.392-2.928-1.96-4.783-1.968-4.688-.008-9.375-.008-14.055 0-.76 0-1.527.048-2.287.12-2.8.264-5.176 2.88-5.176 5.672 0 5.529.008 11.065-.008 16.594 0 .904.208 1.744.64 2.512 1.168 2.096 2.984 3.184 5.376 3.2 5.207.024 10.422.008 15.63 0 .415 0 .831-.064 1.247-.112 2.688-.304 5.072-2.88 5-5.792-.048-2.657 0-5.345 0-8.033z"/><path d="M16.485 27.934c0-2.744.032-5.488-.008-8.233-.032-1.808 1.544-3.432 3.352-3.448 5.447-.04 10.902-.04 16.358 0 1.807.016 3.351 1.608 3.343 3.392a1912.03 1912.03 0 00.008 16.594c.008 1.608-1.464 3.24-3.2 3.248-5.55.04-11.102.04-16.653 0-1.728-.008-3.216-1.64-3.192-3.257.016-2.768-.008-5.528-.008-8.296zm4.24-.008c-.009 3.912 3.255 7.072 6.847 7.24 4.615.224 7.599-3.536 7.695-6.936.128-4.56-3.4-7.625-7.303-7.593-4 .024-7.223 3.137-7.24 7.289zm16.741-7.64c.016-.92-.727-1.729-1.607-1.753-.824-.024-1.792.912-1.776 1.704.024.937.752 1.673 1.672 1.689 1.023.024 1.695-.624 1.711-1.64z"/><path d="M23.148 27.95c-.192-2.64 2.24-4.928 4.823-4.936 2.68-.008 4.952 2.344 4.904 4.896-.056 2.856-2.272 4.912-4.887 4.904-2.624 0-4.896-2.048-4.84-4.864z"/></svg><svg fill="none" viewBox="0 0 48 48" id="instruction" xmlns="http://www.w3.org/2000/svg"><mask id="fa" style="mask-type:alpha" maskUnits="userSpaceOnUse" x="0" y="0" width="48" height="48"><circle cx="24" cy="24" r="24" fill="#000"/></mask><g mask="url(#fa)"><path d="M7 9l13.75 6.417V42L7 35.583V9z" fill="#fff"/><path d="M34 35.265V9.785l-12.75 5.95v25.48L34 35.265z" stroke="#fff"/><path d="M34.5 9l13.75 6.417V42L34.5 35.583V9z" fill="#fff"/></g><circle cx="24" cy="24" r="23.5" stroke="#fff"/></svg><svg fill="inherit" viewBox="0 0 18 18" id="location" xmlns="http://www.w3.org/2000/svg"><path d="M8.625 5.25a1.875 1.875 0 110 3.75 1.875 1.875 0 010-3.75zm0 .75a1.125 1.125 0 100 2.25 1.125 1.125 0 000-2.25zM5.1 9.268l3.525 5.797 3.525-5.797a4.124 4.124 0 10-7.05 0zm7.69.39l-4.165 6.851L4.46 9.658a4.875 4.875 0 118.332 0h-.001z"/></svg><svg fill="none" viewBox="0 0 580 83" id="logo2" xmlns="http://www.w3.org/2000/svg"><path d="M71.052 25.877l.04-10.475-23.935 23.64 23.895-13.165zm-.723-.431L51.398 35.87l18.961-18.713-.03 8.288zM70.891 67.618l.04-10.475-23.774-13.325 23.734 23.8zm-.723-1.756L51.378 47.02l18.83 10.555-.04 8.288zM71.947 27.402v27.814l.1-.01 6.471-8.428L83 41.359 71.967 27.412l-.02-.01zm.733 2.067l9.396 11.87-4.12 4.987L72.69 53.1v-23.63h-.01zM83 54.303V43.065L72.87 55.86 83 54.303zm-.724-.622L74.6 54.865l7.677-9.703v8.52zM72.027 56.972v10.255l.141-.07 10.53-11.87-10.56 1.555-.11.13zm.734.522L80.83 56.3l-8.07 9.1v-7.906zM72.871 26.86L83 39.655V28.416L72.87 26.861zm9.405 10.707L74.6 27.864l7.677 1.184v8.519zM82.699 27.453l-10.531-11.87-.14-.07v10.254l.1.12 10.57 1.566zM72.76 17.337l8.069 9.101-8.07-1.194v-7.907zM11.907 57.143l-.04 10.475 24.036-23.68-23.996 13.205zm.734.431L31.642 47.11 12.611 65.873l.03-8.299zM12.078 15.402l-.04 10.475 23.865 13.385-23.825-23.86zm.714 1.756l18.87 18.893-18.9-10.595.03-8.298zM0 41.6l11.073 13.867V27.653h-.03L0 41.6zm10.34 11.79L.934 41.6l9.416-11.88v23.67h-.01zM0 43.316v11.238l10.149 1.555L0 43.316zm.734 2.097l7.697 9.703-7.697-1.184v-8.519zM.332 55.538l10.52 11.87.14.07V57.223l-.1-.12-10.56-1.565zm9.927 10.114L2.19 56.55l8.07 1.194v7.907zM0 28.677v11.238l10.149-12.793L0 28.677zm.734.622l7.697-1.184-7.697 9.703v-8.52zM10.993 26.018V15.763l-.14.07L.331 27.703l10.56-1.555.1-.13zm-.734-.512L2.201 26.69l8.068-9.1v7.916h-.01zM43.861 35.941l23.895-23.8-10.48-.04-13.415 23.84zm22.147-23.077L47.077 31.717l10.62-18.883 8.31.03zM25.774 12.101l-10.49.04 23.905 23.8-13.415-23.84zm-.422.732l10.621 18.884-18.93-18.853 8.31-.03zM55.498 11.057v-.03L41.53.03 27.653 11.057h27.845zM41.54.963l11.898 9.372H29.733L41.54.963zM39.812.03L28.568 0 27.01 10.134 39.812.03zM29.19.732l8.53.02-9.716 7.656L29.191.732zM26.015 10.867L27.573.32 15.686 10.837l-.07.14h10.269l.13-.11zm-8.56-.622l9.113-8.057-1.196 8.057h-7.918zM54.483 0L43.228.03 56.04 10.134 54.483 0zm-.623.732l1.185 7.686L45.32.753l8.54-.02zM57.135 10.977h10.27l-.07-.14L55.456.32l1.558 10.546.12.11zm8.44-.732h-7.917l-1.196-8.057 9.114 8.057zM57.276 71.05l10.49.04-23.804-24.142L57.276 71.05zm.422-.723l-10.54-19.104 18.86 19.134-8.32-.03zM39.36 47.089l-23.885 23.8 10.49.04L39.36 47.09zM17.223 70.167l18.921-18.844-10.61 18.874-8.311-.03zM27.774 71.933v.03L41.74 83l13.887-11.067H27.774zM41.74 82.067l-11.897-9.412h23.704l-11.807 9.412zM43.46 82.99l11.254-.01 1.557-10.124L43.46 82.99zm10.63-.732l-8.53.01 9.716-7.686-1.185 7.676zM57.266 72.114l-1.557 10.545 11.887-10.505.07-.14h-10.28l-.12.1zm8.561.622l-9.114 8.057 1.196-8.057h7.918zM28.799 82.98l11.254.01-12.812-10.134L28.8 82.98zm.623-.722l-1.186-7.686 9.717 7.686h-8.531zM26.146 72.013h-10.28l.071.14L27.824 82.66l-1.557-10.546-.12-.1zm-8.44.723h7.918l1.195 8.057-9.113-8.057z" fill="#CDAA77"/><path d="M42.566 36.513l13.163-24.422-28.226-.11 12.972 24.522a5.142 5.142 0 00-3.999 4.064L12.018 27.423l-.11 28.185 24.598-12.974a5.133 5.133 0 004.14 3.913L27.503 70.93l28.226.11-13.003-24.582c1.92-.472 3.427-2.027 3.799-3.984l24.417 13.135.11-28.185-24.568 12.953a5.124 5.124 0 00-3.919-3.863zm-1.317-.1l-12.53-23.69 25.794.1-12.721 23.59c-.09-.01-.191-.01-.292-.01-.08 0-.17 0-.25.01zm-28.598 17.98l.1-25.756L36.387 41.34c0 .06-.01.11-.01.17 0 .12.01.24.02.351L12.65 54.394zm29.322-7.786l12.54 23.71-25.794-.1 12.711-23.59h.07c.161 0 .322-.01.473-.02zm.401-.792c-.28.06-.572.09-.874.09-.16 0-.321-.03-.482-.05-2.2-.241-3.909-2.077-3.909-4.335a4.393 4.393 0 014.391-4.385 4.38 4.38 0 014.311 3.602c.03.181.04.362.05.542 0 .08.02.15.02.231 0 .2-.03.401-.06.602a4.354 4.354 0 01-3.447 3.703zm4.23-4.676L70.31 28.637l-.1 25.757L46.615 41.71c0-.06.01-.13.01-.19 0-.131 0-.252-.02-.382z" fill="#CDAA77"/><path d="M41.51 38.079a3.433 3.433 0 100 6.863c1.9 0 3.437-1.535 3.437-3.432a3.439 3.439 0 00-3.437-3.431zm0 6.14a2.702 2.702 0 01-2.703-2.699c0-1.495 1.216-2.699 2.703-2.699a2.702 2.702 0 012.703 2.7c0 1.484-1.215 2.698-2.703 2.698z" fill="#CDAA77"/><path d="M126.875 41.03c.85-.45 1.651-1.08 2.371-1.86.67-.73 1-1.66 1-2.85 0-.78-.23-1.54-.69-2.26a6.712 6.712 0 00-1.971-1.97c-.85-.58-1.87-1.05-3.03-1.39a13.425 13.425 0 00-3.742-.52H109v21.77h2.991v-9.5h7.252l.19.22 7.772 9.27h3.121l-7.282-8.66-.67-.8 1.02-.22c1.281-.26 2.451-.67 3.481-1.23zm-6.062.1h-8.822v-9.65H120.813c.831 0 1.641.12 2.411.36.76.24 1.451.57 2.031.97.61.43 1.1.94 1.45 1.53a3.77 3.77 0 01-.01 3.94c-.35.58-.84 1.09-1.44 1.52-.59.41-1.271.74-2.041.98-.75.23-1.56.35-2.401.35zM157.624 47.5c.54-.92.801-1.89.801-2.98V30.18h-2.961v14.35c0 1.97-.831 3.54-2.451 4.67-1.551 1.08-3.621 1.63-6.132 1.63-2.511 0-4.571-.55-6.122-1.64-1.62-1.14-2.44-2.71-2.44-4.66V30.18h-2.991v14.35c0 1.1.27 2.07.82 2.98.55.91 1.34 1.72 2.341 2.4 1.02.69 2.24 1.24 3.651 1.63 1.42.39 3.021.59 4.741.59 1.731 0 3.331-.2 4.761-.59 1.421-.39 2.651-.94 3.672-1.63.99-.68 1.77-1.49 2.31-2.41zM233.667 30.18h-3.121l-12.224 10.7 13.274 11.07h3.071l-12.944-10.58-.58-.47.57-.49 11.954-10.23zM216.732 51.95V30.18h-2.981v21.77h2.981zM240.789 30.18h-2.38v21.77h2.38V30.18zM255.563 51.95h2.991v-8.54l.13-.17 9.843-13.06h-2.961l-8.002 10.7-.5.67-.5-.67-8.013-10.7h-2.961l9.853 13.06.12.17v8.54zM272.658 51.95h20.467v-1.3h-17.476v-9.3h15.615v-1.3h-15.615v-8.57h16.935v-1.3h-19.926v21.77zM331.536 43.73c-.82-.76-1.85-1.38-3.081-1.85-1.26-.48-2.661-.88-4.161-1.17a67.872 67.872 0 01-4.311-.99c-1.351-.36-2.511-.83-3.441-1.38-1.061-.63-1.621-1.58-1.621-2.75 0-.6.2-1.18.6-1.72.38-.52.891-.97 1.541-1.34.62-.37 1.38-.67 2.25-.89.881-.22 1.841-.33 2.861-.33h10.494V30h-10.504c-1.52 0-2.931.17-4.211.51-1.27.34-2.371.78-3.271 1.33-.89.54-1.58 1.15-2.071 1.82-.46.64-.68 1.27-.68 1.93 0 1.2.37 2.12 1.131 2.81.83.76 1.86 1.38 3.08 1.85 1.251.48 2.651.88 4.152 1.17 1.64.33 3.051.65 4.311 1 1.36.36 2.511.83 3.441 1.38 1.06.63 1.621 1.58 1.621 2.75 0 1.25-.691 2.31-2.051 3.13-1.26.77-3.101 1.15-5.462 1.15H311.92v1.3h10.233c1.671 0 3.191-.16 4.502-.49 1.3-.32 2.42-.76 3.331-1.3.87-.52 1.54-1.12 2-1.79.44-.64.65-1.3.65-2.01.021-1.19-.35-2.11-1.1-2.81zM182.862 43.73c-.82-.76-1.85-1.38-3.081-1.85-1.26-.48-2.66-.88-4.161-1.17-1.62-.32-3.031-.65-4.311-.99-1.351-.36-2.511-.83-3.441-1.38-1.061-.63-1.621-1.58-1.621-2.75 0-.6.2-1.18.6-1.72.381-.52.891-.97 1.541-1.34.62-.37 1.38-.67 2.251-.89.88-.22 1.84-.33 2.86-.33h10.494V30h-10.504c-1.52 0-2.93.17-4.211.51-1.27.34-2.371.78-3.271 1.33-.89.54-1.58 1.15-2.07 1.82-.461.64-.681 1.27-.681 1.93 0 1.2.37 2.12 1.131 2.81.83.76 1.86 1.38 3.081 1.85 1.25.48 2.65.88 4.151 1.17 1.64.33 3.051.65 4.311 1 1.361.36 2.511.83 3.441 1.38 1.061.63 1.621 1.58 1.621 2.75 0 1.25-.69 2.31-2.051 3.13-1.26.77-3.101 1.15-5.462 1.15h-10.223v1.3h10.233c1.671 0 3.191-.16 4.502-.49 1.3-.32 2.421-.76 3.331-1.3.87-.52 1.54-1.12 2-1.79.441-.64.651-1.3.651-2.01.01-1.19-.36-2.11-1.111-2.81zM207.799 43.73c-.82-.76-1.85-1.38-3.081-1.85-1.26-.48-2.66-.88-4.161-1.17-1.62-.32-3.031-.65-4.311-.99-1.351-.36-2.511-.83-3.441-1.38-1.061-.63-1.621-1.58-1.621-2.75 0-.6.2-1.18.6-1.72.381-.52.891-.97 1.541-1.34.62-.37 1.38-.67 2.251-.89.88-.22 1.84-.33 2.86-.33h10.494V30h-10.504c-1.52 0-2.93.17-4.211.51-1.27.34-2.371.78-3.271 1.33-.89.54-1.58 1.15-2.07 1.82-.461.64-.681 1.27-.681 1.93 0 1.2.37 2.12 1.131 2.81.83.76 1.86 1.38 3.081 1.85 1.25.48 2.65.88 4.151 1.17 1.64.33 3.051.65 4.311 1 1.361.36 2.511.83 3.441 1.38 1.061.63 1.621 1.58 1.621 2.75 0 1.25-.69 2.31-2.051 3.13-1.26.77-3.101 1.15-5.462 1.15h-10.223v1.3h10.233c1.671 0 3.191-.16 4.502-.49 1.3-.32 2.421-.76 3.331-1.3.87-.52 1.54-1.12 2-1.79.441-.64.651-1.3.651-2.01.01-1.19-.35-2.11-1.111-2.81zM477.25 48.56c.44-.64.65-1.3.65-2.01 0-1.2-.37-2.12-1.121-2.81-.82-.76-1.85-1.38-3.081-1.85-1.26-.48-2.66-.88-4.161-1.17-1.62-.32-3.031-.65-4.311-.99-1.35-.36-2.511-.83-3.441-1.38-1.06-.63-1.621-1.58-1.621-2.75 0-.6.201-1.18.601-1.72.38-.52.89-.97 1.54-1.34.62-.37 1.381-.67 2.251-.89.88-.22 1.84-.33 2.861-.33h10.493V30h-10.503c-1.521 0-2.931.17-4.212.51-1.27.34-2.37.78-3.271 1.33-.89.54-1.58 1.15-2.07 1.82-.46.64-.68 1.27-.68 1.93 0 1.2.37 2.12 1.13 2.81.83.76 1.86 1.38 3.081 1.85 1.25.48 2.651.88 4.151 1.17 1.641.33 3.051.65 4.311 1 1.361.36 2.511.83 3.441 1.38 1.061.63 1.621 1.58 1.621 2.75 0 1.25-.69 2.31-2.051 3.13-1.26.77-3.101 1.15-5.461 1.15h-10.233v1.3h10.233c1.67 0 3.191-.16 4.501-.49 1.3-.32 2.421-.76 3.331-1.3.89-.52 1.56-1.12 2.021-1.78zM363.165 51.95l-12.003-21.77h-2.961l-12.034 21.77h3.071l3.001-5.34.18-.32h14.495l.18.32 3.001 5.34h3.07zm-7.932-6.98H343.06l.51-.93L349.121 34l.55-.99.551.99 5.561 10.05.51.93h-1.06v-.01zM394.124 51.95h2.991V30.18h-2.48l-12.274 18.18-.52.77-.52-.77-12.254-18.18h-2.481v21.77h2.991V34.98l1.151 1.72 10.133 15.25h1.96l10.153-15.25 1.15-1.72v16.97zM429.465 45.34a7.997 7.997 0 001.201-4.28c0-1.51-.4-2.94-1.201-4.27a12.49 12.49 0 00-3.271-3.55c-1.36-1.01-2.981-1.82-4.791-2.39a19.424 19.424 0 00-5.722-.85c-1.98 0-3.911.29-5.721.87-1.821.57-3.432 1.37-4.792 2.39-1.35 1-2.461 2.19-3.281 3.55-.8 1.32-1.2 2.76-1.2 4.26 0 1.55.39 2.95 1.2 4.28.81 1.34 1.911 2.53 3.281 3.54 1.36 1.01 2.981 1.81 4.792 2.39a19.1 19.1 0 005.721.86c1.981 0 3.901-.29 5.722-.86 1.82-.58 3.431-1.38 4.791-2.39 1.361-1.02 2.461-2.21 3.271-3.55zm-2.821-.32c-.68 1.19-1.58 2.23-2.69 3.09-1.091.85-2.381 1.53-3.831 2a14.27 14.27 0 01-4.432.71c-1.5 0-3.001-.24-4.431-.71-1.451-.48-2.741-1.15-3.841-2a10.272 10.272 0 01-2.701-3.08 8.011 8.011 0 01-1.02-3.97c0-1.42.34-2.76 1.02-3.96.67-1.19 1.57-2.23 2.701-3.09 1.11-.86 2.41-1.53 3.841-2 1.44-.47 2.931-.71 4.431-.71 1.501 0 3.001.24 4.432.71 1.44.47 2.73 1.15 3.831 2 1.11.86 2.02 1.9 2.69 3.09a7.879 7.879 0 011.041 3.96c0 1.41-.35 2.75-1.041 3.96zM441.059 51.95h2.98V31.48h10.063v-1.3h-23.106v1.3h10.063V51.95zM492.234 49.72l-.55-1.07-9.603-18.47h-3.101l11.543 21.77h3.462l11.513-21.77h-3.081l-9.623 18.47-.56 1.07zM509.419 51.95h20.466v-1.3H512.41v-9.3H528.024v-1.3H512.41v-8.57H529.345v-1.3h-19.926v21.77zM540.848 51.95h2.991V31.48h10.063v-1.3h-23.107v1.3H540.848V51.95zM567.046 51.95h2.991v-8.54l.12-.17L580 30.18h-2.951l-8.012 10.7-.5.67-.501-.67-8.002-10.7h-2.961l9.843 13.06.13.17v8.54z" fill="#000"/></svg><svg fill="inherit" viewBox="0 0 25 24" id="open-filters" xmlns="http://www.w3.org/2000/svg"><path d="M1.5 5h22v1h-22z"/><ellipse cx="18.239" cy="5.5" rx="2.391" ry="2.5"/><path d="M1.5 12h22v1h-22z"/><ellipse cx="8.674" cy="12.5" rx="2.391" ry="2.5"/><path d="M1.5 19h22v1h-22z"/><ellipse cx="18.239" cy="19.5" rx="2.391" ry="2.5"/></svg><svg fill="none" viewBox="0 0 48 48" id="promocode" xmlns="http://www.w3.org/2000/svg"><mask id="ja" style="mask-type:alpha" maskUnits="userSpaceOnUse" x="0" y="0" width="48" height="48"><circle cx="24" cy="24" r="24" fill="#000"/></mask><g mask="url(#ja)" stroke="#fff"><rect x="9.5" y="10.5" width="29" height="55" rx="1.5" fill="#56323F"/><path fill="#fff" d="M12.5 14.5h23v46h-23z"/><path stroke-linecap="round" d="M21.5 12.5h5"/></g><circle cx="24" cy="24" r="23.5" stroke="#fff"/><path d="M22 35.5h-6.5v-13h17v13h-6.707l-.147.146L24 37.293l-1.646-1.647-.147-.146H22z" fill="#fff" stroke="#56323F"/><path d="M18.968 29.713l-.54-.897-.536.897-.317-.224.629-.809-.945-.268.136-.316.9.316-.047-1.08h.36l-.044 1.08.9-.316.137.316-.945.268.629.809-.317.224zm2.786 0l-.54-.897-.536.897-.317-.224.629-.809-.945-.268.136-.316.901.316-.048-1.08h.36l-.044 1.08.901-.316.136.316-.945.268.629.809-.317.224zm2.787 0L24 28.816l-.536.897-.316-.224.628-.809-.945-.268.136-.316.901.316-.048-1.08h.36l-.044 1.08.901-.316.136.316-.944.268.628.809-.316.224zm2.786 0l-.54-.897-.537.897-.316-.224.628-.809-.945-.268.136-.316.901.316-.048-1.08h.36l-.044 1.08.901-.316.136.316-.944.268.628.809-.316.224zm2.786 0l-.54-.897-.537.897-.316-.224.628-.809-.945-.268.137-.316.9.316-.048-1.08h.36l-.043 1.08.9-.316.137.316-.945.268.628.809-.316.224z" fill="#56323F"/></svg><svg fill="inherit" viewBox="0 0 24 24" id="search-icon" xmlns="http://www.w3.org/2000/svg"><path d="M9.5 4a6.5 6.5 0 014.932 10.734l5.644 5.644-.707.707-5.645-5.645A6.5 6.5 0 119.5 4zm0 1a5.5 5.5 0 100 11 5.5 5.5 0 000-11z" fill="#111"/><circle cx="9.5" cy="10.5" r="5.5"/></svg><svg fill="none" viewBox="0 0 24 24" id="tel" xmlns="http://www.w3.org/2000/svg"><path d="M19.5 22c.827 0 1.5-.673 1.5-1.5V17c0-.827-.673-1.5-1.5-1.5-1.17 0-2.32-.184-3.42-.547a1.524 1.524 0 00-1.523.363l-1.44 1.44a14.655 14.655 0 01-5.885-5.883L8.66 9.436c.412-.382.56-.963.384-1.522A10.872 10.872 0 018.5 4.5C8.5 3.673 7.827 3 7 3H3.5C2.673 3 2 3.673 2 4.5 2 14.15 9.85 22 19.5 22zM3.5 4H7a.5.5 0 01.5.5c0 1.277.2 2.531.593 3.72a.473.473 0 01-.127.497L6.01 10.683c1.637 3.228 4.055 5.646 7.298 7.297l1.949-1.95a.516.516 0 01.516-.126c1.196.396 2.45.596 3.727.596.275 0 .5.225.5.5v3.5c0 .275-.225.5-.5.5C10.402 21 3 13.598 3 4.5a.5.5 0 01.5-.5z" fill="#111"/></svg><svg fill="inherit" viewBox="0 0 56 56" id="telegram" xmlns="http://www.w3.org/2000/svg"><g clip-path="url(#mclip0_269_4080)"><path d="M28.008 56C12.448 56.008-.008 43.53 0 27.972A27.905 27.905 0 0128.064 0 27.9 27.9 0 0156 27.956C56.016 43.522 43.568 56 28.008 56zm13.376-37.523c.056-1.151-.136-2.135-1.552-2.12-.632.009-1.288.273-1.896.52A7656.102 7656.102 0 0015.68 26.06c-1.64.68-3.272 1.384-4.896 2.112-.512.232-1.008.544-1 1.216 0 .72.576.912 1.104 1.088 1.64.544 3.264 1.143 4.936 1.551 1.504.36 2.944.248 4.344-.736 3.616-2.543 7.32-4.975 11.008-7.406.68-.448 1.648-1.448 2.232-.744.584.696-.568 1.44-1.152 2.007a889.016 889.016 0 01-7.952 7.591c-.88.84-1.176 1.776-.128 2.592 3.248 2.528 6.576 4.967 10.264 6.823 1.944.976 3.096.288 3.48-1.872.504-2.847.952-5.703 1.4-8.558.712-4.416 1.384-8.831 2.064-13.247z"/></g><defs><clipPath id="mclip0_269_4080"><path d="M0 0h56v56H0z"/></clipPath></defs></svg><svg fill="inherit" viewBox="0 0 56 56" id="vk" xmlns="http://www.w3.org/2000/svg"><g clip-path="url(#nclip0_269_4082)"><path d="M29.135 55.998h-2.448c-.032-.008-.064-.023-.104-.023-.864-.08-1.736-.129-2.592-.24a25.706 25.706 0 01-4.831-1.136c-4.344-1.464-8.104-3.856-11.288-7.168a27.864 27.864 0 01-4.904-6.96 27.764 27.764 0 01-2.264-6.374 26.672 26.672 0 01-.656-5.344L0 28.025v-.184c.008-.064.024-.128.024-.192.016-.424.016-.84.04-1.264a25.98 25.98 0 01.528-4.088 27.949 27.949 0 012.488-7.055 27.713 27.713 0 015.68-7.567c3.072-2.904 6.624-5.032 10.647-6.328A27.368 27.368 0 0128.383.004c1.72.024 3.424.208 5.112.543 2.392.48 4.68 1.256 6.872 2.336a28.067 28.067 0 017.768 5.664 27.619 27.619 0 015.168 7.423 27.414 27.414 0 012.592 9.487c.111 1.264.127 2.536.08 3.808a26.644 26.644 0 01-.456 3.904 27.408 27.408 0 01-2.632 7.63 27.922 27.922 0 01-8.04 9.552 27.54 27.54 0 01-10.224 4.856 26.51 26.51 0 01-4.616.712c-.288.024-.584.056-.872.08zm-7.632-37.812c.2.08.384.184.584.24.816.224 1.296.776 1.528 1.576.28.984.352 1.992.344 3a26.879 26.879 0 01-.144 2.663c-.048.496-.2.992-.36 1.464-.16.48-.568.696-1.016.592-.208-.048-.408-.168-.6-.28-.488-.296-.8-.768-1.136-1.224-1.68-2.312-3.023-4.823-4.12-7.455-.327-.784-.791-1.104-1.631-1.104H9.76c-.128 0-.264 0-.392.032-.776.184-1.04.552-.72 1.304 1.584 3.695 3.416 7.263 5.552 10.663 1.448 2.312 3.111 4.44 5.192 6.215 1.391 1.184 2.943 2.056 4.703 2.56.992.28 2 .448 3.024.544.912.08 1.832.144 2.752.072.744-.064 1.184-.44 1.328-1.168.04-.208.048-.432.064-.648.04-.424.056-.848.112-1.272.08-.584.28-1.128.632-1.608.464-.631 1.128-.735 1.76-.28.216.16.44.32.632.512.936.944 1.88 1.88 2.784 2.856.832.904 1.816 1.456 3.032 1.616 1.032.136 2.064.048 3.096.064.88.008 1.752.016 2.632.032.664.008 1.264-.304 1.488-.992.152-.464.056-.896-.152-1.328-.296-.616-.72-1.136-1.176-1.632a693.924 693.924 0 00-3.296-3.56c-.368-.391-.776-.751-1.152-1.151-.568-.6-.648-1.176-.288-1.912a4.11 4.11 0 01.36-.6c1.304-1.816 2.616-3.632 3.912-5.456.504-.711 1.048-1.4 1.4-2.207.232-.536.52-1.04.544-1.648.008-.232-.032-.44-.24-.544-.448-.216-.912-.416-1.416-.44a53.566 53.566 0 00-2.272-.04c-1.288 0-2.584.016-3.872.008-.648 0-1.104.272-1.376.856-.152.32-.296.648-.44.968-1.024 2.264-2.088 4.503-3.584 6.503-.408.544-.824 1.064-1.352 1.488-.4.32-.824.288-1.2-.064-.408-.384-.584-.856-.584-1.408 0-2.272 0-4.543.008-6.815 0-.2 0-.4-.008-.6-.048-1.016-.672-1.624-1.688-1.64-1.08-.016-2.16-.024-3.24-.04-.576-.008-1.152-.024-1.728-.024-.512.008-1.032 0-1.544.064-.744.128-1.232.568-1.544 1.248z"/></g><defs><clipPath id="nclip0_269_4082"><path d="M0 0h56v55.998H0z"/></clipPath></defs></svg><svg fill="none" viewBox="0 0 89 78" id="we-work-1" xmlns="http://www.w3.org/2000/svg"><path d="M83.25 29.999h-47.5A4.748 4.748 0 0031 34.745v27.508A4.748 4.748 0 0035.75 67h47.5A4.748 4.748 0 0088 62.253V34.745a4.748 4.748 0 00-4.75-4.746z" fill="#fff" stroke="#000" stroke-miterlimit="10"/><path d="M88 36.999H31v4h57v-4z" fill="#000"/><path d="M40 26.999h-2v17h2v-17zM40 55.999v-2H22v2h18z" fill="#fff"/><path d="M38.987 12.127H1v28.919h37.987v-28.92z" fill="#fff" stroke="#000" stroke-miterlimit="10"/><path d="M39 40.999H1v14h38v-14z" fill="#fff" stroke="#000" stroke-miterlimit="10"/><path d="M12 40.999c-.546-1.296-.642-2.849-.512-4.25a8.54 8.54 0 0117.005-.058c.14 1.4.044 3.008-.493 4.308" stroke="#000" stroke-miterlimit="10"/><path d="M15.283 28.528l2.377-2.094h4.33l2.368 2.102-4.541 4.494-4.534-4.502z" fill="#000"/><path d="M21.84 26.826l1.938 1.726-3.961 3.921-3.922-3.921 1.945-1.726h4zm.29-.785h-4.62l-.219.197-1.953 1.757-.628.549.597.596 3.921 3.922.55.549.556-.542 3.97-3.921.595-.596-.627-.55-1.945-1.725-.228-.196.032-.04z" fill="#fff"/><path d="M78.832 22.974A38.035 38.035 0 0026.1 5.852" stroke="#A39D94" stroke-miterlimit="10"/><mask id="oa" fill="#fff"><path d="M80.534 19.233l-.753-.228-1.106 3.71-3.616-1.38-.282.73 4.408 1.678 1.35-4.51z"/></mask><path d="M80.534 19.233l-.753-.228-1.106 3.71-3.616-1.38-.282.73 4.408 1.678 1.35-4.51z" fill="#000"/><path d="M80.534 19.233l.958.286.286-.955-.955-.288-.289.957zm-.753-.228l.29-.957-.962-.29-.286.962.958.285zm-1.106 3.71l-.356.935 1.007.384.308-1.033-.959-.286zm-3.616-1.38l.357-.934-.93-.355-.36.928.933.36zm-.282.73l-.933-.362-.363.938.94.358.356-.935zm4.408 1.678l-.356.934 1.006.383.308-1.03-.958-.287zm1.638-5.467l-.753-.228-.578 1.915.753.227.578-1.914zm-2 .444l-1.106 3.71 1.916.571 1.106-3.71-1.916-.571zm.209 3.061l-3.616-1.38-.713 1.868 3.615 1.38.714-1.868zm-4.905-.807l-.283.73 1.865.721.283-.73-1.865-.721zm.294 2.025l4.408 1.678.712-1.869-4.408-1.678-.712 1.869zm5.722 1.03l1.35-4.51-1.917-.573-1.35 4.51 1.917.573z" fill="#A39D94" mask="url(#oa)"/><path d="M14.24 62.232a38.05 38.05 0 0046.89 11.067" stroke="#A39D94" stroke-miterlimit="10"/><mask id="ob" fill="#fff"><path d="M13.37 66.248l.784.062.29-3.859 3.827.573.118-.777-4.66-.698-.36 4.699z"/></mask><path d="M13.37 66.248l.784.062.29-3.859 3.827.573.118-.777-4.66-.698-.36 4.699z" fill="#000"/><path d="M13.37 66.248l-.998-.077-.076.994.993.08.08-.997zm.784.062l-.08.997 1.001.08.076-1.002-.998-.075zm.29-3.859l.148-.989-1.065-.159-.08 1.073.997.075zm3.827.573l-.148.989.988.148.15-.987-.99-.15zm.118-.777l.989.15.15-.99-.99-.149-.149.99zm-4.66-.698l.15-.989-1.064-.159-.082 1.072.997.076zm-.44 5.696l.785.062.16-1.993-.785-.063-.16 1.993zm1.862-.86l.29-3.859-1.995-.15-.29 3.86 1.995.15zm-.855-2.945l3.828.573.295-1.978-3.827-.573-.296 1.978zm4.964-.266l.118-.777-1.978-.3-.117.777 1.977.3zm-.723-1.916l-4.659-.698-.296 1.978 4.659.698.296-1.978zm-5.804.215l-.36 4.698 1.993.153.361-4.698-1.994-.153z" fill="#A39D94" mask="url(#ob)"/></svg><svg fill="none" viewBox="0 0 104 70" id="we-work-2" xmlns="http://www.w3.org/2000/svg"><path d="M52.361 59.159c6.828 0 12.362-5.535 12.362-12.362S59.19 34.436 52.362 34.436C45.533 34.435 40 39.97 40 46.796c0 6.827 5.535 12.362 12.361 12.362z" stroke="#111" stroke-miterlimit="10"/><path d="M45.805 33.431l3.247-2.863h6.126l3.231 2.863-6.314 6.252-6.29-6.252z" fill="#fff"/><mask id="pa" fill="#fff"><path d="M55.029 30.784l2.808 2.487-5.742 5.686-5.718-5.686 2.816-2.487h5.836zm.298-.784h-6.424l-.227.196-2.793 2.486-.627.557.596.589 5.718 5.686.549.55.557-.55 5.757-5.686.596-.589-.627-.556-2.816-2.487-.29-.196h.031z"/></mask><path d="M55.029 30.784l2.808 2.487-5.742 5.686-5.718-5.686 2.816-2.487h5.836zm.298-.784h-6.424l-.227.196-2.793 2.486-.627.557.596.589 5.718 5.686.549.55.557-.55 5.757-5.686.596-.589-.627-.556-2.816-2.487-.29-.196h.031z" fill="#000"/><path d="M55.029 30.784l.663-.748-.284-.252h-.379v1zm2.808 2.487l.704.71.758-.751-.799-.708-.663.749zm-5.742 5.686l-.705.71.704.7.705-.7-.703-.71zm-5.718-5.686l-.661-.75-.8.706.756.753.706-.71zm2.816-2.487v-1h-.378l-.283.25.661.75zm-.29-.784v-1h-.371l-.282.243.653.757zm-.227.196l-.653-.757-.006.005-.006.005.665.747zm-2.793 2.486l.664.748h.001l-.665-.748zm-.627.557l-.664-.747-.799.709.76.75.703-.712zm.596.589l.705-.71-.003-.002-.702.712zm5.718 5.686l.707-.707-.002-.002-.705.71zm.549.55l-.707.706.702.703.707-.697-.702-.713zm.557-.55l.702.712-.702-.712zm5.757-5.686l-.702-.712.702.712zm.596-.589l.703.712.76-.75-.799-.71-.664.748zm-.627-.556l.664-.748-.002-.002-.662.75zm-2.816-2.487l.662-.75-.049-.042-.053-.037-.56.83zm-.29-.196v-1h-3.267l2.707 1.829.56-.829zm-.93 1.533l2.808 2.486 1.326-1.497-2.808-2.486-1.326 1.497zm2.767 1.027l-5.741 5.687 1.407 1.42 5.742-5.686-1.408-1.42zm-4.332 5.688l-5.718-5.686-1.41 1.418 5.717 5.687 1.41-1.419zm-5.762-4.228l2.816-2.486-1.323-1.5-2.816 2.487 1.323 1.5zm2.154-2.236h5.836v-2h-5.836v2zM55.327 29h-6.424v2h6.424v-2zm-7.077.243l-.227.196 1.306 1.514.227-.196-1.306-1.514zm-.24.206l-2.792 2.487 1.33 1.493 2.793-2.486-1.33-1.494zm-2.79 2.486l-.628.557 1.328 1.495.627-.557-1.327-1.495zm-.666 2.016l.596.588 1.404-1.423-.596-.588-1.404 1.423zm.593.586l5.718 5.686 1.41-1.418-5.718-5.686-1.41 1.418zm5.716 5.684l.549.55 1.414-1.415-.549-.549-1.414 1.414zm1.958.555l.557-.55-1.404-1.424-.557.55 1.404 1.424zm.558-.55l5.757-5.687-1.406-1.423-5.757 5.687 1.406 1.423zm5.757-5.687l.596-.588-1.405-1.423-.596.588 1.405 1.423zm.557-2.047l-.627-.557-1.328 1.495.627.557 1.328-1.495zm-.63-.56l-2.815-2.485-1.324 1.499 2.816 2.486 1.324-1.5zm-2.917-2.564l-.29-.197-1.12 1.658.29.196 1.12-1.657zM55.296 31h.031v-2h-.031v2z" fill="#111" mask="url(#pa)"/><path d="M52.629 59.824c10.288 0 18.628-8.34 18.628-18.629 0-10.288-8.34-18.629-18.628-18.629C42.34 22.566 34 30.906 34 41.195c0 10.288 8.34 18.629 18.629 18.629z" stroke="#111" stroke-miterlimit="10"/><path d="M43 20.355L47.567 16h8.874L61 20.355 51.98 30 43 20.355z" fill="#fff"/><mask id="pb" fill="#fff"><path d="M56.502 16.784l4.243 3.75-8.628 8.565-8.628-8.565 4.251-3.75h8.762zM56.8 16h-9.413l-.227.196-4.243 3.75-.628.548.596.596 8.628 8.566.55.549.556-.55 8.628-8.565.596-.588-.627-.557-4.189-3.749-.22-.196H56.8z"/></mask><path d="M56.502 16.784l4.243 3.75-8.628 8.565-8.628-8.565 4.251-3.75h8.762zM56.8 16h-9.413l-.227.196-4.243 3.75-.628.548.596.596 8.628 8.566.55.549.556-.55 8.628-8.565.596-.588-.627-.557-4.189-3.749-.22-.196H56.8z" fill="#000"/><path d="M56.502 16.784l.662-.749-.284-.25h-.378v1zm4.243 3.75l.705.71.757-.753-.8-.707-.662.75zm-8.628 8.565l-.704.71.704.699.705-.7-.705-.71zm-8.628-8.565l-.661-.75-.802.706.759.753.704-.71zm4.251-3.75v-1h-.378l-.283.25.661.75zM47.387 16v-1h-.371l-.282.243.653.757zm-.227.196l-.653-.757-.01.008.663.75zm-4.243 3.75l.658.752.004-.003-.662-.75zm-.628.548l-.658-.752-.805.704.756.755.707-.707zm.596.596l-.707.708.003.002.704-.71zm8.628 8.566l.707-.707-.002-.003-.705.71zm.55.549l-.708.707.702.702.707-.697-.702-.712zm.556-.55l.702.713.003-.003-.705-.71zm8.628-8.565l-.702-.711-.002.002.704.71zm.596-.588l.703.712.76-.75-.799-.71-.664.748zm-.627-.557l-.667.745.003.003.664-.748zm-4.189-3.749l.667-.745-.667.745zm-.22-.196l.667-.746-.285-.254h-.381v1zm-.967 1.534l4.243 3.749 1.324-1.499-4.243-3.749-1.324 1.499zm4.2 2.29l-8.627 8.565 1.409 1.42 8.628-8.566-1.41-1.42zm-7.218 8.565l-8.628-8.565-1.41 1.42 8.629 8.564 1.409-1.419zm-8.671-7.105l4.25-3.75-1.322-1.5-4.251 3.75 1.323 1.5zm3.59-3.5h8.76v-2h-8.76v2zM56.8 15h-9.413v2H56.8v-2zm-10.066.243l-.227.196 1.306 1.514.227-.196-1.306-1.514zm-.236.204l-4.244 3.749 1.325 1.499 4.243-3.75-1.324-1.498zm-4.24 3.746l-.627.549 1.317 1.505.627-.55-1.317-1.504zm-.676 2.008l.596.597 1.414-1.415-.596-.596-1.414 1.415zm.599.6l8.628 8.564 1.409-1.419-8.628-8.565-1.41 1.42zm8.625 8.562l.55.549 1.413-1.414-.549-.55-1.414 1.415zm1.958.554l.557-.55-1.404-1.423-.557.549 1.404 1.424zm.56-.552l8.628-8.565-1.41-1.42-8.627 8.566 1.409 1.42zm8.626-8.563l.596-.588-1.405-1.423-.596.588 1.404 1.423zm.557-2.048l-.627-.557-1.328 1.496.627.557 1.328-1.496zm-.624-.554l-4.189-3.749-1.334 1.49 4.189 3.75 1.334-1.49zm-4.19-3.75l-.22-.196-1.331 1.492.22.196 1.331-1.492zm-.885-.45H56.8v2h.008v-2z" fill="#111" mask="url(#pb)"/><path d="M52.798 59.824c14.247 0 25.797-11.55 25.797-25.798 0-14.248-11.55-25.797-25.797-25.797C38.55 8.229 27 19.779 27 34.026c0 14.248 11.55 25.798 25.798 25.798z" stroke="#111" stroke-miterlimit="10"/><path d="M39.746 6.151L46.044.582h12.472l6.298 5.569-12.557 12.432-12.51-12.432z" fill="#fff"/><mask id="pc" fill="#fff"><path d="M58.367.974l5.875 5.192-11.985 11.86-11.938-11.86L46.194.974h12.173zm.298-.785H45.904l-.228.197-5.875 5.192-.627.557.588.588L51.7 18.583l.557.549.549-.541L64.791 6.723l.596-.588-.627-.557L58.885.386l-.22-.197z"/></mask><path d="M58.367.974l5.875 5.192-11.985 11.86-11.938-11.86L46.194.974h12.173zm.298-.785H45.904l-.228.197-5.875 5.192-.627.557.588.588L51.7 18.583l.557.549.549-.541L64.791 6.723l.596-.588-.627-.557L58.885.386l-.22-.197z" fill="#000"/><path d="M58.367.974l.662-.75-.283-.25h-.379v1zm5.875 5.192l.703.711.76-.752-.8-.708-.663.75zm-11.985 11.86l-.705.71.704.698.704-.697-.703-.711zM40.319 6.166l-.662-.749-.8.707.757.752.705-.71zM46.194.974v-1h-.379l-.283.25.662.75zm-.29-.785v-1h-.372l-.281.243.653.757zm-.228.197l-.653-.758-.01.008.663.75zm-5.875 5.192l-.662-.75-.002.002.664.748zm-.627.557l-.664-.748-.794.705.75.75.708-.707zm.588.588l-.707.707.002.003.705-.71zM51.7 18.583l-.705.71.003.002.702-.712zm.557.549l-.702.712.702.692.702-.692-.702-.712zm.549-.541l.702.712.002-.002-.704-.71zM64.791 6.723l-.702-.712-.001.002.703.71zm.596-.588l.703.712.76-.75-.799-.71-.664.748zm-.627-.557l.663-.748-.001-.001-.662.749zM58.885.386l-.666.745.004.004.662-.75zm-1.18 1.337l5.875 5.193 1.324-1.499L59.03.225l-1.324 1.498zm5.834 3.732l-11.985 11.86 1.406 1.422 11.985-11.86-1.406-1.422zM52.962 17.316L41.024 5.456l-1.41 1.42 11.938 11.86 1.41-1.42zm-11.98-10.4l5.874-5.193L45.532.225l-5.875 5.192 1.324 1.499zm5.212-4.942h12.173v-2H46.194v2zM58.665-.811H45.904v2h12.761v-2zm-13.414.243l-.228.196 1.306 1.515.228-.196L45.25-.568zm-.237.204L39.139 4.83l1.325 1.498 5.874-5.192-1.324-1.499zM39.137 4.83l-.627.557 1.328 1.496.627-.557-1.328-1.496zm-.67 2.012l.588.588 1.414-1.414-.588-.588-1.414 1.414zm.59.59l11.938 11.86 1.41-1.419-11.938-11.86-1.41 1.42zm11.941 11.863l.557.549 1.404-1.424-.557-.55-1.404 1.425zm1.961.549l.549-.541-1.404-1.425-.549.542 1.404 1.424zm.55-.543L65.496 7.434l-1.407-1.421L52.102 17.88l1.408 1.421zM65.494 7.435l.597-.588-1.405-1.424-.596.588 1.404 1.424zm.558-2.048l-.627-.557-1.328 1.496.627.557 1.328-1.496zm-.629-.558L59.547-.364l-1.324 1.499 5.874 5.192 1.325-1.498zm-5.871-5.19l-.22-.195L58 .935l.22.196L59.55-.36z" fill="#111" mask="url(#pc)"/><path d="M103 65v5M91 65v5M79 65v5M67 65v5M55 65v5M43 65v5M31 65v5M19 65v5M97 65v5M85 65v5M73 65v5M61 65v5M49 65v5M37 65v5M25 65v5M13 65v5M100 68v2M88 68v2M76 68v2M64 68v2M52 68v2M40 68v2M28 68v2M16 68v2M94 68v2M82 68v2M70 68v2M58 68v2M46 68v2M34 68v2M22 68v2M10 68v2" stroke="#A39D94" stroke-miterlimit="10"/><path fill-rule="evenodd" clip-rule="evenodd" d="M1 69h102v1H1v-1z" fill="#A39D94"/><path d="M1 65v5M7 65v5M4 68v2" stroke="#A39D94" stroke-miterlimit="10"/></svg><svg fill="none" viewBox="0 0 97 72" id="we-work-3" xmlns="http://www.w3.org/2000/svg"><g clip-path="url(#qclip0_360_8242)"><path d="M45.683 57.621c13.74 0 24.88-11.139 24.88-24.88 0-13.74-11.14-24.88-24.88-24.88-13.741 0-24.88 11.14-24.88 24.88 0 13.741 11.139 24.88 24.88 24.88z" stroke="#A39D94" stroke-miterlimit="10"/><path d="M45.158 17.166L33.801 5.883 39.354.98h11.661l5.545 4.902-11.402 11.284z" fill="#fff" stroke="#A39D94"/><path d="M31.8 31.918H.749" stroke="#111" stroke-miterlimit="10"/><path d="M28.506 20.826H13.094v1.6h15.412v-1.6z" fill="#111"/><path d="M28.114 21.259v.784H13.485v-.784h14.629zm.784-.784H12.701v2.353h16.197v-2.353z" fill="#fff"/><path d="M18.473 38.162H3.061v1.6h15.412v-1.6z" fill="#111"/><path d="M18.08 38.554v.784H3.422v-.784h14.66zm.785-.785H2.637v2.354h16.228V37.77z" fill="#fff"/><path d="M33.636 30.82H.356v1.6h33.28v-1.6z" fill="#111"/><path d="M33.228 31.212v.785H.748v-.785h32.48zm.784-.784H-.038v2.353h34.05v-2.353zM76.704 71.756a7.662 7.662 0 117.656-7.655 7.67 7.67 0 01-7.656 7.655z" fill="#fff"/><path d="M76.706 56.83a7.27 7.27 0 110 14.54 7.27 7.27 0 010-14.54zm0-.785a8.056 8.056 0 108.047 8.055 8.071 8.071 0 00-8.047-8.055z" fill="#111"/><path d="M20.497 71.756a7.655 7.655 0 100-15.31 7.655 7.655 0 000 15.31z" fill="#fff"/><path d="M20.497 56.83a7.271 7.271 0 11.015 14.542 7.271 7.271 0 01-.015-14.543zm0-.785A8.055 8.055 0 1028.52 64.1a8.063 8.063 0 00-8.055-8.055h.03z" fill="#111"/><path d="M20.498 68.9a4.8 4.8 0 114.8-4.8 4.808 4.808 0 01-4.8 4.8z" fill="#fff"/><path d="M20.497 59.693A4.408 4.408 0 1116.09 64.1a4.399 4.399 0 014.408-4.408zm0-.785a5.192 5.192 0 105.193 5.193 5.2 5.2 0 00-5.193-5.193z" fill="#111"/><path d="M76.705 68.9a4.8 4.8 0 114.8-4.8 4.808 4.808 0 01-4.8 4.8z" fill="#fff"/><path d="M76.704 59.693a4.408 4.408 0 11-.015 8.815 4.408 4.408 0 01.015-8.815zm0-.785a5.192 5.192 0 105.193 5.193 5.2 5.2 0 00-5.193-5.193z" fill="#111"/><path d="M70.563 21.627h16.306l9.57 25.139V64.1h-8.644" stroke="#111" stroke-miterlimit="10"/><path d="M72.579 27.627h10.973l6.502 17.703h-20.11" stroke="#111" stroke-miterlimit="10"/><path d="M31.658 64.006h33.728" stroke="#111"/></g><defs><clipPath id="qclip0_360_8242"><path fill="#fff" d="M0 0h97v72H0z"/></clipPath></defs></svg><svg fill="none" viewBox="0 0 81 82" id="we-work-4" xmlns="http://www.w3.org/2000/svg"><g clip-path="url(#rclip0_360_8268)" stroke-miterlimit="10"><path d="M21.416 17.037h33.712M21.416 30.073h7.757M21.416 25.728h29.029M21.416 21.383h17.758M40.82 21.383h14.308M30.82 30.073h15.358" stroke="#A39D94"/><path d="M39.926 67c8.285 0 15-6.716 15-15 0-8.284-6.715-15-15-15-8.284 0-15 6.716-15 15 0 8.284 6.716 15 15 15z" stroke="#000"/><path d="M39.926 53.1a1.105 1.105 0 100-2.21 1.105 1.105 0 000 2.21zM48.494 45.213v13.573M41.576 51.283l7.034-6.97 3.317 3.743v7.799l-3.317 3.832-7.034-7.023M41.906 51.728l5.982-3.324M41.906 52.272l5.982 3.315M49.011 48.404l2.513 1.658M49.011 55.587l2.513-1.657M31.36 58.786V45.213M38.277 52.718l-7.034 6.969-3.316-3.743v-7.798l3.316-3.833 7.034 7.023M37.947 52.272l-5.982 3.315M37.947 51.728l-5.982-3.324M30.84 55.587l-2.512-1.657M30.84 48.404l-2.512 1.658M46.72 60.569H33.133M40.64 53.653l6.972 7.032L43.867 64h-7.792l-3.833-3.315 7.025-7.032M40.203 53.983l3.316 5.97M39.65 53.983l-3.316 5.97M43.519 61.077L41.86 63.59M36.334 61.077l1.657 2.513M33.133 43.431H46.72M39.213 50.347l-6.971-7.032L35.986 40h7.792l3.834 3.315-7.026 7.032M39.65 50.017l-3.316-5.971M40.203 50.017l3.316-5.971M36.334 42.914l1.657-2.504M43.519 42.914L41.86 40.41" stroke="#000"/><path d="M12.576 19.841v-8.573a7.012 7.012 0 016.989-6.989h53.94" stroke="#A39D94"/><path d="M66.516 19.841v-8.573a7.012 7.012 0 016.988-6.989v0a7.004 7.004 0 016.981 6.989h-13.97" stroke="#A39D94"/><path d="M66.517 10.66v62.718a7.004 7.004 0 01-6.981 6.989H8.293" stroke="#A39D94"/><path d="M8.293 80.398a7.012 7.012 0 01-6.988-6.989h11.271" stroke="#A39D94"/><path d="M59.528 80.367a6.981 6.981 0 01-6.98-6.958H12.544V10.66" stroke="#A39D94"/></g><defs><clipPath id="rclip0_360_8268"><path fill="#fff" transform="translate(.926)" d="M0 0h80v82H0z"/></clipPath></defs></svg><svg fill="none" viewBox="0 0 94 65" id="we-work-5" xmlns="http://www.w3.org/2000/svg"><g clip-path="url(#sclip0_360_8312)"><path d="M25.674 63.703c13.74 0 24.88-11.139 24.88-24.88 0-13.74-11.14-24.88-24.88-24.88-13.74 0-24.88 11.14-24.88 24.88 0 13.741 11.14 24.88 24.88 24.88z" stroke="#A39D94" stroke-miterlimit="10"/><path d="M13.07 11.935l6.094-5.38h12.032l6.087 5.38-12.127 12.009L13.07 11.935z" fill="#fff"/><path d="M31.047 6.955l5.702 4.996-11.593 11.475-11.514-11.475 5.67-4.996h11.766-.031zm.33-.785H19.014l-.228.197-5.663 5.004-.627.557.588.588 11.514 11.436.55.549.556-.55L37.26 12.509l.596-.588-.627-.557-5.664-5.004-.22-.189h.032z" fill="#A39D94"/><path d="M38.059 43.428h-4.832l9.075-24.316h4.252l9.082 24.316h-4.831L49.064 38.4h-9.272l-1.733 5.028zm9.46-9.272l-3.091-8.886-3.09 8.886h6.18z" fill="#000" stroke="#fff" stroke-miterlimit="10"/><path d="M63.621 23.23a3.836 3.836 0 011.922-5.075l7.161-3.459 3.138 7.781-7.365 2.761a3.836 3.836 0 01-4.856-2.008v0zM49.024 29.215l6.997.321M49.322 28.987l2.761-2.831M49.056 27.826l.964-5.106M49.103 28.627l4.063-7.467M49.322 28.987l2.644 2.267M63.731 23.152l-14.409 5.835M72.704 14.688l3.075-7.106L92.313.405M75.936 22.344l7.294 1.6 9.868-3.859" stroke="#000" stroke-miterlimit="10"/></g><defs><clipPath id="sclip0_360_8312"><path fill="#fff" d="M0 0h94v65H0z"/></clipPath></defs></svg></svg>